<svg width="289" height="73" viewBox="0 0 289 73" fill="none" xmlns="http://www.w3.org/2000/svg">
<path d="M2.66536 64.21C3.71536 64.21 4.55536 63.412 4.55536 62.362C4.55536 61.312 3.71536 60.514 2.66536 60.514C1.57336 60.514 0.775356 61.312 0.775356 62.362C0.775356 63.412 1.57336 64.21 2.66536 64.21ZM11.3197 64.21C12.3697 64.21 13.2097 63.412 13.2097 62.362C13.2097 61.312 12.3697 60.514 11.3197 60.514C10.2277 60.514 9.42965 61.312 9.42965 62.362C9.42965 63.412 10.2277 64.21 11.3197 64.21ZM19.9739 64.21C21.0239 64.21 21.8639 63.412 21.8639 62.362C21.8639 61.312 21.0239 60.514 19.9739 60.514C18.8819 60.514 18.0839 61.312 18.0839 62.362C18.0839 63.412 18.8819 64.21 19.9739 64.21ZM45.5277 64H47.6697L56.1117 43.63H53.7177L46.6617 61.018H46.5777L39.4377 43.63H37.0017L45.5277 64ZM68.1434 40.438H70.5794L65.8754 34.852H63.2294L68.1434 40.438ZM67.9754 64.21C71.6714 64.21 74.4854 62.278 75.9554 59.38L76.0394 59.422V64H78.1814V43.63H75.9554V48.25H75.9134C74.4014 45.226 71.4194 43.42 67.9754 43.42C62.0954 43.42 57.9374 48.04 57.9374 53.962C57.9374 60.136 62.3894 64.21 67.9754 64.21ZM68.2274 62.11C63.4394 62.11 60.2474 58.54 60.2474 54.004C60.2474 48.838 63.8174 45.478 68.2694 45.478C72.8474 45.478 76.0394 49.258 76.0394 54.004C76.0394 58.876 72.5114 62.11 68.2274 62.11Z" fill="#505050"/>
<path d="M112.739 65.2109C110.004 64.2474 109.692 61.2786 111.801 56.3047C113.937 51.3307 116.437 46.0964 119.301 40.6016C121.202 36.9297 122.882 33.4661 124.34 30.2109C125.799 26.9557 126.411 24.4427 126.176 22.6719C126.098 22.2812 128.129 21.3958 132.27 20.0156C136.411 18.6094 139.366 17.6719 141.137 17.2031C141.944 16.9948 142.309 16.7344 142.231 16.4219C142.153 16.1094 141.489 15.9271 140.239 15.875C135.681 15.7708 131.489 15.9271 127.661 16.3438C123.859 16.7604 120.499 17.3594 117.583 18.1406C113.572 19.2604 110.486 20.6016 108.325 22.1641C105.721 24.013 104.34 26.1094 104.184 28.4531C104.028 30.7969 104.588 32.724 105.864 34.2344C107.14 35.7188 108.911 36.4609 111.176 36.4609C113.442 36.4609 115.708 35.0547 117.973 32.2422C118.728 31.3568 119.262 31.2656 119.575 31.9688C119.913 32.6719 119.848 33.2839 119.379 33.8047C118.129 35.263 115.838 36.6953 112.504 38.1016C109.197 39.5078 105.994 40.3802 102.895 40.7188C99.8221 41.0573 97.4263 40.5885 95.7075 39.3125C94.0148 38.0365 94.145 35.4453 96.0981 31.5391C97.5304 28.7005 100.187 25.7708 104.067 22.75C107.973 19.7031 111.814 17.099 115.59 14.9375C118.793 13.0885 121.502 11.7474 123.715 10.9141C129.158 8.85677 134.848 7.54167 140.786 6.96875C146.723 6.39583 152.179 6.40885 157.153 7.00781C162.101 7.65885 166.189 8.83073 169.418 10.5234C172.674 12.2161 174.34 14.3255 174.418 16.8516C174.497 21.0182 170.486 25.4062 162.387 30.0156C158.325 32.3854 153.533 34.4948 148.012 36.3438C147.257 36.6302 146.736 36.8906 146.45 37.125C146.163 37.3333 146.567 37.4896 147.661 37.5938C152.661 38.0885 156.333 38.987 158.676 40.2891C161.046 41.5651 162.387 43.0625 162.7 44.7812C162.96 46.526 162.348 48.401 160.864 50.4062C159.405 52.3854 157.348 54.3125 154.692 56.1875C152.036 58.0885 148.95 59.8333 145.434 61.4219C141.918 63.0104 138.26 64.2734 134.458 65.2109C129.926 66.2526 125.681 66.7474 121.723 66.6953C118.416 66.5911 115.421 66.0964 112.739 65.2109ZM125.239 56.3438C125.317 57.4896 125.981 58.4661 127.231 59.2734C128.507 60.0807 129.978 60.7057 131.645 61.1484C133.52 61.487 135.343 61.6042 137.114 61.5C138.911 61.3958 140.877 60.9271 143.012 60.0938C146.658 58.349 148.546 56.474 148.676 54.4688C148.833 52.4635 147.908 50.6406 145.903 49C143.872 47.3854 141.254 46.0703 138.051 45.0547C134.874 44.013 132.088 43.4531 129.692 43.375C129.327 43.375 128.859 43.9089 128.286 44.9766C127.348 46.6953 126.58 48.8047 125.981 51.3047C125.408 53.7266 125.161 55.4062 125.239 56.3438ZM131.02 39.2734C130.942 39.7943 131.15 40.0026 131.645 39.8984C135.708 38.9609 139.926 37.3854 144.301 35.1719C148.702 32.9323 152.361 30.4844 155.278 27.8281C158.194 25.1458 159.458 23.0625 159.067 21.5781C158.676 20.1979 157.478 19.1432 155.473 18.4141C153.494 17.6589 150.786 17.138 147.348 16.8516C146.801 16.8255 146.359 17.0208 146.02 17.4375C142.947 21.0312 140.473 24.1823 138.598 26.8906C136.749 29.599 135.109 32.112 133.676 34.4297C132.244 36.7214 131.359 38.3359 131.02 39.2734ZM173.168 48.7656C173.064 50.0677 173.338 50.6406 173.989 50.4844C174.978 50.25 176.163 49 177.543 46.7344C178.924 44.4427 179.809 42.8021 180.2 41.8125C181.554 38.349 181.541 36.513 180.161 36.3047C179.015 36.1745 177.947 36.8646 176.958 38.375C175.994 39.8854 175.122 41.7214 174.34 43.8828C173.663 45.8359 173.273 47.4635 173.168 48.7656ZM153.637 61.0703C152.543 61.1224 152.127 60.6667 152.387 59.7031C152.648 58.7396 153.468 57.9583 154.848 57.3594C156.411 57.6198 158.364 56.5521 160.708 54.1562C161.619 53.2188 162.361 52.1641 162.934 50.9922C164.262 48.1276 166.306 44.9635 169.067 41.5C171.489 38.6875 173.898 36.5651 176.293 35.1328C178.689 33.6745 180.747 33.0365 182.465 33.2188C185.2 33.5312 186.411 36.1224 186.098 40.9922C186.02 41.5651 186.984 41.3047 188.989 40.2109C190.994 39.1172 191.736 39.0521 191.215 40.0156C189.913 42.0208 188.702 44.2083 187.583 46.5781C186.489 48.9479 186.059 51.0964 186.293 53.0234C186.762 54.5078 187.869 54.8073 189.614 53.9219C190.525 53.4792 192.036 51.8906 194.145 49.1562C194.978 48.1667 195.538 47.8542 195.825 48.2188C196.137 48.5573 195.408 49.8333 193.637 52.0469C191.059 55.5365 188.52 58.5964 186.02 61.2266C183.546 63.8568 181.163 64.9505 178.872 64.5078C177.153 64.1172 176.189 62.6198 175.981 60.0156C175.799 57.3854 176.346 54.1693 177.622 50.3672C177.856 49.638 177.869 49.3255 177.661 49.4297C177.452 49.5078 177.257 49.651 177.075 49.8594C175.096 52.2292 173.325 54.5469 171.762 56.8125C170.226 59.0521 168.989 60.6536 168.051 61.6172C166.489 63.2318 164.978 64.026 163.52 64C160.916 63.8177 160.069 61.4219 160.981 56.8125C161.085 56.2396 160.929 56.1615 160.512 56.5781C159.262 57.8281 158.09 58.8828 156.997 59.7422C155.903 60.6016 154.783 61.0443 153.637 61.0703ZM172.739 65.1719C174.223 65.4323 174.887 66.1615 174.731 67.3594C174.575 68.5573 173.455 69.7031 171.372 70.7969C168.793 72.125 167.075 72.4505 166.215 71.7734C165.538 71.2526 166.02 69.9505 167.661 67.8672C169.301 65.7839 170.994 64.8854 172.739 65.1719ZM212.231 39.5859C214.757 37.8672 216.931 36.6562 218.754 35.9531C220.603 35.224 222.075 34.8203 223.168 34.7422C224.262 34.6641 224.952 34.8333 225.239 35.25C225.551 35.6667 225.447 36.1354 224.926 36.6562C221.254 40.3021 219.067 44.3385 218.364 48.7656C217.687 53.1927 218.168 55.237 219.809 54.8984C220.929 54.7161 222.075 53.9089 223.247 52.4766C224.418 51.0443 225.252 49.9766 225.747 49.2734C226.163 48.7266 226.528 48.6224 226.84 48.9609C227.179 49.2734 226.958 49.9375 226.176 50.9531C224.9 52.8281 222.765 55.4062 219.77 58.6875C216.801 61.9427 214.054 63.7135 211.528 64C208.976 64.1823 207.296 63.1927 206.489 61.0312C205.681 58.8698 205.603 56.5781 206.254 54.1562C206.879 51.8906 207.752 49.8073 208.872 47.9062C209.991 45.9792 210.877 44.5469 211.528 43.6094C212.075 42.8281 212.101 42.5547 211.606 42.7891C211.111 43.0234 210.76 43.2318 210.551 43.4141C208.885 44.8203 206.944 47.3724 204.731 51.0703C202.517 54.7422 200.825 57.2031 199.653 58.4531C198.377 59.8073 196.606 61.0703 194.34 62.2422C192.101 63.4141 190.135 64.1432 188.442 64.4297C188.025 64.4818 187.817 64.3776 187.817 64.1172C187.843 63.8828 188.168 63.2057 188.793 62.0859C189.444 60.862 190.135 59.5339 190.864 58.1016C191.593 56.6693 192.153 55.4453 192.543 54.4297C192.622 54.1953 192.687 53.9219 192.739 53.6094C192.791 53.2708 192.648 53.3229 192.309 53.7656C190.747 55.6927 189.184 57.3464 187.622 58.7266C186.085 60.0807 184.653 60.888 183.325 61.1484C181.971 61.3047 181.424 60.862 181.684 59.8203C181.918 58.7526 182.739 57.9453 184.145 57.3984C186.124 57.4245 188.155 56.2266 190.239 53.8047C192.348 51.3568 193.924 48.7526 194.965 45.9922C195.408 44.8203 195.708 44.1693 195.864 44.0391C196.801 43.1276 198.468 42.0339 200.864 40.7578C203.286 39.4557 205.304 38.5312 206.918 37.9844C208.533 37.4375 209.249 37.3594 209.067 37.75C208.885 38.1146 208.429 38.7266 207.7 39.5859C206.372 41.1224 204.783 44.3776 202.934 49.3516C202.648 50.1328 202.622 50.4193 202.856 50.2109C203.116 50.0026 203.377 49.7161 203.637 49.3516C204.627 48.0234 205.929 46.3177 207.543 44.2344C209.184 42.151 210.747 40.6016 212.231 39.5859ZM233.793 56.0312C235.747 55.4062 236.593 56.0573 236.333 57.9844C236.072 59.8854 234.614 61.487 231.958 62.7891C228.833 64.2214 226.918 64.3906 226.215 63.2969C225.668 62.5156 226.033 61.3568 227.309 59.8203C228.585 58.2578 230.747 56.9948 233.793 56.0312ZM246.176 7.78906C246.749 7.13802 248.051 6.35677 250.083 5.44531C252.14 4.50781 254.314 3.63542 256.606 2.82812C258.898 1.99479 260.981 1.33073 262.856 0.835938C264.731 0.341146 265.786 0.184896 266.02 0.367188C266.202 0.523438 266.059 0.757812 265.59 1.07031C265.148 1.38281 264.796 1.61719 264.536 1.77344C262.765 2.97135 260.564 5.1849 257.934 8.41406C255.33 11.6432 252.674 15.3411 249.965 19.5078C247.283 23.6484 244.757 27.9844 242.387 32.5156C240.043 37.0208 238.273 41.1484 237.075 44.8984C236.71 45.5755 236.15 46.3307 235.395 47.1641C234.64 47.9974 233.937 48.4922 233.286 48.6484C232.661 48.8047 232.218 48.401 231.958 47.4375C231.723 46.474 231.931 44.5208 232.583 41.5781C233.077 39.3646 233.898 36.5391 235.043 33.1016C236.189 29.6641 237.439 26.2396 238.793 22.8281C240.174 19.4167 241.528 16.3047 242.856 13.4922C244.21 10.6797 245.317 8.77865 246.176 7.78906ZM256.45 56.0312C258.403 55.4062 259.249 56.0573 258.989 57.9844C258.728 59.8854 257.27 61.487 254.614 62.7891C251.489 64.2214 249.575 64.3906 248.872 63.2969C248.325 62.5156 248.689 61.3568 249.965 59.8203C251.241 58.2578 253.403 56.9948 256.45 56.0312ZM268.833 7.78906C269.405 7.13802 270.708 6.35677 272.739 5.44531C274.796 4.50781 276.971 3.63542 279.262 2.82812C281.554 1.99479 283.637 1.33073 285.512 0.835938C287.387 0.341146 288.442 0.184896 288.676 0.367188C288.859 0.523438 288.715 0.757812 288.247 1.07031C287.804 1.38281 287.452 1.61719 287.192 1.77344C285.421 2.97135 283.221 5.1849 280.59 8.41406C277.986 11.6432 275.33 15.3411 272.622 19.5078C269.939 23.6484 267.413 27.9844 265.043 32.5156C262.7 37.0208 260.929 41.1484 259.731 44.8984C259.366 45.5755 258.806 46.3307 258.051 47.1641C257.296 47.9974 256.593 48.4922 255.942 48.6484C255.317 48.8047 254.874 48.401 254.614 47.4375C254.379 46.474 254.588 44.5208 255.239 41.5781C255.734 39.3646 256.554 36.5391 257.7 33.1016C258.846 29.6641 260.096 26.2396 261.45 22.8281C262.83 19.4167 264.184 16.3047 265.512 13.4922C266.866 10.6797 267.973 8.77865 268.833 7.78906Z" fill="#F36D25"/>
</svg>
