<svg width="89" height="89" viewBox="0 0 89 89" fill="none" xmlns="http://www.w3.org/2000/svg">
<circle cx="44.5" cy="44.5" r="44.5" fill="#FF8A00"/>
<g clip-path="url(#clip0)">
<path d="M62.1192 30.9616V19.01H32.5693C32.1581 17.4276 30.7305 16.252 29.0225 16.252C26.9943 16.252 25.345 17.9012 25.345 19.9294C25.345 21.6383 26.5216 23.0654 28.1031 23.4762V27.7511L15.563 37.3971L28.1031 47.0432V51.1874H21.6676V60.381H28.1031V66.0277C26.5216 66.4385 25.345 67.8656 25.345 69.5745C25.345 71.6027 26.9943 73.252 29.0225 73.252C31.0506 73.252 32.6999 71.6027 32.6999 69.5745C32.6999 67.8656 31.5229 66.4385 29.9418 66.0277V60.381H36.3773V51.1874H29.9418V47.0432L41.2865 38.3165H50.1676V43.8326H72.2321V30.9616H62.1192ZM30.8612 69.5745C30.8612 70.5886 30.0365 71.4132 29.0225 71.4132C28.0084 71.4132 27.1838 70.5886 27.1838 69.5745C27.1838 68.5605 28.0084 67.7358 29.0225 67.7358C30.0365 67.7358 30.8612 68.5605 30.8612 69.5745ZM34.5386 58.5423H23.5063V53.0261H34.5386V58.5423ZM27.1838 19.9294C27.1838 18.9153 28.0084 18.0907 29.0225 18.0907C30.0365 18.0907 30.8612 18.9153 30.8612 19.9294C30.8612 20.9434 30.0365 21.7681 29.0225 21.7681C28.0084 21.7681 27.1838 20.9434 27.1838 19.9294ZM29.0225 45.4302L18.5783 37.3971L29.0225 29.364L39.4662 37.3971L29.0225 45.4302ZM41.2865 36.4778L29.9418 27.7511V23.4762C31.2279 23.1417 32.2344 22.1348 32.5693 20.8487H60.2805V30.9616H50.1676V36.4778H41.2865ZM70.3934 41.9939H52.0063V32.8003H70.3934V41.9939Z" fill="white"/>
<path d="M53.8452 34.6387H68.5549V36.4774H53.8452V34.6387Z" fill="white"/>
<path d="M53.8452 38.3164H66.7162V40.1551H53.8452V38.3164Z" fill="white"/>
<path d="M40.0547 66.816H69.474V50.2676H40.0547V66.816ZM41.8934 52.1063H67.6353V64.9772H41.8934V52.1063Z" fill="white"/>
<path d="M43.7324 53.9453H45.5711V55.784H43.7324V53.9453Z" fill="white"/>
<path d="M47.4097 53.9453H65.7968V55.784H47.4097V53.9453Z" fill="white"/>
<path d="M47.4097 57.623H65.7968V59.4618H47.4097V57.623Z" fill="white"/>
<path d="M43.7324 57.623H45.5711V59.4618H43.7324V57.623Z" fill="white"/>
<path d="M43.7324 61.3008H45.5711V63.1395H43.7324V61.3008Z" fill="white"/>
<path d="M47.4097 61.3008H65.7968V63.1395H47.4097V61.3008Z" fill="white"/>
</g>
<defs>
<clipPath id="clip0">
<rect width="57" height="57" fill="white" transform="translate(15.4482 16.252)"/>
</clipPath>
</defs>
</svg>
