<svg width="89" height="89" viewBox="0 0 89 89" fill="none" xmlns="http://www.w3.org/2000/svg">
<circle cx="44.5" cy="44.5" r="44.5" fill="#FF8A00"/>
<path d="M61.691 32.5742H54.7112C54.4201 32.5742 54.1841 32.809 54.1841 33.0987C54.1841 33.3883 54.4201 33.6232 54.7112 33.6232H61.691C61.9821 33.6232 62.2181 33.3883 62.2181 33.0987C62.2181 32.809 61.9821 32.5742 61.691 32.5742Z" fill="white"/>
<path d="M68.671 29.2227H54.7115C54.4203 29.2227 54.1843 29.4575 54.1843 29.7471C54.1843 30.0368 54.4203 30.2716 54.7115 30.2716H68.671C68.9621 30.2716 69.1981 30.0368 69.1981 29.7471C69.1981 29.4575 68.9621 29.2227 68.671 29.2227Z" fill="white"/>
<path d="M68.6707 35.9113H54.7112C54.4201 35.9113 54.1841 36.1461 54.1841 36.4358C54.1841 36.7254 54.4201 36.9603 54.7112 36.9603H68.6707C68.9619 36.9603 69.1979 36.7254 69.1979 36.4358C69.1979 36.1461 68.9619 35.9113 68.6707 35.9113Z" fill="white"/>
<path d="M61.691 39.2773H54.7112C54.4201 39.2773 54.1841 39.5122 54.1841 39.8018C54.1841 40.0915 54.4201 40.3263 54.7112 40.3263H61.691C61.9821 40.3263 62.2181 40.0915 62.2181 39.8018C62.2181 39.5122 61.9821 39.2773 61.691 39.2773Z" fill="white"/>
<path d="M68.6707 42.6292H54.7112C54.4201 42.6292 54.1841 42.864 54.1841 43.1537C54.1841 43.4434 54.4201 43.6782 54.7112 43.6782H68.6707C68.9619 43.6782 69.1979 43.4434 69.1979 43.1537C69.1979 42.864 68.9619 42.6292 68.6707 42.6292Z" fill="white"/>
<path d="M68.432 18.685L74.1003 24.321H69.9712C69.122 24.319 68.434 23.6345 68.432 22.7895V18.685Z" fill="white"/>
<path fill-rule="evenodd" clip-rule="evenodd" d="M75.8893 24.4665L68.3695 17.1608C68.2733 17.0609 68.1412 17.0031 68.0022 17H50.483C48.8291 17.004 47.4894 18.337 47.4854 19.9825V41.8603L48.547 42.6704V19.8801C48.5511 18.814 49.4187 17.9507 50.4903 17.9466H67.3887V22.7932C67.3927 24.2146 68.5499 25.3659 69.9785 25.37H74.8423V50.4835C74.8383 51.5497 73.9706 52.413 72.899 52.417H54.7136V53.455H72.8917C74.5455 53.451 75.8852 52.118 75.8893 50.4725V24.4665ZM74.1003 24.321L68.432 18.685V22.7895C68.434 23.6345 69.122 24.319 69.9712 24.321H74.1003Z" fill="white"/>
<path d="M69.919 61.6681C67.2098 67.249 60.9191 69.9771 55.0871 68.4683L56.4681 71.3264C56.4681 71.3264 56.6731 72.1178 55.8908 72.4061C55.1086 72.6944 54.6527 72.1179 54.6527 72.1179L52.2483 67.1409C52.1149 66.8639 52.1217 66.5503 52.249 66.2882C52.3139 66.1544 52.4101 66.0335 52.535 65.9373L57.1411 62.4115C57.1411 62.4115 57.9321 62.0628 58.4025 62.6908C58.8729 63.3189 58.3112 64.0056 58.3112 64.0056L55.1442 66.4303C60.1999 67.965 65.7713 65.6723 68.1318 60.8097C69.0351 58.9489 69.0794 56.9511 69.0588 55.032C69.0588 55.032 69.2036 54.2871 70.0527 54.2871C70.9017 54.2871 71.0752 55.032 71.0752 55.032C71.1112 57.2028 70.9542 59.5356 69.919 61.6681Z" fill="white"/>
<path d="M19.2281 64.6923L20.227 64.7386L20.2498 64.2471L19.8742 63.9291L19.2281 64.6923ZM16.5154 72.9992L15.8304 72.2707L13.9923 73.9992H16.5154V72.9992ZM26.6461 68.6639L26.942 67.7087L26.4443 67.5545L26.0328 67.874L26.6461 68.6639ZM34.0468 37.2656C22.6055 37.2656 12.8892 44.5503 12.8892 54.0145H14.8892C14.8892 46.0862 23.2225 39.2656 34.0468 39.2656V37.2656ZM12.8892 54.0145C12.8892 58.4793 15.0869 62.4965 18.5819 65.4555L19.8742 63.9291C16.7402 61.2757 14.8892 57.785 14.8892 54.0145H12.8892ZM18.2291 64.646C18.1677 65.9724 17.9994 67.4952 17.6157 68.8961C17.228 70.3111 16.6472 71.5025 15.8304 72.2707L17.2005 73.7276C18.3994 72.6002 19.1115 71.0055 19.5446 69.4246C19.9815 67.8296 20.1617 66.1468 20.227 64.7386L18.2291 64.646ZM16.5154 73.9992C18.6485 73.9992 20.7518 73.3046 22.5856 72.4113C24.4268 71.5145 26.0566 70.3875 27.2593 69.4538L26.0328 67.874C24.8972 68.7557 23.3868 69.7964 21.7097 70.6133C20.0253 71.4338 18.2324 71.9992 16.5154 71.9992V73.9992ZM26.3501 69.6191C28.7393 70.3593 31.3358 70.7635 34.0468 70.7635V68.7635C31.5341 68.7635 29.1372 68.3888 26.942 67.7087L26.3501 69.6191ZM34.0468 70.7635C45.4881 70.7635 55.2044 63.4788 55.2044 54.0145H53.2044C53.2044 61.9428 44.871 68.7635 34.0468 68.7635V70.7635ZM55.2044 54.0145C55.2044 44.5503 45.4881 37.2656 34.0468 37.2656V39.2656C44.871 39.2656 53.2044 46.0862 53.2044 54.0145H55.2044ZM25.4078 57.3097C24.3623 57.3097 23.5281 56.4721 23.5281 55.4463H21.5281C21.5281 57.5874 23.2684 59.3097 25.4078 59.3097V57.3097ZM23.5281 55.4463C23.5281 54.4204 24.3623 53.5828 25.4078 53.5828V51.5828C23.2684 51.5828 21.5281 53.3052 21.5281 55.4463H23.5281ZM25.4078 53.5828C26.4533 53.5828 27.2875 54.4204 27.2875 55.4463H29.2875C29.2875 53.3052 27.5472 51.5828 25.4078 51.5828V53.5828ZM27.2875 55.4463C27.2875 56.4721 26.4533 57.3097 25.4078 57.3097V59.3097C27.5472 59.3097 29.2875 57.5874 29.2875 55.4463H27.2875ZM34.0468 57.3097C33.0013 57.3097 32.1671 56.4721 32.1671 55.4463H30.1671C30.1671 57.5874 31.9074 59.3097 34.0468 59.3097V57.3097ZM32.1671 55.4463C32.1671 54.4204 33.0013 53.5828 34.0468 53.5828V51.5828C31.9074 51.5828 30.1671 53.3052 30.1671 55.4463H32.1671ZM34.0468 53.5828C35.0923 53.5828 35.9265 54.4204 35.9265 55.4463H37.9265C37.9265 53.3052 36.1862 51.5828 34.0468 51.5828V53.5828ZM35.9265 55.4463C35.9265 56.4721 35.0923 57.3097 34.0468 57.3097V59.3097C36.1862 59.3097 37.9265 57.5874 37.9265 55.4463H35.9265ZM42.6858 57.3097C41.6403 57.3097 40.8061 56.4721 40.8061 55.4463H38.8061C38.8061 57.5874 40.5464 59.3097 42.6858 59.3097V57.3097ZM40.8061 55.4463C40.8061 54.4204 41.6403 53.5828 42.6858 53.5828V51.5828C40.5464 51.5828 38.8061 53.3052 38.8061 55.4463H40.8061ZM42.6858 53.5828C43.7313 53.5828 44.5654 54.4204 44.5654 55.4463H46.5654C46.5654 53.3052 44.8252 51.5828 42.6858 51.5828V53.5828ZM44.5654 55.4463C44.5654 56.4721 43.7313 57.3097 42.6858 57.3097V59.3097C44.8252 59.3097 46.5654 57.5874 46.5654 55.4463H44.5654Z" fill="white"/>
</svg>
