<svg width="139" height="139" viewBox="0 0 139 139" fill="none" xmlns="http://www.w3.org/2000/svg">
<path d="M83.5961 88.7222C82.5815 82.9589 58.4308 82.115 53.5995 82.0033C53.2069 82.0115 52.8973 82.3 52.8885 82.6854C52.8796 83.0704 53.1838 83.3891 53.5682 83.3973C64.3126 83.645 81.5937 85.3737 82.2269 88.9645C82.2851 89.3023 82.5787 89.5391 82.9101 89.5391C82.9508 89.5391 82.9915 89.5364 83.0324 89.5281C83.4102 89.4627 83.6627 89.1007 83.5961 88.7222Z" fill="#FF8A00"/>
<path d="M76.3511 47.5398C76.2846 47.1607 75.9234 46.9069 75.5457 46.9749C75.1667 47.0415 74.914 47.4028 74.982 47.782C76.0794 54.0273 57.3308 60.7497 50.0138 62.8126C49.6436 62.9168 49.4283 63.3019 49.5323 63.6721C49.6186 63.9799 49.8978 64.1806 50.2013 64.1806C50.2637 64.1806 50.3276 64.1724 50.39 64.1548C50.4578 64.1358 57.2424 62.211 63.7607 59.2973C72.7775 55.2674 77.0141 51.3118 76.3511 47.5398Z" fill="#FF8A00"/>
<path d="M79.0895 47.055C79.0229 46.6754 78.663 46.4209 78.284 46.4903L75.5457 46.9749C75.1667 47.0415 74.914 47.4028 74.982 47.782C75.0404 48.1203 75.3341 48.3578 75.6654 48.3578C75.7061 48.3578 75.7468 48.3545 75.7877 48.3469L78.526 47.8623C78.9036 47.7955 79.1562 47.4342 79.0895 47.055Z" fill="#FF8A00"/>
<path d="M86.3345 88.2376L79.0895 47.055C79.0229 46.6754 78.663 46.4209 78.284 46.4903C77.9052 46.557 77.6524 46.9184 77.7205 47.2975L84.9653 88.4801C85.0237 88.8177 85.3171 89.0544 85.6487 89.0544C85.6892 89.0544 85.7301 89.0516 85.7708 89.0434C86.1484 88.9781 86.4011 88.6162 86.3345 88.2376Z" fill="#FF8A00"/>
<path d="M86.3345 88.2376C86.2679 87.8579 85.9019 87.6007 85.5284 87.6715L82.7901 88.1561C82.4113 88.2241 82.1589 88.5849 82.2269 88.9645C82.2851 89.3023 82.5787 89.5391 82.9101 89.5391C82.9508 89.5391 82.9915 89.5364 83.0324 89.5281L85.7708 89.0434C86.1484 88.9781 86.4011 88.6162 86.3345 88.2376Z" fill="#FF8A00"/>
<path d="M54.2686 82.5806C54.202 82.1994 53.8428 81.9463 53.4631 82.0143L39.0811 84.557L35.9402 66.713L50.3228 64.1696C50.701 64.103 50.9537 63.7416 50.8864 63.3625C50.8198 62.9827 50.455 62.7261 50.0809 62.7975L35.0138 65.4614C34.6355 65.5282 34.3828 65.8895 34.4501 66.2687L37.8321 85.4854C37.8912 85.823 38.1845 86.0598 38.516 86.0598C38.556 86.0598 38.5969 86.0571 38.6376 86.0488L53.7048 83.3865C54.0832 83.3211 54.3359 82.9591 54.2686 82.5806Z" fill="#FF8A00"/>
<path d="M39.2013 85.2429L35.8193 66.0262C35.7819 65.8113 35.6453 65.626 35.4505 65.5268C35.2562 65.426 35.0261 65.4239 34.8304 65.5207L25.7261 69.9596C25.4469 70.0955 25.2914 70.4011 25.3457 70.7076L27.7606 84.4346C27.8142 84.7395 28.0641 84.9734 28.3732 85.0062L38.4447 86.057C38.4685 86.0597 38.4922 86.0598 38.516 86.0598C38.7082 86.0598 38.8936 85.981 39.0254 85.8392C39.1742 85.6787 39.2394 85.458 39.2013 85.2429ZM29.0389 83.6737L26.8066 70.9832L34.6097 67.1786L37.672 84.5748L29.0389 83.6737Z" fill="#FF8A00"/>
<path d="M53.7853 79.8366L51.3704 66.1081C51.3044 65.729 50.9404 65.471 50.5649 65.5432C50.1865 65.6099 49.934 65.9713 50.0011 66.3504L52.4161 80.0787C52.4752 80.4165 52.7686 80.6532 53.1 80.6532C53.14 80.6532 53.1809 80.6504 53.2217 80.6424C53.6 80.5771 53.8526 80.215 53.7853 79.8366Z" fill="#FF8A00"/>
<path d="M33.7313 70.416C33.5487 70.0787 33.1257 69.9527 32.7887 70.1357L28.9204 72.2355C28.583 72.4178 28.4574 72.8398 28.6407 73.1801C28.7665 73.4114 29.0054 73.5449 29.2526 73.5449C29.3646 73.5449 29.478 73.5177 29.5833 73.4604L33.4516 71.3614C33.7891 71.1775 33.9148 70.755 33.7313 70.416Z" fill="#FF8A00"/>
<path d="M35.1538 81.0399L30.8033 80.3947C30.4243 80.343 30.0698 80.6015 30.0135 80.9827C29.9571 81.3638 30.2199 81.7178 30.5996 81.7736L34.9501 82.4187C34.9847 82.4227 35.0188 82.4255 35.0528 82.4255C35.3916 82.4255 35.689 82.1778 35.74 81.8321C35.7963 81.4509 35.5335 81.097 35.1538 81.0399Z" fill="#FF8A00"/>
<path d="M34.7707 76.1176C34.7043 75.7393 34.343 75.4848 33.9654 75.5542L29.8567 76.2783C29.4783 76.3463 29.2258 76.7071 29.2929 77.0868C29.3521 77.4246 29.6453 77.6613 29.9769 77.6613C30.0169 77.6613 30.0576 77.6585 30.0983 77.6503L34.207 76.9262C34.5853 76.8581 34.8379 76.4974 34.7707 76.1176Z" fill="#FF8A00"/>
<path d="M39.8081 64.612C39.7415 64.2329 39.3796 63.9749 39.0026 64.047L36.2631 64.5316C35.8848 64.5984 35.6321 64.9598 35.6994 65.3389C35.7585 65.6771 36.052 65.9147 36.3833 65.9147C36.4235 65.9147 36.4642 65.9113 36.5049 65.9038L39.2444 65.4193C39.6227 65.3525 39.8755 64.9911 39.8081 64.612Z" fill="#FF8A00"/>
<path d="M59.6938 105.511L52.6864 89.765C52.531 89.4141 52.1195 89.2534 51.7683 89.4127C51.4173 89.569 51.2597 89.9815 51.4166 90.3327L58.4238 106.079C58.5392 106.339 58.7933 106.492 59.0594 106.492C59.1539 106.492 59.2502 106.473 59.3419 106.432C59.6931 106.275 59.8506 105.863 59.6938 105.511Z" fill="#FF8A00"/>
<path d="M51.475 106.964L44.4678 91.2174C44.3123 90.8679 43.9007 90.7071 43.5495 90.8651C43.1985 91.0214 43.041 91.4339 43.1978 91.7851L50.2051 107.532C50.3205 107.79 50.5745 107.945 50.8406 107.945C50.9351 107.945 51.0316 107.926 51.1233 107.884C51.4743 107.728 51.6319 107.315 51.475 106.964Z" fill="#FF8A00"/>
<path d="M61.1126 105.432C61.0462 105.053 60.6863 104.796 60.3073 104.866L49.3487 106.805C48.9704 106.87 48.7179 107.232 48.7852 107.61C48.8443 107.95 49.1378 108.188 49.4691 108.188C49.5091 108.188 49.5498 108.184 49.5905 108.177L60.5489 106.238C60.9272 106.173 61.1797 105.811 61.1126 105.432Z" fill="#FF8A00"/>
<path d="M41.2966 89.1197L41.0249 87.5761C40.9583 87.1963 40.5956 86.9364 40.2194 87.0099C39.8411 87.0781 39.5884 87.4387 39.6557 87.8186L39.9274 89.3621C39.9865 89.6998 40.2799 89.9365 40.6113 89.9365C40.6513 89.9365 40.692 89.9339 40.7329 89.9255C41.1112 89.8601 41.3639 89.4981 41.2966 89.1197Z" fill="#FF8A00"/>
<path d="M55.0012 86.7443C54.936 86.3646 54.5775 86.1113 54.1971 86.1767L40.4923 88.5535C40.114 88.6188 39.8607 88.9793 39.9259 89.3593C39.9844 89.6984 40.2792 89.9365 40.6113 89.9365C40.6508 89.9365 40.6899 89.9339 40.7301 89.9269L54.4349 87.5501C54.813 87.4848 55.0664 87.1243 55.0012 86.7443Z" fill="#FF8A00"/>
<path d="M55.0003 86.7431L54.7585 85.3682C54.6926 84.99 54.3265 84.7355 53.953 84.8049C53.5747 84.8702 53.3222 85.2323 53.3893 85.6107L53.6313 86.9855C53.6904 87.3232 53.9838 87.5599 54.3152 87.5599C54.3552 87.5599 54.3961 87.5571 54.4366 87.5489C54.8149 87.4835 55.0676 87.1217 55.0003 86.7431Z" fill="#FF8A00"/>
<path d="M88.6168 39.8869H88.6032C88.2186 39.8869 87.9144 40.1988 87.9144 40.584C87.9144 40.9693 88.2336 41.2809 88.6168 41.2809C89.001 41.2809 89.3122 40.9693 89.3122 40.584C89.3122 40.1988 89.001 39.8869 88.6168 39.8869Z" fill="#FF8A00"/>
<path d="M92.7892 39.8869H92.7756C92.3912 39.8869 92.087 40.1988 92.087 40.584C92.087 40.9693 92.4062 41.2809 92.7892 41.2809C93.1736 41.2809 93.4846 40.9693 93.4846 40.584C93.4846 40.1988 93.1736 39.8869 92.7892 39.8869Z" fill="#FF8A00"/>
<path d="M99.7024 81.7038C94.7174 81.7038 90.6617 85.7685 90.6617 90.7641C90.6617 95.7598 94.7176 99.8245 99.7024 99.8245C104.687 99.8245 108.743 95.7598 108.743 90.7641C108.743 85.7683 104.687 81.7038 99.7024 81.7038ZM99.7024 98.4303C95.4838 98.4303 92.0527 94.9906 92.0527 90.7641C92.0527 86.5363 95.4836 83.0978 99.7024 83.0978C103.92 83.0978 107.352 86.5363 107.352 90.7641C107.352 94.9906 103.92 98.4303 99.7024 98.4303Z" fill="#FF8A00"/>
<path d="M90.6616 35.7057C86.8274 35.7057 83.7075 38.8324 83.7075 42.6749C83.7075 46.5175 86.8272 49.6442 90.6616 49.6442C94.4961 49.6442 97.616 46.5175 97.6158 42.6749C97.6158 38.8324 94.4959 35.7057 90.6616 35.7057ZM90.6616 48.2502C87.5934 48.2502 85.0983 45.749 85.0983 42.6748C85.0983 39.6006 87.5932 37.0993 90.6616 37.0993C93.7287 37.0993 96.225 39.6006 96.225 42.6748C96.225 45.749 93.7287 48.2502 90.6616 48.2502Z" fill="#FF8A00"/>
<path d="M101.832 52.4319C94.9292 52.4319 89.3144 58.0598 89.3144 64.9768C89.3144 71.8938 94.9292 77.5225 101.832 77.5225C108.733 77.5225 114.35 71.8938 114.35 64.9768C114.35 58.0598 108.733 52.4319 101.832 52.4319ZM101.832 76.1285C95.6966 76.1285 90.7052 71.1254 90.7052 64.9768C90.7052 58.8282 95.6968 53.8258 101.832 53.8258C107.967 53.8258 112.959 58.8282 112.959 64.9768C112.959 71.1254 107.967 76.1285 101.832 76.1285Z" fill="#FF8A00"/>
<path d="M101.555 87.0453C100.869 87.0453 100.224 87.2752 99.7009 87.6905C99.1766 87.2752 98.5315 87.0453 97.8467 87.0453C96.1858 87.0453 94.8343 88.401 94.8343 90.0672C94.8343 93.7289 99.2323 95.731 99.4196 95.8142C99.5094 95.8552 99.6058 95.8742 99.7023 95.8742C99.7986 95.8742 99.895 95.8552 99.9848 95.8142C100.172 95.731 104.57 93.7289 104.57 90.0672C104.57 88.401 103.217 87.0453 101.555 87.0453ZM99.7009 94.4C98.8248 93.9414 96.2251 92.3802 96.2251 90.0674C96.2251 89.1702 96.9516 88.4393 97.8467 88.4393C98.3588 88.4393 98.8316 88.6814 99.1439 89.1036C99.2758 89.2792 99.4821 89.3841 99.7023 89.3841C99.7023 89.3841 99.7023 89.3841 99.7037 89.3841C99.9235 89.3841 100.13 89.2779 100.26 89.1008C100.571 88.6816 101.043 88.4393 101.555 88.4393C102.45 88.4393 103.179 89.1704 103.179 90.0674C103.179 92.3704 100.575 93.9386 99.7009 94.4Z" fill="#FF8A00"/>
<path d="M107.192 62.3931C107.061 62.2626 106.885 62.189 106.7 62.189H106.004V58.7043C106.004 58.3191 105.694 58.0074 105.309 58.0074H103.918C103.636 58.0074 103.38 58.1796 103.275 58.4416C103.264 58.4681 102.187 61.0891 100.688 62.3523C99.2908 63.5305 98.3495 63.583 98.3549 63.583C97.9705 63.583 97.6595 63.8947 97.6595 64.2799V68.4615C97.6595 68.8468 97.9705 69.1584 98.3549 69.1584H99.4578L100.645 70.3481C100.775 70.4787 100.952 70.5522 101.137 70.5522H106.7C106.885 70.5522 107.061 70.4787 107.192 70.3481C108.861 68.6751 108.861 64.066 107.192 62.3931ZM106.379 69.1584H101.425L100.237 67.9687C100.107 67.8382 99.9306 67.7646 99.7459 67.7646H99.0503V64.8605C99.6248 64.7 100.516 64.3195 101.585 63.419C102.958 62.2599 103.969 60.278 104.372 59.4014H104.614V62.8861C104.614 63.2713 104.925 63.583 105.309 63.583H106.379C107.266 64.8203 107.266 67.921 106.379 69.1584Z" fill="#FF8A00"/>
<path d="M98.3549 62.189H94.1823C93.7981 62.189 93.4869 62.5009 93.4869 62.8861V69.8553C93.4869 70.2406 93.7981 70.5522 94.1823 70.5522H98.3549C98.7393 70.5522 99.0503 70.2406 99.0503 69.8553V62.8861C99.0503 62.5009 98.7393 62.189 98.3549 62.189ZM97.6595 69.1584H94.8777V63.583H97.6595V69.1584Z" fill="#FF8A00"/>
<path d="M92.7696 44.0816C92.445 44.0919 92.077 44.371 92.0524 44.7459C92.0443 44.865 91.9409 45.4626 90.6616 45.4626C89.3915 45.4626 89.279 44.8744 89.2708 44.7486C89.2613 44.3715 88.9529 44.0686 88.5754 44.0686C88.1909 44.0686 87.88 44.3804 87.88 44.7656C87.88 45.4892 88.4613 46.8565 90.6616 46.8565C92.8621 46.8565 93.4434 45.4892 93.4432 44.7656C93.4432 44.3893 93.1444 44.0938 92.7696 44.0816Z" fill="#FF8A00"/>
<path d="M108.786 31.498C105.718 31.498 103.223 33.9993 103.223 37.0735C103.223 40.1477 105.718 42.6489 108.786 42.6489C111.853 42.6489 114.35 40.1477 114.35 37.0735C114.35 33.9993 111.853 31.498 108.786 31.498ZM108.786 41.2551C106.485 41.2551 104.614 39.3795 104.614 37.0735C104.614 34.7675 106.485 32.8919 108.786 32.8919C111.087 32.8919 112.959 34.7677 112.959 37.0735C112.959 39.3793 111.087 41.2551 108.786 41.2551Z" fill="#FF8A00"/>
<path d="M113.654 39.1642C113.27 39.1642 112.959 39.4761 112.959 39.8613C112.959 42.1671 111.087 44.0429 108.786 44.0429C106.485 44.0429 104.614 42.1671 104.614 39.8613C104.614 39.4761 104.303 39.1642 103.918 39.1642C103.534 39.1642 103.223 39.4761 103.223 39.8613C103.223 42.9355 105.718 45.4368 108.786 45.4368C111.853 45.4368 114.35 42.9355 114.35 39.8613C114.35 39.4761 114.039 39.1642 113.654 39.1642Z" fill="#FF8A00"/>
<path d="M108.786 34.2859C108.402 34.2859 108.091 34.5976 108.091 34.9828V39.1643C108.091 39.5495 108.402 39.8614 108.786 39.8614C109.171 39.8614 109.482 39.5495 109.482 39.1645V34.9828C109.482 34.5976 109.171 34.2859 108.786 34.2859Z" fill="#FF8A00"/>
<path d="M110.873 36.3766L106.7 36.3752C106.316 36.3752 106.005 36.6869 106.005 37.0721C106.005 37.4567 106.316 37.769 106.7 37.769L110.873 37.7704C111.256 37.7704 111.568 37.4588 111.568 37.0735C111.568 36.689 111.257 36.3766 110.873 36.3766Z" fill="#FF8A00"/>
<path d="M103.918 36.3765C103.534 36.3765 103.223 36.6882 103.223 37.0735V39.8613C103.223 40.2464 103.534 40.5582 103.918 40.5582C104.303 40.5582 104.614 40.2464 104.614 39.8613V37.0735C104.614 36.6882 104.303 36.3765 103.918 36.3765Z" fill="#FF8A00"/>
<path d="M113.654 36.3765C113.27 36.3765 112.959 36.6882 112.959 37.0735V39.8613C112.959 40.2464 113.27 40.5582 113.654 40.5582C114.039 40.5582 114.35 40.2464 114.35 39.8613V37.0735C114.35 36.6882 114.039 36.3765 113.654 36.3765Z" fill="#FF8A00"/>
<path d="M83.5961 88.7222L83.8423 88.6789L83.5961 88.7222ZM53.5995 82.0033L53.6053 81.7531L53.5943 81.7533L53.5995 82.0033ZM52.8885 82.6854L53.1384 82.6911V82.6911L52.8885 82.6854ZM53.5682 83.3973L53.574 83.1473L53.5735 83.1473L53.5682 83.3973ZM82.2269 88.9645L82.4732 88.922L82.4731 88.9211L82.2269 88.9645ZM83.0324 89.5281L82.9888 89.2818L82.9822 89.2832L83.0324 89.5281ZM76.3511 47.5398L76.1048 47.583L76.1048 47.5831L76.3511 47.5398ZM75.5457 46.9749L75.589 47.2211L75.5893 47.2211L75.5457 46.9749ZM74.982 47.782L75.2282 47.7387L75.2281 47.7378L74.982 47.782ZM50.0138 62.8126L50.0815 63.0532L50.0816 63.0532L50.0138 62.8126ZM49.5323 63.6721L49.773 63.6046L49.773 63.6045L49.5323 63.6721ZM50.39 64.1548L50.3226 63.914L50.3222 63.9142L50.39 64.1548ZM63.7607 59.2973L63.6587 59.0691L63.6586 59.0691L63.7607 59.2973ZM79.0895 47.055L78.8433 47.0982L78.8433 47.0983L79.0895 47.055ZM78.284 46.4903L78.3276 46.7364L78.3291 46.7362L78.284 46.4903ZM75.7877 48.3469L75.7441 48.1007L75.7416 48.1012L75.7877 48.3469ZM78.526 47.8623L78.4825 47.6161L78.4824 47.6161L78.526 47.8623ZM86.3345 88.2376L86.0883 88.2809L86.0883 88.2809L86.3345 88.2376ZM77.7205 47.2975L77.9667 47.2542L77.9665 47.2534L77.7205 47.2975ZM84.9653 88.4801L85.2116 88.4374L85.2115 88.4367L84.9653 88.4801ZM85.7708 89.0434L85.7281 88.7971L85.7272 88.7973L85.7708 89.0434ZM85.5284 87.6715L85.572 87.9177L85.575 87.9171L85.5284 87.6715ZM82.7901 88.1561L82.7466 87.9099L82.746 87.91L82.7901 88.1561ZM54.2686 82.5806L54.0223 82.6237L54.0224 82.6244L54.2686 82.5806ZM53.4631 82.0143L53.5066 82.2605L53.5071 82.2604L53.4631 82.0143ZM39.0811 84.557L38.8349 84.6003L38.8783 84.8467L39.1247 84.8032L39.0811 84.557ZM35.9402 66.713L35.8966 66.4668L35.6507 66.5103L35.694 66.7563L35.9402 66.713ZM50.3228 64.1696L50.2795 63.9234L50.2793 63.9234L50.3228 64.1696ZM50.8864 63.3625L50.6401 63.4057L50.6402 63.4062L50.8864 63.3625ZM50.0809 62.7975L50.1244 63.0438L50.1278 63.0431L50.0809 62.7975ZM35.0138 65.4614L35.0572 65.7076L35.0573 65.7076L35.0138 65.4614ZM34.4501 66.2687L34.6963 66.2253L34.6962 66.225L34.4501 66.2687ZM37.8321 85.4854L38.0783 85.4423L38.0783 85.4421L37.8321 85.4854ZM38.6376 86.0488L38.5941 85.8025L38.5872 85.8039L38.6376 86.0488ZM53.7048 83.3865L53.6623 83.1401L53.6613 83.1403L53.7048 83.3865ZM39.2013 85.2429L38.9551 85.2862L38.9551 85.2865L39.2013 85.2429ZM35.8193 66.0262L35.573 66.069L35.5731 66.0695L35.8193 66.0262ZM35.4505 65.5268L35.3354 65.7487L35.3371 65.7496L35.4505 65.5268ZM34.8304 65.5207L34.94 65.7454L34.9412 65.7448L34.8304 65.5207ZM25.7261 69.9596L25.8356 70.1843L25.8356 70.1843L25.7261 69.9596ZM25.3457 70.7076L25.5919 70.6642L25.5919 70.664L25.3457 70.7076ZM27.7606 84.4346L28.0068 84.3914L28.0068 84.3913L27.7606 84.4346ZM28.3732 85.0062L28.3469 85.2548L28.3473 85.2548L28.3732 85.0062ZM38.4447 86.057L38.4737 85.8086L38.4706 85.8083L38.4447 86.057ZM39.0254 85.8392L39.2085 86.0095L39.2089 86.0091L39.0254 85.8392ZM29.0389 83.6737L28.7927 83.717L28.8253 83.9028L29.0129 83.9224L29.0389 83.6737ZM26.8066 70.9832L26.697 70.7584L26.5277 70.841L26.5604 71.0265L26.8066 70.9832ZM34.6097 67.1786L34.8559 67.1352L34.7984 66.8084L34.5002 66.9539L34.6097 67.1786ZM37.672 84.5748L37.6461 84.8234L37.9757 84.8578L37.9183 84.5314L37.672 84.5748ZM53.7853 79.8366L53.5391 79.8799L53.5392 79.8804L53.7853 79.8366ZM51.3704 66.1081L51.1241 66.1509L51.1241 66.1514L51.3704 66.1081ZM50.5649 65.5432L50.6083 65.7894L50.612 65.7887L50.5649 65.5432ZM50.0011 66.3504L50.2473 66.3071L50.2473 66.3068L50.0011 66.3504ZM52.4161 80.0787L52.6623 80.0356L52.6623 80.0354L52.4161 80.0787ZM53.2217 80.6424L53.1792 80.396L53.1736 80.3971L53.2217 80.6424ZM33.7313 70.416L33.9512 70.297L33.9511 70.2969L33.7313 70.416ZM32.7887 70.1357L32.908 70.3554L32.9081 70.3554L32.7887 70.1357ZM28.9204 72.2355L29.0392 72.4554L29.0397 72.4552L28.9204 72.2355ZM28.6407 73.1801L28.4206 73.2987L28.4211 73.2995L28.6407 73.1801ZM29.5833 73.4604L29.464 73.2406L29.4636 73.2408L29.5833 73.4604ZM33.4516 71.3614L33.5708 71.5812L33.5712 71.581L33.4516 71.3614ZM35.1538 81.0399L35.191 80.7927L35.1905 80.7926L35.1538 81.0399ZM30.8033 80.3947L30.84 80.1474L30.8371 80.147L30.8033 80.3947ZM30.0135 80.9827L30.2608 81.0193L30.2608 81.0193L30.0135 80.9827ZM30.5996 81.7736L30.6363 81.5263L30.636 81.5262L30.5996 81.7736ZM34.9501 82.4187L34.9134 82.6661L34.9214 82.667L34.9501 82.4187ZM35.74 81.8321L35.4927 81.7956L35.4926 81.7957L35.74 81.8321ZM34.7707 76.1176L34.5245 76.1609L34.5245 76.1611L34.7707 76.1176ZM33.9654 75.5542L34.0088 75.8004L34.0106 75.8001L33.9654 75.5542ZM29.8567 76.2783L29.8133 76.0321L29.8124 76.0323L29.8567 76.2783ZM29.2929 77.0868L29.5392 77.0437L29.5391 77.0433L29.2929 77.0868ZM30.0983 77.6503L30.0549 77.4041L30.0489 77.4053L30.0983 77.6503ZM34.207 76.9262L34.2504 77.1725L34.2513 77.1723L34.207 76.9262ZM39.8081 64.612L39.5619 64.6553L39.562 64.6557L39.8081 64.612ZM39.0026 64.047L39.0462 64.2933L39.0497 64.2926L39.0026 64.047ZM36.2631 64.5316L36.3066 64.7778L36.3067 64.7778L36.2631 64.5316ZM35.6994 65.3389L35.9457 65.2958L35.9456 65.2952L35.6994 65.3389ZM36.5049 65.9038L36.4614 65.6577L36.4596 65.658L36.5049 65.9038ZM39.2444 65.4193L39.201 65.1731L39.2009 65.1731L39.2444 65.4193ZM59.6938 105.511L59.4653 105.613L59.4655 105.613L59.6938 105.511ZM52.6864 89.765L52.4578 89.8662L52.458 89.8666L52.6864 89.765ZM51.7683 89.4127L51.8701 89.641L51.8716 89.6403L51.7683 89.4127ZM51.4166 90.3327L51.645 90.2311L51.6449 90.2308L51.4166 90.3327ZM58.4238 106.079L58.6524 105.978L58.6522 105.977L58.4238 106.079ZM59.3419 106.432L59.2401 106.203L59.2399 106.203L59.3419 106.432ZM51.475 106.964L51.2466 107.065L51.2467 107.066L51.475 106.964ZM44.4678 91.2174L44.2393 91.319L44.2394 91.319L44.4678 91.2174ZM43.5495 90.8651L43.6513 91.0934L43.6521 91.0931L43.5495 90.8651ZM43.1978 91.7851L43.4263 91.6835L43.4261 91.6831L43.1978 91.7851ZM50.2051 107.532L49.9766 107.633L49.9768 107.634L50.2051 107.532ZM51.1233 107.884L51.0214 107.656L51.0184 107.657L51.1233 107.884ZM61.1126 105.432L60.8663 105.476L60.8664 105.476L61.1126 105.432ZM60.3073 104.866L60.3508 105.113L60.3532 105.112L60.3073 104.866ZM49.3487 106.805L49.3912 107.051L49.3923 107.051L49.3487 106.805ZM48.7852 107.61L49.0315 107.567L49.0313 107.567L48.7852 107.61ZM49.5905 108.177L49.6317 108.423L49.6341 108.423L49.5905 108.177ZM60.5489 106.238L60.5063 105.992L60.5053 105.992L60.5489 106.238ZM41.2966 89.1197L41.0504 89.163L41.0504 89.1634L41.2966 89.1197ZM41.0249 87.5761L40.7787 87.6193L40.7787 87.6194L41.0249 87.5761ZM40.2194 87.0099L40.2637 87.256L40.2674 87.2553L40.2194 87.0099ZM39.6557 87.8186L39.9019 87.7752L39.9018 87.775L39.6557 87.8186ZM39.9274 89.3621L40.1736 89.319L40.1736 89.3188L39.9274 89.3621ZM40.7329 89.9255L40.6903 89.679L40.6827 89.6806L40.7329 89.9255ZM55.0012 86.7443L55.2476 86.702L55.2476 86.7019L55.0012 86.7443ZM54.1971 86.1767L54.1547 85.9303L54.1544 85.9304L54.1971 86.1767ZM40.4923 88.5535L40.5348 88.7998L40.535 88.7998L40.4923 88.5535ZM39.9259 89.3593L39.6795 89.4016L39.6796 89.4018L39.9259 89.3593ZM40.7301 89.9269L40.6873 89.6806L40.6873 89.6806L40.7301 89.9269ZM54.4349 87.5501L54.3923 87.3038L54.3921 87.3038L54.4349 87.5501ZM55.0003 86.7431L54.7541 86.7864L54.7542 86.7868L55.0003 86.7431ZM54.7585 85.3682L54.5123 85.4112L54.5123 85.4115L54.7585 85.3682ZM53.953 84.8049L53.9956 85.0512L53.9987 85.0506L53.953 84.8049ZM53.3893 85.6107L53.6355 85.5674L53.6355 85.567L53.3893 85.6107ZM53.6313 86.9855L53.8775 86.9424L53.8775 86.9422L53.6313 86.9855ZM54.4366 87.5489L54.394 87.3025L54.3871 87.3039L54.4366 87.5489ZM89.3122 40.584H89.5622H89.3122ZM108.743 90.7641L108.993 90.7642V90.7641H108.743ZM97.6158 42.6749H97.3658V42.675L97.6158 42.6749ZM99.7009 87.6905L99.5457 87.8864L99.7011 88.0095L99.8564 87.8862L99.7009 87.6905ZM99.4196 95.8142L99.5234 95.5868L99.5211 95.5857L99.4196 95.8142ZM99.9848 95.8142L99.8833 95.5857L99.881 95.5868L99.9848 95.8142ZM99.7009 94.4L99.5849 94.6215L99.7013 94.6824L99.8175 94.6211L99.7009 94.4ZM99.1439 89.1036L98.943 89.2523L98.944 89.2538L99.1439 89.1036ZM100.26 89.1008L100.06 88.9519L100.059 88.9526L100.26 89.1008ZM103.179 90.0674H102.929H103.179ZM107.192 62.3931L107.369 62.2165L107.369 62.2164L107.192 62.3931ZM106.004 62.189H105.754V62.439H106.004V62.189ZM103.275 58.4416L103.506 58.5358L103.506 58.5353L103.275 58.4416ZM100.688 62.3523L100.85 62.5435L100.85 62.5435L100.688 62.3523ZM99.4578 69.1584L99.6348 68.9818L99.5615 68.9084H99.4578V69.1584ZM100.645 70.3481L100.468 70.5247L100.468 70.5248L100.645 70.3481ZM107.192 70.3481L107.369 70.5248L107.369 70.5247L107.192 70.3481ZM106.379 69.1584V69.4084H106.508L106.583 69.3041L106.379 69.1584ZM101.425 69.1584L101.248 69.335L101.321 69.4084H101.425V69.1584ZM100.237 67.9687L100.414 67.7922L100.414 67.792L100.237 67.9687ZM99.0503 67.7646H98.8003V68.0146H99.0503V67.7646ZM99.0503 64.8605L98.983 64.6198L98.8003 64.6708V64.8605H99.0503ZM101.585 63.419L101.746 63.6102L101.746 63.61L101.585 63.419ZM104.372 59.4014V59.1514H104.212L104.145 59.2969L104.372 59.4014ZM104.614 59.4014H104.864V59.1514H104.614V59.4014ZM106.379 63.583L106.583 63.4373L106.508 63.333H106.379V63.583ZM97.6595 69.1584V69.4084H97.9095V69.1584H97.6595ZM94.8777 69.1584H94.6277V69.4084H94.8777V69.1584ZM94.8777 63.583V63.333H94.6277V63.583H94.8777ZM97.6595 63.583H97.9095V63.333H97.6595V63.583ZM92.7696 44.0816L92.7777 43.8318L92.7697 43.8315L92.7617 43.8318L92.7696 44.0816ZM92.0524 44.7459L92.3018 44.7631L92.3019 44.7623L92.0524 44.7459ZM89.2708 44.7486L89.0207 44.7549L89.0214 44.7648L89.2708 44.7486ZM93.4432 44.7656H93.1932V44.7657L93.4432 44.7656ZM112.959 37.0735H112.709H112.959ZM109.482 39.1645H109.232V39.1646L109.482 39.1645ZM109.482 34.9828H109.232H109.482ZM110.873 36.3766L110.873 36.6266H110.873V36.3766ZM106.7 36.3752L106.7 36.1252H106.7V36.3752ZM106.7 37.769L106.7 37.519H106.7V37.769ZM110.873 37.7704L110.873 38.0204H110.873V37.7704ZM111.568 37.0735H111.318V37.0736L111.568 37.0735ZM83.8423 88.6789C83.7002 87.8717 83.1579 87.1784 82.364 86.5834C81.5691 85.9875 80.4978 85.4712 79.245 85.0214C76.7384 84.1213 73.4534 83.4693 70.0636 82.9958C63.2805 82.0484 56.0234 81.8093 53.6053 81.7534L53.5937 82.2532C56.0069 82.309 63.2408 82.5477 69.9945 83.491C73.3732 83.9629 76.618 84.6094 79.076 85.492C80.3056 85.9335 81.3252 86.4296 82.0641 86.9834C82.804 87.5381 83.2383 88.1319 83.3499 88.7656L83.8423 88.6789ZM53.5943 81.7533C53.0792 81.7641 52.6507 82.1495 52.6385 82.6796L53.1384 82.6911C53.1439 82.4505 53.3347 82.2589 53.6047 82.2532L53.5943 81.7533ZM52.6385 82.6796C52.6265 83.2024 53.0398 83.6361 53.5629 83.6472L53.5735 83.1473C53.3278 83.1421 53.1327 82.9384 53.1384 82.6911L52.6385 82.6796ZM53.5624 83.6472C58.927 83.7709 65.9217 84.2644 71.6501 85.1741C74.5159 85.6293 77.0533 86.1868 78.9086 86.85C79.8371 87.1819 80.5823 87.5359 81.1101 87.9087C81.6425 88.2848 81.9184 88.6546 81.9807 89.0079L82.4731 88.9211C82.3771 88.3768 81.9744 87.907 81.3986 87.5003C80.8182 87.0903 80.0254 86.7182 79.0769 86.3792C77.1782 85.7005 74.6051 85.1372 71.7285 84.6803C65.9719 83.7661 58.9538 83.2714 53.574 83.1473L53.5624 83.6472ZM81.9805 89.007C82.06 89.4677 82.4601 89.7891 82.9101 89.7891V89.2891C82.6974 89.2891 82.5103 89.137 82.4732 88.922L81.9805 89.007ZM82.9101 89.7891C82.9612 89.7891 83.0198 89.7858 83.0825 89.773L82.9822 89.2832C82.9632 89.2871 82.9404 89.2891 82.9101 89.2891V89.7891ZM83.075 89.7744C83.5903 89.6853 83.9327 89.1924 83.8423 88.6789L83.3499 88.7656C83.3927 89.0089 83.23 89.2402 82.9897 89.2817L83.075 89.7744ZM76.5973 47.4967C76.5071 46.9822 76.0165 46.6361 75.5014 46.7289L75.59 47.2209C75.8302 47.1777 76.0621 47.3392 76.1048 47.583L76.5973 47.4967ZM75.5025 46.7287C74.9872 46.8192 74.6435 47.3106 74.7359 47.8261L75.2281 47.7378C75.1845 47.495 75.3462 47.2638 75.589 47.2211L75.5025 46.7287ZM74.7358 47.8252C74.9862 49.2504 74.1109 50.7596 72.4057 52.2891C70.7127 53.8076 68.2667 55.2861 65.5419 56.6419C60.0956 59.3519 53.595 61.5432 49.9459 62.5719L50.0816 63.0532C53.7495 62.0191 60.2817 59.8178 65.7646 57.0895C68.5045 55.7262 70.9972 54.2241 72.7396 52.6613C74.4697 51.1093 75.5265 49.4363 75.2282 47.7387L74.7358 47.8252ZM49.946 62.5719C49.4426 62.7137 49.1504 63.237 49.2916 63.7397L49.773 63.6045C49.7062 63.3667 49.8446 63.1199 50.0815 63.0532L49.946 62.5719ZM49.2916 63.7396C49.4089 64.158 49.7884 64.4306 50.2013 64.4306V63.9306C50.0071 63.9306 49.8283 63.8019 49.773 63.6046L49.2916 63.7396ZM50.2013 64.4306C50.2854 64.4306 50.3722 64.4196 50.4578 64.3954L50.3222 63.9142C50.283 63.9252 50.242 63.9306 50.2013 63.9306V64.4306ZM50.4574 64.3955C50.5289 64.3755 57.3275 62.4468 63.8627 59.5256L63.6586 59.0691C57.1573 61.9752 50.3868 63.8961 50.3226 63.914L50.4574 64.3955ZM63.8627 59.5256C68.3811 57.5061 71.7235 55.4963 73.8565 53.5046C75.9883 51.5139 76.9499 49.5025 76.5973 47.4966L76.1048 47.5831C76.4153 49.3492 75.5901 51.2016 73.5152 53.1391C71.4414 55.0756 68.1571 57.0586 63.6587 59.0691L63.8627 59.5256ZM79.3358 47.0118C79.2456 46.4977 78.7567 46.1496 78.239 46.2443L78.3291 46.7362C78.5694 46.6922 78.8003 46.8531 78.8433 47.0982L79.3358 47.0118ZM78.2405 46.2441L75.5022 46.7287L75.5893 47.2211L78.3276 46.7364L78.2405 46.2441ZM74.7357 47.8245C74.8152 48.2852 75.2149 48.6078 75.6654 48.6078V48.1078C75.4533 48.1078 75.2657 47.9555 75.2284 47.7394L74.7357 47.8245ZM75.6654 48.6078C75.7198 48.6078 75.776 48.6034 75.8338 48.5926L75.7416 48.1012C75.7176 48.1057 75.6925 48.1078 75.6654 48.1078V48.6078ZM75.8313 48.593L78.5695 48.1084L78.4824 47.6161L75.7441 48.1007L75.8313 48.593ZM78.5695 48.1085C79.0836 48.0176 79.4262 47.5262 79.3358 47.0118L78.8433 47.0983C78.8862 47.3421 78.7236 47.5735 78.4825 47.6161L78.5695 48.1085ZM86.5807 88.1943L79.3358 47.0117L78.8433 47.0983L86.0883 88.2809L86.5807 88.1943ZM78.2407 46.244C77.7257 46.3348 77.3819 46.8262 77.4744 47.3416L77.9665 47.2534C77.923 47.0106 78.0847 46.7792 78.3274 46.7365L78.2407 46.244ZM77.4742 47.3408L84.7191 88.5234L85.2115 88.4367L77.9667 47.2542L77.4742 47.3408ZM84.7189 88.5227C84.7986 88.9831 85.1985 89.3044 85.6487 89.3044V88.8044C85.4358 88.8044 85.2488 88.6523 85.2116 88.4374L84.7189 88.5227ZM85.6487 89.3044C85.7004 89.3044 85.7586 89.3009 85.8201 89.2885L85.7214 88.7984C85.7015 88.8024 85.678 88.8044 85.6487 88.8044V89.3044ZM85.8134 89.2898C86.3285 89.2006 86.6711 88.708 86.5807 88.1943L86.0883 88.2809C86.1311 88.5244 85.9683 88.7555 85.7281 88.7971L85.8134 89.2898ZM86.5807 88.1944C86.4906 87.6809 85.9958 87.3285 85.4819 87.4259L85.575 87.9171C85.808 87.873 86.0451 88.0349 86.0883 88.2808L86.5807 88.1944ZM85.4849 87.4253L82.7466 87.9099L82.8337 88.4023L85.572 87.9177L85.4849 87.4253ZM82.746 87.91C82.2318 88.0023 81.8883 88.4925 81.9808 89.0086L82.4729 88.9204C82.4294 88.6772 82.5908 88.4459 82.8343 88.4022L82.746 87.91ZM83.0759 89.7743L85.8143 89.2896L85.7272 88.7973L82.9888 89.2819L83.0759 89.7743ZM54.5148 82.5376C54.4246 82.0213 53.9363 81.6756 53.419 81.7682L53.5071 82.2604C53.7492 82.217 53.9793 82.3775 54.0223 82.6237L54.5148 82.5376ZM53.4195 81.7681L39.0376 84.3108L39.1247 84.8032L53.5066 82.2605L53.4195 81.7681ZM39.3273 84.5137L36.1864 66.6697L35.694 66.7563L38.8349 84.6003L39.3273 84.5137ZM35.9837 66.9592L50.3664 64.4158L50.2793 63.9234L35.8966 66.4668L35.9837 66.9592ZM50.3662 64.4158C50.8807 64.3252 51.224 63.8337 51.1325 63.3188L50.6402 63.4062C50.6834 63.6495 50.5212 63.8808 50.2795 63.9234L50.3662 64.4158ZM51.1326 63.3193C51.0425 62.8057 50.5488 62.4536 50.034 62.552L50.1278 63.0431C50.3612 62.9985 50.597 63.1596 50.6401 63.4057L51.1326 63.3193ZM50.0374 62.5514L34.9703 65.2152L35.0573 65.7076L50.1244 63.0437L50.0374 62.5514ZM34.9703 65.2152C34.4558 65.306 34.1125 65.7974 34.2039 66.3124L34.6962 66.225C34.653 65.9817 34.8152 65.7503 35.0572 65.7076L34.9703 65.2152ZM34.2038 66.312L37.5859 85.5287L38.0783 85.4421L34.6963 66.2253L34.2038 66.312ZM37.5858 85.5285C37.6664 85.9883 38.0656 86.3098 38.516 86.3098V85.8098C38.3033 85.8098 38.1161 85.6578 38.0783 85.4423L37.5858 85.5285ZM38.516 86.3098C38.5664 86.3098 38.6253 86.3065 38.6879 86.2937L38.5872 85.8039C38.5685 85.8078 38.5456 85.8098 38.516 85.8098V86.3098ZM38.6811 86.295L53.7483 83.6327L53.6613 83.1403L38.5941 85.8026L38.6811 86.295ZM53.7474 83.6328C54.2631 83.5437 54.6061 83.0509 54.5147 82.5368L54.0224 82.6244C54.0656 82.8672 53.9033 83.0985 53.6623 83.1401L53.7474 83.6328ZM39.4475 85.1996L36.0655 65.9829L35.5731 66.0695L38.9551 85.2862L39.4475 85.1996ZM36.0656 65.9833C36.0147 65.691 35.829 65.4389 35.564 65.304L35.3371 65.7496C35.4617 65.813 35.5491 65.9315 35.573 66.069L36.0656 65.9833ZM35.5656 65.3048C35.3007 65.1674 34.9867 65.1645 34.7196 65.2966L34.9412 65.7448C35.0656 65.6833 35.2118 65.6846 35.3354 65.7487L35.5656 65.3048ZM34.7209 65.296L25.6165 69.7349L25.8356 70.1843L34.94 65.7454L34.7209 65.296ZM25.6166 69.7348C25.2368 69.9198 25.0258 70.335 25.0995 70.7512L25.5919 70.664C25.557 70.4672 25.657 70.2713 25.8356 70.1843L25.6166 69.7348ZM25.0995 70.7509L27.5144 84.4779L28.0068 84.3913L25.5919 70.6642L25.0995 70.7509ZM27.5144 84.4779C27.5873 84.8926 27.9269 85.2103 28.3469 85.2548L28.3996 84.7576C28.2014 84.7366 28.0411 84.5864 28.0068 84.3914L27.5144 84.4779ZM28.3473 85.2548L38.4187 86.3056L38.4706 85.8083L28.3992 84.7575L28.3473 85.2548ZM38.4156 86.3053C38.4562 86.31 38.4944 86.3098 38.516 86.3098V85.8098C38.49 85.8098 38.4808 85.8095 38.4737 85.8087L38.4156 86.3053ZM38.516 86.3098C38.7762 86.3098 39.0284 86.2031 39.2085 86.0095L38.8424 85.669C38.7588 85.7588 38.6402 85.8098 38.516 85.8098V86.3098ZM39.2089 86.0091C39.4105 85.7914 39.4993 85.4918 39.4475 85.1993L38.9551 85.2865C38.9795 85.4242 38.9378 85.566 38.842 85.6694L39.2089 86.0091ZM29.2851 83.6304L27.0528 70.9398L26.5604 71.0265L28.7927 83.717L29.2851 83.6304ZM26.9161 71.2079L34.7193 67.4033L34.5002 66.9539L26.697 70.7584L26.9161 71.2079ZM34.3635 67.2219L37.4258 84.6181L37.9183 84.5314L34.8559 67.1352L34.3635 67.2219ZM37.698 84.3261L29.0648 83.4251L29.0129 83.9224L37.6461 84.8234L37.698 84.3261ZM54.0315 79.7933L51.6166 66.0648L51.1241 66.1514L53.5391 79.8799L54.0315 79.7933ZM51.6167 66.0653C51.5275 65.5525 51.0346 65.1983 50.5177 65.2977L50.612 65.7887C50.8462 65.7437 51.0814 65.9054 51.1241 66.1509L51.6167 66.0653ZM50.5214 65.297C50.0067 65.3878 49.6638 65.8792 49.755 66.394L50.2473 66.3068C50.2042 66.0634 50.3663 65.8321 50.6083 65.7894L50.5214 65.297ZM49.7549 66.3937L52.1698 80.122L52.6623 80.0354L50.2473 66.3071L49.7549 66.3937ZM52.1698 80.1218C52.2503 80.5818 52.6498 80.9032 53.1 80.9032V80.4032C52.8875 80.4032 52.7001 80.2512 52.6623 80.0356L52.1698 80.1218ZM53.1 80.9032C53.1513 80.9032 53.209 80.8997 53.2699 80.8878L53.1736 80.3971C53.1527 80.4012 53.1287 80.4032 53.1 80.4032V80.9032ZM53.2643 80.8888C53.78 80.7997 54.1228 80.3067 54.0314 79.7928L53.5392 79.8804C53.5824 80.1233 53.4201 80.3545 53.1792 80.3961L53.2643 80.8888ZM33.9511 70.2969C33.7029 69.8384 33.1281 69.6668 32.6694 69.916L32.9081 70.3554C33.1232 70.2385 33.3945 70.3189 33.5115 70.535L33.9511 70.2969ZM32.6695 69.916L28.8011 72.0157L29.0397 72.4552L32.908 70.3554L32.6695 69.916ZM28.8015 72.0155C28.3418 72.2639 28.1724 72.8379 28.4206 73.2986L28.8608 73.0615C28.7424 72.8417 28.8241 72.5716 29.0392 72.4554L28.8015 72.0155ZM28.4211 73.2995C28.5918 73.6135 28.9164 73.7949 29.2526 73.7949V73.2949C29.0945 73.2949 28.9411 73.2093 28.8603 73.0607L28.4211 73.2995ZM29.2526 73.7949C29.4054 73.7949 29.5601 73.7577 29.7029 73.6799L29.4636 73.2408C29.396 73.2777 29.3239 73.2949 29.2526 73.2949V73.7949ZM29.7025 73.6801L33.5708 71.5812L33.3324 71.1417L29.464 73.2406L29.7025 73.6801ZM33.5712 71.581C34.0296 71.3312 34.2003 70.7573 33.9512 70.297L33.5114 70.535C33.6293 70.7527 33.5485 71.0239 33.332 71.1419L33.5712 71.581ZM35.1905 80.7926L30.84 80.1474L30.7666 80.642L35.1171 81.2872L35.1905 80.7926ZM30.8371 80.147C30.3258 80.0772 29.843 80.426 29.7661 80.9461L30.2608 81.0193C30.2966 80.7769 30.5228 80.6087 30.7695 80.6424L30.8371 80.147ZM29.7662 80.9461C29.6897 81.4634 30.0464 81.945 30.5633 82.0209L30.636 81.5262C30.3934 81.4906 30.2246 81.2641 30.2608 81.0193L29.7662 80.9461ZM30.563 82.0209L34.9135 82.666L34.9868 82.1714L30.6363 81.5263L30.563 82.0209ZM34.9214 82.667C34.961 82.6716 35.0055 82.6755 35.0528 82.6755V82.1755C35.0321 82.1755 35.0085 82.1738 34.9789 82.1704L34.9214 82.667ZM35.0528 82.6755C35.5132 82.6755 35.9179 82.3392 35.9873 81.8686L35.4926 81.7957C35.4601 82.0164 35.2699 82.1755 35.0528 82.1755V82.6755ZM35.9873 81.8687C36.0638 81.351 35.7069 80.8703 35.191 80.7927L35.1166 81.2871C35.3601 81.3238 35.5288 81.5508 35.4927 81.7956L35.9873 81.8687ZM35.0169 76.0744C34.9268 75.5611 34.4362 75.2135 33.9202 75.3083L34.0106 75.8001C34.2498 75.7561 34.4817 75.9175 34.5245 76.1609L35.0169 76.0744ZM33.922 75.308L29.8133 76.0321L29.9001 76.5245L34.0088 75.8004L33.922 75.308ZM29.8124 76.0323C29.2987 76.1246 28.9556 76.6148 29.0468 77.1303L29.5391 77.0433C29.496 76.7995 29.658 76.568 29.9009 76.5244L29.8124 76.0323ZM29.0467 77.1299C29.1272 77.5898 29.5265 77.9113 29.9769 77.9113V77.4113C29.7642 77.4113 29.5769 77.2594 29.5392 77.0437L29.0467 77.1299ZM29.9769 77.9113C30.0282 77.9113 30.0862 77.9078 30.1476 77.8954L30.0489 77.4053C30.0289 77.4093 30.0055 77.4113 29.9769 77.4113V77.9113ZM30.1417 77.8965L34.2504 77.1724L34.1636 76.68L30.0549 77.4041L30.1417 77.8965ZM34.2513 77.1723C34.7649 77.0798 35.1081 76.5899 35.0169 76.0741L34.5245 76.1611C34.5676 76.405 34.4057 76.6364 34.1627 76.6802L34.2513 77.1723ZM40.0544 64.5687C39.9644 64.0569 39.4743 63.7022 38.9556 63.8015L39.0497 64.2926C39.2848 64.2476 39.5186 64.4088 39.5619 64.6553L40.0544 64.5687ZM38.9591 63.8009L36.2196 64.2855L36.3067 64.7778L39.0462 64.2932L38.9591 63.8009ZM36.2197 64.2854C35.7051 64.3763 35.3618 64.8676 35.4533 65.3826L35.9456 65.2952C35.9024 65.0519 36.0645 64.8206 36.3066 64.7778L36.2197 64.2854ZM35.4531 65.382C35.5336 65.8418 35.9326 66.1647 36.3833 66.1647V65.6647C36.1714 65.6647 35.9835 65.5123 35.9457 65.2958L35.4531 65.382ZM36.3833 66.1647C36.4372 66.1647 36.4932 66.1602 36.5502 66.1497L36.4596 65.658C36.4352 65.6625 36.4098 65.6647 36.3833 65.6647V66.1647ZM36.5485 66.15L39.288 65.6654L39.2009 65.1731L36.4614 65.6577L36.5485 66.15ZM39.2879 65.6655C39.8024 65.5746 40.1457 65.0833 40.0543 64.5683L39.562 64.6557C39.6052 64.899 39.443 65.1303 39.201 65.1731L39.2879 65.6655ZM59.9222 105.41L52.9148 89.6633L52.458 89.8666L59.4653 105.613L59.9222 105.41ZM52.915 89.6638C52.7042 89.1876 52.1446 88.9675 51.665 89.185L51.8716 89.6403C52.0945 89.5392 52.3579 89.6405 52.4578 89.8662L52.915 89.6638ZM51.6666 89.1843C51.1891 89.397 50.9753 89.9576 51.1884 90.4347L51.6449 90.2308C51.5442 90.0053 51.6456 89.741 51.8701 89.641L51.6666 89.1843ZM51.1882 90.4344L58.1954 106.181L58.6522 105.977L51.645 90.2311L51.1882 90.4344ZM58.1953 106.18C58.3524 106.535 58.6987 106.742 59.0594 106.742V106.242C58.8878 106.242 58.7259 106.143 58.6524 105.978L58.1953 106.18ZM59.0594 106.742C59.1874 106.742 59.3187 106.716 59.4439 106.66L59.2399 106.203C59.1817 106.229 59.1203 106.242 59.0594 106.242V106.742ZM59.4437 106.66C59.9213 106.447 60.1351 105.887 59.922 105.409L59.4655 105.613C59.5661 105.839 59.4649 106.103 59.2401 106.203L59.4437 106.66ZM51.7034 106.862L44.6962 91.1157L44.2394 91.319L51.2466 107.065L51.7034 106.862ZM44.6962 91.1157C44.485 90.6412 43.9259 90.4217 43.447 90.6371L43.6521 91.0931C43.8755 90.9926 44.1395 91.0945 44.2393 91.319L44.6962 91.1157ZM43.4478 90.6367C42.9703 90.8494 42.7565 91.41 42.9696 91.8871L43.4261 91.6831C43.3254 91.4577 43.4268 91.1934 43.6513 91.0934L43.4478 90.6367ZM42.9694 91.8867L49.9766 107.633L50.4335 107.43L43.4263 91.6835L42.9694 91.8867ZM49.9768 107.634C50.1335 107.984 50.4783 108.195 50.8406 108.195V107.695C50.6707 107.695 50.5076 107.596 50.4333 107.43L49.9768 107.634ZM50.8406 108.195C50.9686 108.195 51.1013 108.17 51.2281 108.111L51.0184 107.657C50.9619 107.683 50.9015 107.695 50.8406 107.695V108.195ZM51.2251 108.112C51.7025 107.899 51.9163 107.339 51.7032 106.862L51.2467 107.066C51.3474 107.291 51.246 107.556 51.0214 107.656L51.2251 108.112ZM61.3589 105.389C61.2691 104.877 60.7812 104.523 60.2614 104.621L60.3532 105.112C60.5913 105.068 60.8232 105.229 60.8663 105.476L61.3589 105.389ZM60.2637 104.62L49.3052 106.559L49.3923 107.051L60.3508 105.112L60.2637 104.62ZM49.3063 106.558C48.7904 106.647 48.4476 107.14 48.5391 107.654L49.0313 107.567C48.9881 107.324 49.1505 107.093 49.3912 107.051L49.3063 106.558ZM48.5389 107.653C48.6192 108.114 49.0179 108.438 49.4691 108.438V107.938C49.2576 107.938 49.0695 107.785 49.0315 107.567L48.5389 107.653ZM49.4691 108.438C49.5262 108.438 49.581 108.432 49.6317 108.423L49.5493 107.93C49.5186 107.935 49.4921 107.938 49.4691 107.938V108.438ZM49.6341 108.423L60.5924 106.485L60.5053 105.992L49.547 107.931L49.6341 108.423ZM60.5914 106.485C61.1072 106.396 61.4499 105.903 61.3587 105.389L60.8664 105.476C60.9095 105.719 60.7472 105.95 60.5063 105.992L60.5914 106.485ZM41.5428 89.0763L41.2711 87.5328L40.7787 87.6194L41.0504 89.163L41.5428 89.0763ZM41.2711 87.5329C41.1815 87.0216 40.6913 86.6629 40.1714 86.7646L40.2674 87.2553C40.5 87.2098 40.7351 87.371 40.7787 87.6193L41.2711 87.5329ZM40.1751 86.7639C39.6616 86.8564 39.3181 87.3462 39.4095 87.8622L39.9018 87.775C39.8586 87.5312 40.0206 87.2998 40.2637 87.256L40.1751 86.7639ZM39.4095 87.8619L39.6811 89.4055L40.1736 89.3188L39.9019 87.7752L39.4095 87.8619ZM39.6811 89.4053C39.7616 89.8651 40.1611 90.1865 40.6113 90.1865V89.6865C40.3987 89.6865 40.2113 89.5345 40.1736 89.319L39.6811 89.4053ZM40.6113 90.1865C40.6618 90.1865 40.7204 90.1833 40.783 90.1704L40.6827 89.6806C40.6636 89.6845 40.6408 89.6865 40.6113 89.6865V90.1865ZM40.7754 90.1719C41.2911 90.0828 41.6342 89.5899 41.5427 89.0759L41.0504 89.1634C41.0936 89.4063 40.9313 89.6375 40.6903 89.6792L40.7754 90.1719ZM55.2476 86.7019C55.1589 86.186 54.671 85.8416 54.1547 85.9303L54.2394 86.4231C54.484 86.3811 54.713 86.5432 54.7548 86.7866L55.2476 86.7019ZM54.1544 85.9304L40.4496 88.3072L40.535 88.7998L54.2398 86.423L54.1544 85.9304ZM40.4497 88.3071C39.9344 88.3962 39.5912 88.8867 39.6795 89.4016L40.1723 89.317C40.1303 89.0719 40.2936 88.8415 40.5348 88.7998L40.4497 88.3071ZM39.6796 89.4018C39.7591 89.8634 40.1603 90.1865 40.6113 90.1865V89.6865C40.3982 89.6865 40.2096 89.5333 40.1723 89.3169L39.6796 89.4018ZM40.6113 90.1865C40.6621 90.1865 40.7158 90.1831 40.7728 90.1732L40.6873 89.6806C40.6639 89.6846 40.6395 89.6865 40.6113 89.6865V90.1865ZM40.7728 90.1732L54.4776 87.7964L54.3921 87.3038L40.6873 89.6806L40.7728 90.1732ZM54.4774 87.7965C54.9925 87.7074 55.336 87.2169 55.2476 86.702L54.7548 86.7866C54.7969 87.0316 54.6335 87.2621 54.3923 87.3038L54.4774 87.7965ZM55.2465 86.6998L55.0048 85.3249L54.5123 85.4115L54.7541 86.7864L55.2465 86.6998ZM55.0048 85.3253C54.9152 84.811 54.4186 84.4641 53.9074 84.5591L53.9987 85.0506C54.2343 85.0069 54.4701 85.169 54.5123 85.4112L55.0048 85.3253ZM53.9105 84.5585C53.3947 84.6476 53.052 85.1405 53.1432 85.6544L53.6355 85.567C53.5924 85.324 53.7547 85.0928 53.9956 85.0512L53.9105 84.5585ZM53.1431 85.654L53.385 87.0289L53.8775 86.9422L53.6355 85.5674L53.1431 85.654ZM53.385 87.0287C53.4655 87.4885 53.865 87.8099 54.3152 87.8099V87.3099C54.1026 87.3099 53.9153 87.1579 53.8775 86.9424L53.385 87.0287ZM54.3152 87.8099C54.3664 87.8099 54.4247 87.8064 54.4861 87.794L54.3871 87.3039C54.3674 87.3078 54.344 87.3099 54.3152 87.3099V87.8099ZM54.4792 87.7953C54.9948 87.7062 55.3379 87.2135 55.2465 86.6993L54.7542 86.7868C54.7974 87.0298 54.635 87.2609 54.394 87.3026L54.4792 87.7953ZM88.6168 39.6369H88.6032V40.1369H88.6168V39.6369ZM88.6032 39.6369C88.0768 39.6369 87.6644 40.0645 87.6644 40.584H88.1644C88.1644 40.3331 88.3604 40.1369 88.6032 40.1369V39.6369ZM87.6644 40.584C87.6644 41.1103 88.0985 41.5309 88.6168 41.5309V41.0309C88.3686 41.0309 88.1644 40.8282 88.1644 40.584H87.6644ZM88.6168 41.5309C89.1395 41.5309 89.5622 41.1069 89.5622 40.584H89.0622C89.0622 40.8317 88.8624 41.0309 88.6168 41.0309V41.5309ZM89.5622 40.584C89.5622 40.0613 89.1396 39.6369 88.6168 39.6369V40.1369C88.8624 40.1369 89.0622 40.3363 89.0622 40.584H89.5622ZM92.7892 39.6369H92.7756V40.1369H92.7892V39.6369ZM92.7756 39.6369C92.2494 39.6369 91.837 40.0645 91.837 40.584H92.337C92.337 40.3331 92.533 40.1369 92.7756 40.1369V39.6369ZM91.837 40.584C91.837 41.1103 92.2711 41.5309 92.7892 41.5309V41.0309C92.5412 41.0309 92.337 40.8282 92.337 40.584H91.837ZM92.7892 41.5309C93.3121 41.5309 93.7346 41.1068 93.7346 40.584H93.2346C93.2346 40.8317 93.035 41.0309 92.7892 41.0309V41.5309ZM93.7346 40.584C93.7346 40.0613 93.3122 39.6369 92.7892 39.6369V40.1369C93.0349 40.1369 93.2346 40.3363 93.2346 40.584H93.7346ZM99.7024 81.4538C94.5788 81.4538 90.4117 85.6309 90.4117 90.7641H90.9117C90.9117 85.906 94.856 81.9538 99.7024 81.9538V81.4538ZM90.4117 90.7641C90.4117 95.8974 94.579 100.074 99.7024 100.074V99.5745C94.8562 99.5745 90.9117 95.6223 90.9117 90.7641H90.4117ZM99.7024 100.074C104.826 100.074 108.993 95.8974 108.993 90.7642L108.493 90.7641C108.493 95.6223 104.549 99.5745 99.7024 99.5745V100.074ZM108.993 90.7641C108.993 85.6307 104.826 81.4538 99.7024 81.4538V81.9538C104.549 81.9538 108.493 85.9059 108.493 90.7641H108.993ZM99.7024 98.1803C95.6224 98.1803 92.3027 94.853 92.3027 90.7641H91.8027C91.8027 95.1281 95.3452 98.6803 99.7024 98.6803V98.1803ZM92.3027 90.7641C92.3027 86.6739 95.6222 83.3478 99.7024 83.3478V82.8478C95.345 82.8478 91.8027 86.3988 91.8027 90.7641H92.3027ZM99.7024 83.3478C103.781 83.3478 107.102 86.6739 107.102 90.7641H107.602C107.602 86.3988 104.058 82.8478 99.7024 82.8478V83.3478ZM107.102 90.7641C107.102 94.853 103.781 98.1803 99.7024 98.1803V98.6803C104.058 98.6803 107.602 95.1281 107.602 90.7641H107.102ZM90.6616 35.4557C86.6888 35.4557 83.4575 38.6948 83.4575 42.6749H83.9575C83.9575 38.9699 86.966 35.9557 90.6616 35.9557V35.4557ZM83.4575 42.6749C83.4575 46.6551 86.6886 49.8942 90.6616 49.8942V49.3942C86.9658 49.3942 83.9575 46.38 83.9575 42.6749H83.4575ZM90.6616 49.8942C94.6346 49.8942 97.866 46.6551 97.8658 42.6749L97.3658 42.675C97.366 46.38 94.3575 49.3942 90.6616 49.3942V49.8942ZM97.8658 42.6749C97.8658 38.6948 94.6345 35.4557 90.6616 35.4557V35.9557C94.3573 35.9557 97.3658 38.9699 97.3658 42.6749H97.8658ZM90.6616 48.0002C87.732 48.0002 85.3483 45.6114 85.3483 42.6748H84.8483C84.8483 45.8865 87.4548 48.5002 90.6616 48.5002V48.0002ZM85.3483 42.6748C85.3483 39.7381 87.7318 37.3493 90.6616 37.3493V36.8493C87.4546 36.8493 84.8483 39.463 84.8483 42.6748H85.3483ZM90.6616 37.3493C93.5901 37.3493 95.975 39.7381 95.975 42.6748H96.475C96.475 39.463 93.8672 36.8493 90.6616 36.8493V37.3493ZM95.975 42.6748C95.975 45.6114 93.5901 48.0002 90.6616 48.0002V48.5002C93.8672 48.5002 96.475 45.8865 96.475 42.6748H95.975ZM101.832 52.1819C94.7906 52.1819 89.0644 57.9223 89.0644 64.9768H89.5644C89.5644 58.1974 95.0678 52.6819 101.832 52.6819V52.1819ZM89.0644 64.9768C89.0644 72.0313 94.7906 77.7725 101.832 77.7725V77.2725C95.0678 77.2725 89.5644 71.7562 89.5644 64.9768H89.0644ZM101.832 77.7725C108.872 77.7725 114.6 72.0313 114.6 64.9768H114.1C114.1 71.7562 108.595 77.2725 101.832 77.2725V77.7725ZM114.6 64.9768C114.6 57.9223 108.872 52.1819 101.832 52.1819V52.6819C108.595 52.6819 114.1 58.1974 114.1 64.9768H114.6ZM101.832 75.8785C95.8352 75.8785 90.9552 70.9878 90.9552 64.9768H90.4552C90.4552 71.2629 95.558 76.3785 101.832 76.3785V75.8785ZM90.9552 64.9768C90.9552 58.9658 95.8354 54.0758 101.832 54.0758V53.5758C95.5582 53.5758 90.4552 58.6907 90.4552 64.9768H90.9552ZM101.832 54.0758C107.829 54.0758 112.709 58.9658 112.709 64.9768H113.209C113.209 58.6907 108.106 53.5758 101.832 53.5758V54.0758ZM112.709 64.9768C112.709 70.9878 107.829 75.8785 101.832 75.8785V76.3785C108.106 76.3785 113.209 71.2629 113.209 64.9768H112.709ZM101.555 86.7953C100.812 86.7953 100.112 87.0446 99.5454 87.4947L99.8564 87.8862C100.335 87.5059 100.926 87.2953 101.555 87.2953V86.7953ZM99.8561 87.4945C99.2882 87.0447 98.5885 86.7953 97.8467 86.7953V87.2953C98.4745 87.2953 99.0651 87.5058 99.5457 87.8864L99.8561 87.4945ZM97.8467 86.7953C96.047 86.7953 94.5843 88.2636 94.5843 90.0672H95.0843C95.0843 88.5383 96.3246 87.2953 97.8467 87.2953V86.7953ZM94.5843 90.0672C94.5843 92.0043 95.7474 93.4833 96.8934 94.472C98.0429 95.4635 99.2143 95.9966 99.3182 96.0427L99.5211 95.5857C99.4376 95.5487 98.3164 95.0391 97.22 94.0933C96.1203 93.1447 95.0843 91.7918 95.0843 90.0672H94.5843ZM99.3158 96.0416C99.4408 96.0987 99.573 96.1242 99.7023 96.1242V95.6242C99.6385 95.6242 99.5779 95.6116 99.5234 95.5868L99.3158 96.0416ZM99.7023 96.1242C99.8315 96.1242 99.9636 96.0987 100.089 96.0416L99.881 95.5868C99.8264 95.6117 99.7658 95.6242 99.7023 95.6242V96.1242ZM100.086 96.0427C100.19 95.9966 101.361 95.4635 102.511 94.472C103.657 93.4833 104.82 92.0043 104.82 90.0672H104.32C104.32 91.7918 103.284 93.1447 102.184 94.0933C101.088 95.0391 99.9668 95.5487 99.8833 95.5857L100.086 96.0427ZM104.82 90.0672C104.82 88.2634 103.356 86.7953 101.555 86.7953V87.2953C103.079 87.2953 104.32 88.5385 104.32 90.0672H104.82ZM99.8168 94.1785C99.3888 93.9544 98.5435 93.4626 97.8085 92.7496C97.0708 92.034 96.4751 91.1263 96.4751 90.0674H95.9751C95.9751 91.3214 96.6792 92.3506 97.4604 93.1085C98.2443 93.8689 99.1368 94.3869 99.5849 94.6215L99.8168 94.1785ZM96.4751 90.0674C96.4751 89.3072 97.0908 88.6893 97.8467 88.6893V88.1893C96.8125 88.1893 95.9751 89.0332 95.9751 90.0674H96.4751ZM97.8467 88.6893C98.2772 88.6893 98.6763 88.8919 98.943 89.2523L99.3449 88.9549C98.9868 88.471 98.4404 88.1893 97.8467 88.1893V88.6893ZM98.944 89.2538C99.1223 89.4911 99.4021 89.6341 99.7023 89.6341V89.1341C99.562 89.1341 99.4293 89.0672 99.3438 88.9535L98.944 89.2538ZM99.7023 89.3841C99.7023 89.1341 99.7023 89.1341 99.7023 89.1341C99.7023 89.3841 99.7023 89.6341 99.7023 89.6341H99.7023C99.7023 89.6341 99.7023 89.6341 99.7023 89.6341H99.7023C99.7023 89.6341 99.7023 89.6341 99.7023 89.6341C99.7023 89.6341 99.7023 89.6341 99.7023 89.6341C99.7023 89.6341 99.7023 89.6341 99.7023 89.6341H99.7023H99.7023C99.7024 89.6341 99.7024 89.6341 99.7024 89.6341C99.7024 89.6341 99.7024 89.6341 99.7024 89.6341H99.7024H99.7024C99.7024 89.6341 99.7024 89.6341 99.7024 89.6341C99.7024 89.6341 99.7024 89.6341 99.7024 89.6341C99.7024 89.6341 99.7024 89.6341 99.7024 89.6341C99.7024 89.6341 99.7024 89.6341 99.7024 89.6341H99.7024C99.7024 89.6341 99.7024 89.6341 99.7024 89.6341H99.7024C99.7024 89.6341 99.7024 89.6341 99.7024 89.6341C99.7024 89.6341 99.7024 89.6341 99.7024 89.6341C99.7024 89.6341 99.7024 89.6341 99.7025 89.6341H99.7025C99.7025 89.6341 99.7025 89.6341 99.7025 89.6341C99.7025 89.6341 99.7025 89.6341 99.7025 89.6341H99.7025C99.7025 89.6341 99.7025 89.6341 99.7025 89.6341C99.7025 89.6341 99.7025 89.6341 99.7025 89.6341H99.7025H99.7025C99.7025 89.6341 99.7025 89.6341 99.7025 89.6341C99.7025 89.6341 99.7025 89.6341 99.7025 89.6341C99.7025 89.6341 99.7025 89.6341 99.7025 89.6341C99.7025 89.6341 99.7025 89.6341 99.7025 89.6341H99.7026H99.7026C99.7026 89.6341 99.7026 89.6341 99.7026 89.6341C99.7026 89.6341 99.7026 89.6341 99.7026 89.6341H99.7026C99.7026 89.6341 99.7026 89.6341 99.7026 89.6341C99.7026 89.6341 99.7026 89.6341 99.7026 89.6341C99.7026 89.6341 99.7026 89.6341 99.7026 89.6341C99.7026 89.6341 99.7026 89.6341 99.7026 89.6341C99.7026 89.6341 99.7026 89.6341 99.7026 89.6341H99.7026C99.7026 89.6341 99.7026 89.6341 99.7026 89.6341C99.7026 89.6341 99.7026 89.6341 99.7026 89.6341H99.7027C99.7027 89.6341 99.7027 89.6341 99.7027 89.6341C99.7027 89.6341 99.7027 89.6341 99.7027 89.6341C99.7027 89.6341 99.7027 89.6341 99.7027 89.6341H99.7027H99.7027C99.7027 89.6341 99.7027 89.6341 99.7027 89.6341C99.7027 89.6341 99.7027 89.6341 99.7027 89.6341C99.7027 89.6341 99.7027 89.6341 99.7027 89.6341C99.7027 89.6341 99.7027 89.6341 99.7027 89.6341C99.7027 89.6341 99.7027 89.6341 99.7027 89.6341C99.7027 89.6341 99.7027 89.6341 99.7027 89.6341C99.7027 89.6341 99.7027 89.6341 99.7027 89.6341C99.7028 89.6341 99.7028 89.6341 99.7028 89.6341C99.7028 89.6341 99.7028 89.6341 99.7028 89.6341C99.7028 89.6341 99.7028 89.6341 99.7028 89.6341C99.7028 89.6341 99.7028 89.6341 99.7028 89.6341H99.7028H99.7028H99.7028C99.7028 89.6341 99.7028 89.6341 99.7028 89.6341C99.7028 89.6341 99.7028 89.6341 99.7028 89.6341C99.7028 89.6341 99.7028 89.6341 99.7028 89.6341H99.7028C99.7028 89.6341 99.7028 89.6341 99.7028 89.6341C99.7028 89.6341 99.7028 89.6341 99.7028 89.6341C99.7028 89.6341 99.7028 89.6341 99.7029 89.6341H99.7029C99.7029 89.6341 99.7029 89.6341 99.7029 89.6341C99.7029 89.6341 99.7029 89.6341 99.7029 89.6341H99.7029C99.7029 89.6341 99.7029 89.6341 99.7029 89.6341C99.7029 89.6341 99.7029 89.6341 99.7029 89.6341H99.7029C99.7029 89.6341 99.7029 89.6341 99.7029 89.6341H99.7029C99.7029 89.6341 99.7029 89.6341 99.7029 89.6341C99.7029 89.6341 99.7029 89.6341 99.7029 89.6341C99.7029 89.6341 99.7029 89.6341 99.7029 89.6341C99.7029 89.6341 99.7029 89.6341 99.7029 89.6341C99.703 89.6341 99.703 89.6341 99.703 89.6341C99.703 89.6341 99.703 89.6341 99.703 89.6341H99.703C99.703 89.6341 99.703 89.6341 99.703 89.6341H99.703C99.703 89.6341 99.703 89.6341 99.703 89.6341C99.703 89.6341 99.703 89.6341 99.703 89.6341C99.703 89.6341 99.703 89.6341 99.703 89.6341C99.703 89.6341 99.703 89.6341 99.703 89.6341H99.703C99.703 89.6341 99.703 89.6341 99.703 89.6341H99.703C99.703 89.6341 99.703 89.6341 99.703 89.6341C99.7031 89.6341 99.7031 89.6341 99.7031 89.6341H99.7031C99.7031 89.6341 99.7031 89.6341 99.7031 89.6341H99.7031C99.7031 89.6341 99.7031 89.6341 99.7031 89.6341C99.7031 89.6341 99.7031 89.6341 99.7031 89.6341H99.7031C99.7031 89.6341 99.7031 89.6341 99.7031 89.6341C99.7031 89.6341 99.7031 89.6341 99.7031 89.6341H99.7031C99.7031 89.6341 99.7031 89.6341 99.7031 89.6341C99.7031 89.6341 99.7031 89.6341 99.7031 89.6341C99.7031 89.6341 99.7031 89.6341 99.7031 89.6341H99.7032C99.7032 89.6341 99.7032 89.6341 99.7032 89.6341C99.7032 89.6341 99.7032 89.6341 99.7032 89.6341H99.7032H99.7032C99.7032 89.6341 99.7032 89.6341 99.7032 89.6341C99.7032 89.6341 99.7032 89.6341 99.7032 89.6341H99.7032H99.7032C99.7032 89.6341 99.7032 89.6341 99.7032 89.6341C99.7032 89.6341 99.7032 89.6341 99.7032 89.6341C99.7032 89.6341 99.7032 89.6341 99.7032 89.6341H99.7032H99.7033C99.7033 89.6341 99.7033 89.6341 99.7033 89.6341C99.7033 89.6341 99.7033 89.6341 99.7033 89.6341C99.7033 89.6341 99.7033 89.6341 99.7033 89.6341H99.7033H99.7033C99.7033 89.6341 99.7033 89.6341 99.7033 89.6341C99.7033 89.6341 99.7033 89.6341 99.7033 89.6341C99.7033 89.6341 99.7033 89.6341 99.7033 89.6341C99.7033 89.6341 99.7033 89.6341 99.7033 89.6341C99.7033 89.6341 99.7033 89.6341 99.7033 89.6341H99.7033H99.7033H99.7034C99.7034 89.6341 99.7034 89.6341 99.7034 89.6341C99.7034 89.6341 99.7034 89.6341 99.7034 89.6341C99.7034 89.6341 99.7034 89.6341 99.7034 89.6341C99.7034 89.6341 99.7034 89.6341 99.7034 89.6341C99.7034 89.6341 99.7034 89.6341 99.7034 89.6341C99.7034 89.6341 99.7034 89.6341 99.7034 89.6341H99.7034H99.7034H99.7034H99.7034H99.7034C99.7034 89.6341 99.7034 89.6341 99.7034 89.6341C99.7034 89.6341 99.7034 89.6341 99.7035 89.6341C99.7035 89.6341 99.7035 89.6341 99.7035 89.6341C99.7035 89.6341 99.7035 89.6341 99.7035 89.6341C99.7035 89.6341 99.7035 89.6341 99.7035 89.6341C99.7035 89.6341 99.7035 89.6341 99.7035 89.6341C99.7035 89.6341 99.7035 89.6341 99.7035 89.6341C99.7035 89.6341 99.7035 89.6341 99.7035 89.6341C99.7035 89.6341 99.7035 89.6341 99.7035 89.6341C99.7035 89.6341 99.7035 89.6341 99.7035 89.6341C99.7035 89.6341 99.7035 89.6341 99.7035 89.6341C99.7035 89.6341 99.7035 89.6341 99.7035 89.6341C99.7035 89.6341 99.7035 89.6341 99.7035 89.6341C99.7035 89.6341 99.7035 89.6341 99.7035 89.6341C99.7036 89.6341 99.7036 89.6341 99.7036 89.6341C99.7036 89.6341 99.7036 89.6341 99.7036 89.6341C99.7036 89.6341 99.7036 89.6341 99.7036 89.6341C99.7036 89.6341 99.7036 89.6341 99.7036 89.6341C99.7036 89.6341 99.7036 89.6341 99.7036 89.6341C99.7036 89.6341 99.7036 89.6341 99.7036 89.6341C99.7036 89.6341 99.7036 89.6341 99.7036 89.6341C99.7036 89.6341 99.7036 89.6341 99.7036 89.6341C99.7036 89.6341 99.7036 89.6341 99.7036 89.6341C99.7036 89.6341 99.7036 89.6341 99.7036 89.6341C99.7036 89.6341 99.7036 89.6341 99.7036 89.6341C99.7036 89.6341 99.7036 89.6341 99.7036 89.6341C99.7036 89.6341 99.7036 89.6341 99.7037 89.6341H99.7037H99.7037H99.7037V89.1341H99.7037H99.7037H99.7037C99.7036 89.1341 99.7036 89.1341 99.7036 89.1341C99.7036 89.1341 99.7036 89.1341 99.7036 89.1341C99.7036 89.1341 99.7036 89.1341 99.7036 89.1341C99.7036 89.1341 99.7036 89.1341 99.7036 89.1341C99.7036 89.1341 99.7036 89.1341 99.7036 89.1341C99.7036 89.1341 99.7036 89.1341 99.7036 89.1341C99.7036 89.1341 99.7036 89.1341 99.7036 89.1341C99.7036 89.1341 99.7036 89.1341 99.7036 89.1341C99.7036 89.1341 99.7036 89.1341 99.7036 89.1341C99.7036 89.1341 99.7036 89.1341 99.7036 89.1341C99.7036 89.1341 99.7036 89.1341 99.7036 89.1341C99.7036 89.1341 99.7036 89.1341 99.7036 89.1341C99.7036 89.1341 99.7036 89.1341 99.7035 89.1341C99.7035 89.1341 99.7035 89.1341 99.7035 89.1341C99.7035 89.1341 99.7035 89.1341 99.7035 89.1341C99.7035 89.1341 99.7035 89.1341 99.7035 89.1341C99.7035 89.1341 99.7035 89.1341 99.7035 89.1341C99.7035 89.1341 99.7035 89.1341 99.7035 89.1341C99.7035 89.1341 99.7035 89.1341 99.7035 89.1341C99.7035 89.1341 99.7035 89.1341 99.7035 89.1341C99.7035 89.1341 99.7035 89.1341 99.7035 89.1341C99.7035 89.1341 99.7035 89.1341 99.7035 89.1341C99.7035 89.1341 99.7035 89.1341 99.7035 89.1341C99.7035 89.1341 99.7035 89.1341 99.7035 89.1341C99.7035 89.1341 99.7035 89.1341 99.7035 89.1341C99.7034 89.1341 99.7034 89.1341 99.7034 89.1341C99.7034 89.1341 99.7034 89.1341 99.7034 89.1341H99.7034H99.7034H99.7034H99.7034H99.7034C99.7034 89.1341 99.7034 89.1341 99.7034 89.1341C99.7034 89.1341 99.7034 89.1341 99.7034 89.1341C99.7034 89.1341 99.7034 89.1341 99.7034 89.1341C99.7034 89.1341 99.7034 89.1341 99.7034 89.1341C99.7034 89.1341 99.7034 89.1341 99.7034 89.1341C99.7034 89.1341 99.7034 89.1341 99.7034 89.1341H99.7033H99.7033H99.7033C99.7033 89.1341 99.7033 89.1341 99.7033 89.1341C99.7033 89.1341 99.7033 89.1341 99.7033 89.1341C99.7033 89.1341 99.7033 89.1341 99.7033 89.1341C99.7033 89.1341 99.7033 89.1341 99.7033 89.1341C99.7033 89.1341 99.7033 89.1341 99.7033 89.1341H99.7033H99.7033C99.7033 89.1341 99.7033 89.1341 99.7033 89.1341C99.7033 89.1341 99.7033 89.1341 99.7033 89.1341C99.7033 89.1341 99.7033 89.1341 99.7033 89.1341H99.7032H99.7032C99.7032 89.1341 99.7032 89.1341 99.7032 89.1341C99.7032 89.1341 99.7032 89.1341 99.7032 89.1341C99.7032 89.1341 99.7032 89.1341 99.7032 89.1341H99.7032H99.7032C99.7032 89.1341 99.7032 89.1341 99.7032 89.1341C99.7032 89.1341 99.7032 89.1341 99.7032 89.1341H99.7032H99.7032C99.7032 89.1341 99.7032 89.1341 99.7032 89.1341C99.7032 89.1341 99.7032 89.1341 99.7032 89.1341H99.7031C99.7031 89.1341 99.7031 89.1341 99.7031 89.1341C99.7031 89.1341 99.7031 89.1341 99.7031 89.1341C99.7031 89.1341 99.7031 89.1341 99.7031 89.1341H99.7031C99.7031 89.1341 99.7031 89.1341 99.7031 89.1341C99.7031 89.1341 99.7031 89.1341 99.7031 89.1341H99.7031C99.7031 89.1341 99.7031 89.1341 99.7031 89.1341C99.7031 89.1341 99.7031 89.1341 99.7031 89.1341H99.7031C99.7031 89.1341 99.7031 89.1341 99.7031 89.1341H99.7031C99.7031 89.1341 99.7031 89.1341 99.703 89.1341C99.703 89.1341 99.703 89.1341 99.703 89.1341H99.703C99.703 89.1341 99.703 89.1341 99.703 89.1341H99.703C99.703 89.1341 99.703 89.1341 99.703 89.1341C99.703 89.1341 99.703 89.1341 99.703 89.1341C99.703 89.1341 99.703 89.1341 99.703 89.1341C99.703 89.1341 99.703 89.1341 99.703 89.1341H99.703C99.703 89.1341 99.703 89.1341 99.703 89.1341H99.703C99.703 89.1341 99.703 89.1341 99.703 89.1341C99.703 89.1341 99.703 89.1341 99.7029 89.1341C99.7029 89.1341 99.7029 89.1341 99.7029 89.1341C99.7029 89.1341 99.7029 89.1341 99.7029 89.1341C99.7029 89.1341 99.7029 89.1341 99.7029 89.1341C99.7029 89.1341 99.7029 89.1341 99.7029 89.1341H99.7029C99.7029 89.1341 99.7029 89.1341 99.7029 89.1341H99.7029C99.7029 89.1341 99.7029 89.1341 99.7029 89.1341C99.7029 89.1341 99.7029 89.1341 99.7029 89.1341H99.7029C99.7029 89.1341 99.7029 89.1341 99.7029 89.1341C99.7029 89.1341 99.7029 89.1341 99.7029 89.1341H99.7029C99.7028 89.1341 99.7028 89.1341 99.7028 89.1341C99.7028 89.1341 99.7028 89.1341 99.7028 89.1341C99.7028 89.1341 99.7028 89.1341 99.7028 89.1341H99.7028C99.7028 89.1341 99.7028 89.1341 99.7028 89.1341C99.7028 89.1341 99.7028 89.1341 99.7028 89.1341C99.7028 89.1341 99.7028 89.1341 99.7028 89.1341H99.7028H99.7028H99.7028C99.7028 89.1341 99.7028 89.1341 99.7028 89.1341C99.7028 89.1341 99.7028 89.1341 99.7028 89.1341C99.7028 89.1341 99.7028 89.1341 99.7028 89.1341C99.7028 89.1341 99.7028 89.1341 99.7027 89.1341C99.7027 89.1341 99.7027 89.1341 99.7027 89.1341C99.7027 89.1341 99.7027 89.1341 99.7027 89.1341C99.7027 89.1341 99.7027 89.1341 99.7027 89.1341C99.7027 89.1341 99.7027 89.1341 99.7027 89.1341C99.7027 89.1341 99.7027 89.1341 99.7027 89.1341C99.7027 89.1341 99.7027 89.1341 99.7027 89.1341C99.7027 89.1341 99.7027 89.1341 99.7027 89.1341H99.7027H99.7027C99.7027 89.1341 99.7027 89.1341 99.7027 89.1341C99.7027 89.1341 99.7027 89.1341 99.7027 89.1341C99.7027 89.1341 99.7027 89.1341 99.7027 89.1341H99.7026C99.7026 89.1341 99.7026 89.1341 99.7026 89.1341C99.7026 89.1341 99.7026 89.1341 99.7026 89.1341H99.7026C99.7026 89.1341 99.7026 89.1341 99.7026 89.1341C99.7026 89.1341 99.7026 89.1341 99.7026 89.1341C99.7026 89.1341 99.7026 89.1341 99.7026 89.1341C99.7026 89.1341 99.7026 89.1341 99.7026 89.1341C99.7026 89.1341 99.7026 89.1341 99.7026 89.1341H99.7026C99.7026 89.1341 99.7026 89.1341 99.7026 89.1341C99.7026 89.1341 99.7026 89.1341 99.7026 89.1341H99.7026H99.7025C99.7025 89.1341 99.7025 89.1341 99.7025 89.1341C99.7025 89.1341 99.7025 89.1341 99.7025 89.1341C99.7025 89.1341 99.7025 89.1341 99.7025 89.1341C99.7025 89.1341 99.7025 89.1341 99.7025 89.1341H99.7025H99.7025C99.7025 89.1341 99.7025 89.1341 99.7025 89.1341C99.7025 89.1341 99.7025 89.1341 99.7025 89.1341H99.7025C99.7025 89.1341 99.7025 89.1341 99.7025 89.1341C99.7025 89.1341 99.7025 89.1341 99.7025 89.1341H99.7025C99.7024 89.1341 99.7024 89.1341 99.7024 89.1341C99.7024 89.1341 99.7024 89.1341 99.7024 89.1341C99.7024 89.1341 99.7024 89.1341 99.7024 89.1341H99.7024C99.7024 89.1341 99.7024 89.1341 99.7024 89.1341H99.7024C99.7024 89.1341 99.7024 89.1341 99.7024 89.1341C99.7024 89.1341 99.7024 89.1341 99.7024 89.1341C99.7024 89.1341 99.7024 89.1341 99.7024 89.1341C99.7024 89.1341 99.7024 89.1341 99.7024 89.1341H99.7024H99.7024C99.7024 89.1341 99.7024 89.1341 99.7024 89.1341C99.7024 89.1341 99.7024 89.1341 99.7023 89.1341H99.7023H99.7023C99.7023 89.1341 99.7023 89.1341 99.7023 89.1341C99.7023 89.1341 99.7023 89.1341 99.7023 89.1341C99.7023 89.1341 99.7023 89.1341 99.7023 89.1341H99.7023C99.7023 89.1341 99.7023 89.1341 99.7023 89.1341H99.7023C99.7023 89.1341 99.7023 89.3841 99.7023 89.6341C99.7023 89.6341 99.7023 89.6341 99.7023 89.3841ZM99.7037 89.6341C100.004 89.6341 100.285 89.489 100.462 89.2491L100.059 88.9526C99.975 89.0669 99.8427 89.1341 99.7037 89.1341V89.6341ZM100.461 89.2498C100.727 88.8921 101.124 88.6893 101.555 88.6893V88.1893C100.961 88.1893 100.416 88.4712 100.06 88.9519L100.461 89.2498ZM101.555 88.6893C102.311 88.6893 102.929 89.3079 102.929 90.0674H103.429C103.429 89.0328 102.589 88.1893 101.555 88.1893V88.6893ZM102.929 90.0674C102.929 91.1211 102.333 92.028 101.594 92.7449C100.858 93.4589 100.012 93.9533 99.5842 94.1789L99.8175 94.6211C100.265 94.3853 101.158 93.8649 101.942 93.1037C102.724 92.3454 103.429 91.3168 103.429 90.0674H102.929ZM107.369 62.2164C107.191 62.0392 106.951 61.939 106.7 61.939V62.439C106.818 62.439 106.931 62.486 107.015 62.5698L107.369 62.2164ZM106.7 61.939H106.004V62.439H106.7V61.939ZM106.254 62.189V58.7043H105.754V62.189H106.254ZM106.254 58.7043C106.254 58.1815 105.832 57.7574 105.309 57.7574V58.2574C105.555 58.2574 105.754 58.4566 105.754 58.7043H106.254ZM105.309 57.7574H103.918V58.2574H105.309V57.7574ZM103.918 57.7574C103.534 57.7574 103.187 57.9915 103.043 58.3479L103.506 58.5353C103.574 58.3677 103.738 58.2574 103.918 58.2574V57.7574ZM103.043 58.3474C103.043 58.3473 103.043 58.3479 103.042 58.3494C103.042 58.3509 103.041 58.3529 103.04 58.3556C103.037 58.361 103.034 58.3687 103.03 58.3788C103.021 58.3989 103.009 58.4281 102.993 58.4656C102.96 58.5404 102.912 58.6479 102.85 58.7803C102.726 59.0452 102.546 59.4092 102.321 59.8109C101.867 60.6204 101.241 61.5593 100.527 62.1612L100.85 62.5435C101.634 61.8821 102.295 60.8789 102.757 60.0555C103.222 59.227 103.498 58.5549 103.506 58.5358L103.043 58.3474ZM100.527 62.1612C99.8486 62.7333 99.2874 63.0266 98.9044 63.1767C98.7126 63.2518 98.5649 63.2913 98.4685 63.3119C98.4203 63.3222 98.3849 63.3277 98.3632 63.3306C98.3523 63.3321 98.3448 63.3329 98.3408 63.3333C98.3388 63.3335 98.3375 63.3336 98.3369 63.3336C98.3364 63.3337 98.3366 63.3337 98.3357 63.3337C98.3355 63.3337 98.3351 63.3338 98.3346 63.3338C98.3343 63.3338 98.333 63.3339 98.3314 63.3341C98.3305 63.3342 98.328 63.3344 98.3264 63.3346C98.3234 63.335 98.3115 63.3368 98.3027 63.3385C98.2002 63.3866 98.1355 63.7029 98.3243 63.8311C98.336 63.8323 98.3513 63.833 98.3549 63.833V63.333C98.3585 63.333 98.3738 63.3337 98.3855 63.3349C98.5742 63.463 98.5095 63.7794 98.4071 63.8275C98.3983 63.8292 98.3864 63.831 98.3834 63.8314C98.3818 63.8315 98.3793 63.8318 98.3785 63.8319C98.3769 63.832 98.3758 63.8321 98.3756 63.8321C98.3755 63.8321 98.3753 63.8322 98.3752 63.8322C98.3751 63.8322 98.375 63.8322 98.375 63.8322C98.3749 63.8322 98.3762 63.8321 98.3774 63.832C98.3801 63.8318 98.384 63.8314 98.389 63.831C98.3988 63.83 98.4123 63.8285 98.4294 63.8262C98.4636 63.8217 98.5117 63.8139 98.5729 63.8009C98.6952 63.7748 98.8691 63.7275 99.0868 63.6423C99.5224 63.4715 100.131 63.1495 100.85 62.5435L100.527 62.1612ZM98.3549 63.333C97.8319 63.333 97.4095 63.7571 97.4095 64.2799H97.9095C97.9095 64.0322 98.1091 63.833 98.3549 63.833V63.333ZM97.4095 64.2799V68.4615H97.9095V64.2799H97.4095ZM97.4095 68.4615C97.4095 68.9843 97.8319 69.4084 98.3549 69.4084V68.9084C98.1091 68.9084 97.9095 68.7092 97.9095 68.4615H97.4095ZM98.3549 69.4084H99.4578V68.9084H98.3549V69.4084ZM99.2809 69.335L100.468 70.5247L100.822 70.1715L99.6348 68.9818L99.2809 69.335ZM100.468 70.5248C100.645 70.7021 100.885 70.8022 101.137 70.8022V70.3022C101.019 70.3022 100.906 70.2553 100.822 70.1714L100.468 70.5248ZM101.137 70.8022H106.7V70.3022H101.137V70.8022ZM106.7 70.8022C106.951 70.8022 107.191 70.7021 107.369 70.5248L107.015 70.1714C106.931 70.2553 106.818 70.3022 106.7 70.3022V70.8022ZM107.369 70.5247C108.272 69.6189 108.694 67.967 108.694 66.3706C108.694 64.7742 108.272 63.1222 107.369 62.2165L107.015 62.5697C107.78 63.3369 108.194 64.8259 108.194 66.3706C108.194 67.9152 107.78 69.4043 107.015 70.1716L107.369 70.5247ZM106.379 68.9084H101.425V69.4084H106.379V68.9084ZM101.601 68.9818L100.414 67.7922L100.06 68.1453L101.248 69.335L101.601 68.9818ZM100.414 67.792C100.237 67.6148 99.9973 67.5146 99.7459 67.5146V68.0146C99.8639 68.0146 99.9767 68.0615 100.061 68.1454L100.414 67.792ZM99.7459 67.5146H99.0503V68.0146H99.7459V67.5146ZM99.3003 67.7646V64.8605H98.8003V67.7646H99.3003ZM99.1176 65.1013C99.7274 64.9309 100.65 64.5331 101.746 63.6102L101.424 63.2278C100.381 64.1058 99.5222 64.4691 98.983 64.6198L99.1176 65.1013ZM101.746 63.61C103.165 62.412 104.195 60.384 104.599 59.5059L104.145 59.2969C103.742 60.172 102.751 62.1079 101.423 63.2279L101.746 63.61ZM104.372 59.6514H104.614V59.1514H104.372V59.6514ZM104.364 59.4014V62.8861H104.864V59.4014H104.364ZM104.364 62.8861C104.364 63.4089 104.786 63.833 105.309 63.833V63.333C105.063 63.333 104.864 63.1337 104.864 62.8861H104.364ZM105.309 63.833H106.379V63.333H105.309V63.833ZM106.176 63.7286C106.574 64.2837 106.795 65.3044 106.795 66.3706C106.795 67.4369 106.574 68.4576 106.176 69.0128L106.583 69.3041C107.072 68.6217 107.295 67.4734 107.295 66.3706C107.295 65.2679 107.072 64.1196 106.583 63.4373L106.176 63.7286ZM98.3549 61.939H94.1823V62.439H98.3549V61.939ZM94.1823 61.939C93.6595 61.939 93.2369 62.3633 93.2369 62.8861H93.7369C93.7369 62.6384 93.9367 62.439 94.1823 62.439V61.939ZM93.2369 62.8861V69.8553H93.7369V62.8861H93.2369ZM93.2369 69.8553C93.2369 70.3782 93.6596 70.8022 94.1823 70.8022V70.3022C93.9366 70.3022 93.7369 70.103 93.7369 69.8553H93.2369ZM94.1823 70.8022H98.3549V70.3022H94.1823V70.8022ZM98.3549 70.8022C98.8779 70.8022 99.3003 70.3781 99.3003 69.8553H98.8003C98.8003 70.103 98.6007 70.3022 98.3549 70.3022V70.8022ZM99.3003 69.8553V62.8861H98.8003V69.8553H99.3003ZM99.3003 62.8861C99.3003 62.3634 98.8779 61.939 98.3549 61.939V62.439C98.6006 62.439 98.8003 62.6383 98.8003 62.8861H99.3003ZM97.6595 68.9084H94.8777V69.4084H97.6595V68.9084ZM95.1277 69.1584V63.583H94.6277V69.1584H95.1277ZM94.8777 63.833H97.6595V63.333H94.8777V63.833ZM97.4095 63.583V69.1584H97.9095V63.583H97.4095ZM92.7617 43.8318C92.5349 43.8389 92.308 43.9375 92.1345 44.0884C91.9594 44.2406 91.8204 44.4625 91.803 44.7296L92.3019 44.7623C92.3089 44.6545 92.3663 44.5493 92.4625 44.4657C92.5603 44.3807 92.6797 44.3346 92.7775 44.3315L92.7617 43.8318ZM91.803 44.7288C91.8019 44.745 91.7912 44.8533 91.6686 44.9612C91.5433 45.0714 91.2655 45.2126 90.6616 45.2126V45.7126C91.3371 45.7126 91.7506 45.5549 91.9988 45.3366C92.2497 45.1159 92.2948 44.8659 92.3018 44.7631L91.803 44.7288ZM90.6616 45.2126C90.062 45.2126 89.7835 45.0736 89.6567 44.9638C89.5327 44.8564 89.5214 44.7485 89.5203 44.7324L89.0214 44.7648C89.0285 44.8744 89.0775 45.1236 89.3293 45.3417C89.5784 45.5574 89.9911 45.7126 90.6616 45.7126V45.2126ZM89.5208 44.7422C89.5078 44.2306 89.0895 43.8186 88.5754 43.8186V44.3186C88.8163 44.3186 89.0148 44.5124 89.0209 44.7549L89.5208 44.7422ZM88.5754 43.8186C88.0522 43.8186 87.63 44.243 87.63 44.7656H88.13C88.13 44.5178 88.3296 44.3186 88.5754 44.3186V43.8186ZM87.63 44.7656C87.63 45.1863 87.7966 45.7735 88.2665 46.2567C88.7421 46.7458 89.5066 47.1065 90.6616 47.1065V46.6065C89.6163 46.6065 88.9901 46.2836 88.625 45.9081C88.2541 45.5268 88.13 45.0685 88.13 44.7656H87.63ZM90.6616 47.1065C91.8167 47.1065 92.5813 46.7458 93.0569 46.2567C93.5268 45.7735 93.6933 45.1863 93.6932 44.7656L93.1932 44.7657C93.1933 45.0686 93.0693 45.5268 92.6984 45.9081C92.3333 46.2836 91.707 46.6065 90.6616 46.6065V47.1065ZM93.6932 44.7656C93.6932 44.2485 93.2814 43.8482 92.7777 43.8318L92.7614 44.3315C93.0074 44.3395 93.1932 44.5301 93.1932 44.7656H93.6932ZM108.786 31.248C105.579 31.248 102.973 33.8617 102.973 37.0735H103.473C103.473 34.1368 105.857 31.748 108.786 31.748V31.248ZM102.973 37.0735C102.973 40.2852 105.579 42.8989 108.786 42.8989V42.3989C105.856 42.3989 103.473 40.0102 103.473 37.0735H102.973ZM108.786 42.8989C111.992 42.8989 114.6 40.2853 114.6 37.0735L114.1 37.0735C114.1 40.0101 111.715 42.3989 108.786 42.3989V42.8989ZM114.6 37.0735C114.6 33.8617 111.992 31.248 108.786 31.248V31.748C111.715 31.748 114.1 34.1369 114.1 37.0735H114.6ZM108.786 41.0051C106.624 41.0051 104.864 39.2419 104.864 37.0735H104.364C104.364 39.517 106.347 41.5051 108.786 41.5051V41.0051ZM104.864 37.0735C104.864 34.905 106.624 33.1419 108.786 33.1419V32.6419C106.347 32.6419 104.364 34.6299 104.364 37.0735H104.864ZM108.786 33.1419C110.949 33.1419 112.709 34.9052 112.709 37.0735H113.209C113.209 34.6301 111.226 32.6419 108.786 32.6419V33.1419ZM112.709 37.0735C112.709 39.2417 110.949 41.0051 108.786 41.0051V41.5051C111.226 41.5051 113.209 39.5169 113.209 37.0735H112.709ZM113.654 38.9142C113.131 38.9142 112.709 39.3386 112.709 39.8613H113.209C113.209 39.6136 113.409 39.4142 113.654 39.4142V38.9142ZM112.709 39.8613C112.709 42.0296 110.949 43.7929 108.786 43.7929V44.2929C111.226 44.2929 113.209 42.3047 113.209 39.8613H112.709ZM108.786 43.7929C106.624 43.7929 104.864 42.0296 104.864 39.8613H104.364C104.364 42.3047 106.347 44.2929 108.786 44.2929V43.7929ZM104.864 39.8613C104.864 39.3386 104.441 38.9142 103.918 38.9142V39.4142C104.164 39.4142 104.364 39.6136 104.364 39.8613H104.864ZM103.918 38.9142C103.395 38.9142 102.973 39.3386 102.973 39.8613H103.473C103.473 39.6136 103.673 39.4142 103.918 39.4142V38.9142ZM102.973 39.8613C102.973 43.0731 105.579 45.6868 108.786 45.6868V45.1868C105.856 45.1868 103.473 42.798 103.473 39.8613H102.973ZM108.786 45.6868C111.992 45.6868 114.6 43.0731 114.6 39.8613L114.1 39.8613C114.1 42.7979 111.715 45.1868 108.786 45.1868V45.6868ZM114.6 39.8613C114.6 39.3386 114.177 38.9142 113.654 38.9142V39.4142C113.9 39.4142 114.1 39.6136 114.1 39.8613H114.6ZM108.786 34.0359C108.263 34.0359 107.841 34.46 107.841 34.9828H108.341C108.341 34.7352 108.54 34.5359 108.786 34.5359V34.0359ZM107.841 34.9828V39.1643H108.341V34.9828H107.841ZM107.841 39.1643C107.841 39.687 108.263 40.1114 108.786 40.1114V39.6114C108.541 39.6114 108.341 39.412 108.341 39.1643H107.841ZM108.786 40.1114C109.309 40.1114 109.732 39.6871 109.732 39.1643L109.232 39.1646C109.232 39.4119 109.032 39.6114 108.786 39.6114V40.1114ZM109.732 39.1645V34.9828H109.232V39.1645H109.732ZM109.732 34.9828C109.732 34.46 109.309 34.0359 108.786 34.0359V34.5359C109.032 34.5359 109.232 34.7352 109.232 34.9828H109.732ZM110.873 36.1266L106.7 36.1252L106.7 36.6252L110.873 36.6266L110.873 36.1266ZM106.7 36.1252C106.177 36.1252 105.755 36.5492 105.755 37.0721H106.255C106.255 36.8245 106.454 36.6252 106.7 36.6252V36.1252ZM105.755 37.0721C105.755 37.5941 106.177 38.019 106.7 38.019V37.519C106.454 37.519 106.255 37.3192 106.255 37.0721H105.755ZM106.7 38.019L110.873 38.0204L110.873 37.5204L106.7 37.519L106.7 38.019ZM110.873 38.0204C111.394 38.0204 111.818 37.5967 111.818 37.0734L111.318 37.0736C111.318 37.3208 111.118 37.5204 110.873 37.5204V38.0204ZM111.818 37.0735C111.818 36.5515 111.396 36.1266 110.873 36.1266V36.6266C111.118 36.6266 111.318 36.8264 111.318 37.0735H111.818ZM103.918 36.1265C103.395 36.1265 102.973 36.5507 102.973 37.0735H103.473C103.473 36.8258 103.673 36.6265 103.918 36.6265V36.1265ZM102.973 37.0735V39.8613H103.473V37.0735H102.973ZM102.973 39.8613C102.973 40.3839 103.395 40.8082 103.918 40.8082V40.3082C103.673 40.3082 103.473 40.1088 103.473 39.8613H102.973ZM103.918 40.8082C104.441 40.8082 104.864 40.3839 104.864 39.8613H104.364C104.364 40.1088 104.164 40.3082 103.918 40.3082V40.8082ZM104.864 39.8613V37.0735H104.364V39.8613H104.864ZM104.864 37.0735C104.864 36.5507 104.441 36.1265 103.918 36.1265V36.6265C104.164 36.6265 104.364 36.8258 104.364 37.0735H104.864ZM113.654 36.1265C113.131 36.1265 112.709 36.5507 112.709 37.0735H113.209C113.209 36.8258 113.408 36.6265 113.654 36.6265V36.1265ZM112.709 37.0735V39.8613H113.209V37.0735H112.709ZM112.709 39.8613C112.709 40.384 113.131 40.8082 113.654 40.8082V40.3082C113.408 40.3082 113.209 40.1088 113.209 39.8613H112.709ZM113.654 40.8082C114.177 40.8082 114.6 40.3839 114.6 39.8613H114.1C114.1 40.1089 113.9 40.3082 113.654 40.3082V40.8082ZM114.6 39.8613V37.0735H114.1V39.8613H114.6ZM114.6 37.0735C114.6 36.5507 114.177 36.1265 113.654 36.1265V36.6265C113.9 36.6265 114.1 36.8258 114.1 37.0735H114.6Z" fill="#FF8A00"/>
<circle cx="69.5" cy="69.5" r="68.5" stroke="#FF8A00" stroke-width="2"/>
</svg>
