<svg width="139" height="139" viewBox="0 0 139 139" fill="none" xmlns="http://www.w3.org/2000/svg">
<circle cx="69.5" cy="69.5" r="68.5" stroke="#FF8A00" stroke-width="2"/>
<g clip-path="url(#clip0)">
<path d="M77.3038 109.178H75.5889V90.3132C75.5889 89.131 74.6271 88.1693 73.445 88.1693H66.5849C65.4031 88.1693 64.4413 89.131 64.4413 90.3132V109.178H61.8688V83.4532C61.8688 82.271 60.9071 81.3093 59.7249 81.3093H52.8652C51.683 81.3093 50.7213 82.271 50.7213 83.4532V109.178H48.1487V76.5931C48.1487 75.411 47.187 74.4492 46.0051 74.4492H39.1451C37.9629 74.4492 37.0012 75.411 37.0012 76.5931V109.178H35.2863C34.576 109.178 34 109.754 34 110.464C34 111.175 34.576 111.751 35.2863 111.751H77.3038C78.0141 111.751 78.5901 111.175 78.5901 110.464C78.5901 109.754 78.0141 109.178 77.3038 109.178ZM45.5762 109.178H39.5738V77.0218H45.5762V109.178ZM59.2962 109.178H53.2938V83.8818H59.2962V109.178ZM73.0163 109.178H67.0139V90.7418H73.0163V109.178Z" fill="#FF8A00"/>
</g>
<path d="M80.3145 50.6867C77.2918 49.475 76.4185 48.7422 76.4185 47.419C76.4185 46.3601 77.2205 45.123 79.4817 45.123C81.4817 45.123 83.0156 45.9117 83.0293 45.9185C83.1907 46.0046 83.3717 46.0505 83.5511 46.0505C83.9887 46.0505 84.3759 45.7856 84.5364 45.3757L85.0858 43.9712C85.2771 43.4594 84.9869 43.0135 84.6168 42.8536C83.3854 42.3176 80.9788 41.9027 80.9543 41.8985C80.9155 41.8916 80.7806 41.8628 80.7806 41.7051L80.7729 39.6678C80.7729 39.0542 80.2606 38.5547 79.6317 38.5547H78.646C78.0176 38.5547 77.5056 39.0539 77.5056 39.668L77.5082 41.8101C77.5082 41.9743 77.3302 42.0456 77.2652 42.0607C74.2274 42.7843 72.3289 45.0096 72.3289 47.8165C72.3289 51.3156 75.2213 52.8968 78.3444 54.0838C80.8411 55.064 81.8595 56.0579 81.8595 57.5156C81.8595 59.102 80.4171 60.2099 78.3507 60.2099C76.5861 60.2099 74.198 59.0914 74.1744 59.08C74.0216 59.0076 73.8596 58.9711 73.6931 58.9711C73.2386 58.9711 72.8429 59.246 72.6847 59.6716L72.1601 61.092C71.9736 61.6223 72.2607 62.0529 72.6282 62.2445C74.0948 63.0083 76.9328 63.4559 77.0591 63.4756C77.093 63.4804 77.2658 63.5411 77.2658 63.6991V65.8317C77.2658 66.4453 77.7782 66.9448 78.4074 66.9448H79.4258C80.0553 66.9448 80.5677 66.4455 80.5677 65.8317V63.5873C80.5677 63.3775 80.7225 63.3589 80.7544 63.3512C83.9907 62.6242 85.9842 60.2564 85.9842 57.2833C85.9833 54.2295 84.2875 52.2562 80.3145 50.6867Z" stroke="#FF8A00" stroke-width="2"/>
<path d="M79.0419 26C64.2686 26 52.2935 37.976 52.2935 52.7484C52.2935 67.5211 64.2686 79.4974 79.0419 79.4974C93.8146 79.4974 105.79 67.5211 105.79 52.7484C105.79 37.976 93.8146 26 79.0419 26ZM79.0419 73.2983C67.6922 73.2983 58.4923 64.0975 58.4923 52.7487C58.4923 41.3999 67.6922 32.1994 79.0419 32.1994C90.391 32.1994 99.5906 41.3999 99.5906 52.7487C99.5906 64.0975 90.391 73.2983 79.0419 73.2983Z" stroke="#FF8A00" stroke-width="2"/>
<defs>
<clipPath id="clip0">
<rect width="44.5901" height="44.5901" fill="white" transform="translate(34 67.1602)"/>
</clipPath>
</defs>
</svg>
