<svg width="139" height="139" viewBox="0 0 139 139" fill="none" xmlns="http://www.w3.org/2000/svg">
<circle cx="69.5" cy="69.5" r="68.5" stroke="#FF8A00" stroke-width="2"/>
<path d="M88.5163 38C83.2154 38 78.7446 42.4883 78.7446 47.8099C78.7446 53.1316 83.2154 57.6198 88.5163 57.6198C93.8172 57.6198 98.1278 53.1316 98.1278 47.8099C98.1278 42.4883 93.8172 38 88.5163 38Z" stroke="#FF8A00" stroke-width="2"/>
<path d="M99.1833 57.6191C96.5426 60.5587 92.7603 62.4437 88.5159 62.4437C84.2715 62.4437 80.329 60.5587 77.6882 57.6191C75.3828 60.1856 73.9385 63.5479 73.9385 67.2682V69.6805C73.9385 71.0139 75.0132 72.0928 76.3413 72.0928H100.53C101.858 72.0928 102.933 71.0139 102.933 69.6805V67.2682C102.933 63.5479 101.489 60.1856 99.1833 57.6191Z" stroke="#FF8A00" stroke-width="2"/>
<path d="M105.754 85.6307C101.253 88.1249 95.0615 90.4311 88.8871 91.4033C83.3937 92.2682 73.059 90.1824 73.059 87.719C73.059 86.7855 82.1229 90.0191 87.6057 88.5505C91.81 87.4245 91.2132 83.4762 88.9263 82.9554C86.6528 82.4374 73.3329 77.5386 67.6435 77.3696C64.9633 77.2901 58.3465 78.3054 55.1447 78.8289C54.0479 79.0081 53.3601 78.9884 53.2915 80.0421C52.9729 84.9395 52.345 94.9545 52.0027 100.186C51.9955 100.296 52.1484 101.783 53.3703 100.737C54.7076 99.5919 56.5834 98.3229 58.3183 98.7179C61.0402 99.3379 84.588 103.669 87.8361 102.911C92.4826 101.826 105.636 94.0008 108.158 91.5685C112.067 87.7976 109.028 83.8164 105.754 85.6307Z" stroke="#FF8A00" stroke-width="2"/>
<path d="M46.7934 78.6378L34.4573 78.0276C33.5049 77.9805 32.5322 78.701 32.2955 79.6282L30.0524 100.073C29.816 101 30.4022 101.789 31.355 101.826L45.0265 101.825C45.9795 101.862 46.8185 101.111 46.8916 100.157L48.393 80.4588C48.4656 79.5045 47.7458 78.6849 46.7934 78.6378ZM39.531 99.1165C37.6472 99.1165 36.1203 97.5834 36.1203 95.6924C36.1203 93.8012 37.6474 92.2683 39.531 92.2683C41.4147 92.2683 42.9418 93.8014 42.9418 95.6924C42.9418 97.5836 41.4149 99.1165 39.531 99.1165Z" stroke="#FF8A00" stroke-width="2"/>
</svg>
