<svg width="82" height="82" viewBox="0 0 82 82" fill="none" xmlns="http://www.w3.org/2000/svg">
<circle cx="41" cy="41" r="41" fill="#FF8A00"/>
<path fill-rule="evenodd" clip-rule="evenodd" d="M41.5 18V19.5667C53.5939 19.5667 63.4333 29.4061 63.4333 41.5C63.4333 53.5939 53.5939 63.4333 41.5 63.4333C29.4061 63.4333 19.5667 53.5939 19.5667 41.5H18C18 54.4579 28.5421 65 41.5 65C54.4579 65 65 54.4579 65 41.5C65 28.5421 54.4579 18 41.5 18Z" fill="white"/>
<path d="M41.5 22.7002C41.0676 22.7002 40.7166 23.0503 40.7166 23.4835V41.5002H28.9666C28.5342 41.5002 28.1833 41.8503 28.1833 42.2835C28.1833 42.7167 28.5342 43.0669 28.9666 43.0669H41.5C41.9324 43.0669 42.2833 42.7167 42.2833 42.2835V23.4835C42.2833 23.0503 41.9324 22.7002 41.5 22.7002Z" fill="white"/>
<path d="M18 26.5455C18 31.2574 21.8335 35.0912 26.5455 35.0912C31.2574 35.0912 35.0909 31.2574 35.0909 26.5455C35.0909 21.8335 31.2574 18 26.5455 18C21.8335 18 18 21.8335 18 26.5455V26.5455ZM33.5374 26.5455C33.5374 30.4008 30.4008 33.5374 26.5455 33.5374C22.6901 33.5374 19.5536 30.4008 19.5536 26.5455C19.5536 22.6904 22.6901 19.5539 26.5455 19.5539C30.4008 19.5539 33.5374 22.6904 33.5374 26.5455Z" fill="white"/>
<path d="M25.6141 21.8845V22.7948C24.7098 23.1154 24.0602 23.979 24.0602 24.9919C24.0602 26.2768 25.1056 27.3225 26.3909 27.3225C26.8192 27.3225 27.1676 27.671 27.1676 28.0993C27.1676 28.5276 26.8192 28.8761 26.3909 28.8761C26.0591 28.8761 25.7006 28.6676 25.3822 28.2884C25.1059 27.96 24.616 27.9178 24.2876 28.1937C23.9591 28.47 23.9166 28.9599 24.1929 29.2883C24.6081 29.7822 25.0965 30.1264 25.6141 30.3V31.2067C25.6141 31.636 25.9619 31.9835 26.3909 31.9835C26.8198 31.9835 27.1676 31.636 27.1676 31.2067V30.2964C28.0719 29.9755 28.7215 29.112 28.7215 28.0993C28.7215 26.8141 27.6761 25.7687 26.3909 25.7687C25.9625 25.7687 25.6141 25.4202 25.6141 24.9919C25.6141 24.5636 25.9625 24.2148 26.3909 24.2148C26.6662 24.2148 26.9567 24.3554 27.2311 24.621C27.5395 24.9194 28.0312 24.9112 28.3296 24.6031C28.628 24.2947 28.6198 23.8029 28.3117 23.5045C27.9174 23.123 27.5228 22.9072 27.1676 22.7894V21.8845C27.1676 21.4553 26.8198 21.1074 26.3909 21.1074C25.9619 21.1074 25.6141 21.4553 25.6141 21.8845V21.8845Z" fill="white"/>
</svg>
