<svg width="89" height="89" viewBox="0 0 89 89" fill="none" xmlns="http://www.w3.org/2000/svg">
<circle cx="44.5" cy="44.5" r="44.5" fill="#FF8A00"/>
<path d="M69.3345 38.7717V24.5164C69.3345 24.0023 68.9158 23.5854 68.3994 23.5854H59.9363C49.103 14.8649 33.2204 16.5394 24.4617 27.3253C21.8563 30.5336 20.085 34.3316 19.3043 38.3835C17.2427 39.9649 16.0338 42.4084 16.0312 44.9995V48.7237C16.0373 53.0345 19.3232 56.6394 23.6321 57.0622C24.1213 59.0569 26.142 60.2789 28.1454 59.7918C29.8202 59.3846 30.9973 57.8887 30.9936 56.1721V37.5511C30.9981 35.4979 29.3299 33.8298 27.2677 33.8253C25.5437 33.8216 24.0411 34.9935 23.6321 36.6611C22.8981 36.7344 22.1771 36.9041 21.4878 37.1657C24.7812 24.7555 37.5557 17.353 50.0205 20.632C52.4002 21.258 54.6655 22.2548 56.7325 23.5854H44.0856C43.5692 23.5854 43.1505 24.0023 43.1505 24.5164V39.4132C43.1505 39.9274 43.5692 40.3443 44.0856 40.3443H49.2289L51.7538 43.6961C52.0637 44.1075 52.6498 44.1908 53.063 43.8823C53.1338 43.8293 53.1968 43.7666 53.25 43.6961L55.7749 40.3443H57.1776V56.1721C57.1731 58.2253 58.8413 59.8934 60.9035 59.898C62.6275 59.9017 64.1301 58.7297 64.5391 57.0622C65.2182 56.9943 65.8865 56.8438 66.5291 56.6144V58.9653C66.5235 63.5908 62.7586 67.339 58.1128 67.3447H53.437V66.4137C53.437 65.8995 53.0183 65.4826 52.5019 65.4826H48.4041C47.729 64.886 46.8585 64.555 45.9559 64.5516H42.2153C40.1495 64.5516 38.4747 66.219 38.4747 68.2758C38.4747 70.3326 40.1495 72 42.2153 72H45.9559C46.8585 71.9966 47.729 71.6656 48.4041 71.069H52.5019C53.0183 71.069 53.437 70.6521 53.437 70.1379V69.2068H58.1128C63.7911 69.2002 68.3927 64.6188 68.3994 58.9653V55.6861C70.7351 54.1323 72.1383 51.5206 72.1399 48.7237V44.9995C72.1413 42.6199 71.1204 40.3533 69.3345 38.7717ZM25.3827 37.5511C25.3827 36.5227 26.22 35.689 27.253 35.689C28.286 35.689 29.1233 36.5227 29.1233 37.5511V56.1721C29.1233 57.2006 28.286 58.0342 27.253 58.0342C26.22 58.0342 25.3827 57.2006 25.3827 56.1721V37.5511ZM23.5124 38.5483V55.175C20.2938 54.708 17.9056 51.9622 17.9015 48.7237V44.9995C17.9056 41.7611 20.2938 39.0153 23.5124 38.5483ZM45.9559 70.1379H42.2153C41.1823 70.1379 40.345 69.3043 40.345 68.2758C40.345 67.2473 41.1823 66.4137 42.2153 66.4137H45.9559C46.9889 66.4137 47.8262 67.2473 47.8262 68.2758C47.8262 69.3043 46.9889 70.1379 45.9559 70.1379ZM51.5668 69.2068H49.5637C49.7408 68.5986 49.7408 67.953 49.5637 67.3447H51.5668V69.2068ZM62.7885 56.1721C62.7885 57.2006 61.9512 58.0342 60.9182 58.0342C59.8852 58.0342 59.0479 57.2006 59.0479 56.1721V40.3443H62.7885V56.1721ZM55.3073 38.4822C55.013 38.4822 54.7358 38.6202 54.5592 38.8546L52.5019 41.5854L50.4446 38.8546C50.268 38.6202 49.9908 38.4822 49.6965 38.4822H45.0207V25.4475H67.4642V38.4822H55.3073ZM70.2697 48.7237C70.2658 51.9607 67.8765 54.7042 64.6588 55.1666V40.3443H68.2993C69.5613 41.567 70.2721 43.2464 70.2697 44.9995V48.7237Z" fill="white"/>
<path d="M51.4816 27.3086H49.687V29.1707H51.4816V27.3086Z" fill="white"/>
<path d="M65.5939 27.3086H53.437V29.1707H65.5939V27.3086Z" fill="white"/>
<path d="M65.594 31.0332H46.8911V32.8953H65.594V31.0332Z" fill="white"/>
<path d="M65.594 34.7578H46.8911V36.6199H65.594V34.7578Z" fill="white"/>
</svg>
