<svg width="139" height="139" viewBox="0 0 139 139" fill="none" xmlns="http://www.w3.org/2000/svg">
<circle cx="69.5005" cy="69.5" r="68.5" stroke="#FF8A00" stroke-width="2"/>
<path d="M60.0132 82.6258C57.9543 80.5179 55.2016 79.1087 52.0574 78.5073C56.5005 77.0188 59.7123 72.82 59.7123 67.8823C59.7123 61.7043 54.6859 56.6777 48.5078 56.6777C42.3296 56.6777 37.3037 61.7043 37.3037 67.8823C37.3037 72.82 40.5155 77.0188 44.9584 78.5073C41.8144 79.1087 39.062 80.5176 37.0029 82.6253C34.2831 85.4095 32.9005 89.2527 33.005 93.7394C33.0379 95.1545 34.1947 96.2845 35.6101 96.2845H61.4062C62.8216 96.2845 63.9781 95.1545 64.011 93.7394C64.1158 89.2527 62.7332 85.4095 60.0132 82.6258Z" stroke="#FF8A00" stroke-width="2"/>
<path d="M102.997 66.9908C100.938 64.8831 98.1856 63.474 95.0413 62.8722C99.4845 61.3841 102.696 57.1852 102.696 52.2475C102.696 46.0696 97.6699 41.043 91.4917 41.043C85.3135 41.043 80.2871 46.0693 80.2871 52.2475C80.2871 57.185 83.4989 61.3841 87.9418 62.8722C84.7978 63.474 82.0454 64.8829 79.9863 66.9905C77.2662 69.7747 75.8839 73.6179 75.9884 78.1046C76.0213 79.5195 77.1781 80.6497 78.5932 80.6497H104.389C105.805 80.6497 106.962 79.5195 106.994 78.1046C107.099 73.6179 105.717 69.7747 102.997 66.9908Z" stroke="#FF8A00" stroke-width="2"/>
<path d="M43.9213 54.201C44.3786 54.5245 44.9044 54.6804 45.4251 54.6804C46.2416 54.6804 47.0459 54.2974 47.5538 53.5802C52.6673 46.3596 60.9656 42.0278 69.7867 41.959L68.1577 43.5877C67.1401 44.6053 67.1401 46.2551 68.1577 47.2729C68.6666 47.7816 69.3336 48.0361 70.0002 48.0361C70.6669 48.0361 71.3338 47.7816 71.8427 47.2729L77.9229 41.1928C78.9404 40.1752 78.9404 38.5254 77.9229 37.5075L71.8429 31.4269C70.8251 30.4098 69.1758 30.4098 68.1577 31.4269C67.1401 32.4444 67.1401 34.0945 68.1577 35.1121L69.7927 36.7476C59.2822 36.8143 49.3906 41.9687 43.3005 50.5684C42.4691 51.7427 42.747 53.369 43.9213 54.201Z" stroke="#FF8A00" stroke-width="2"/>
<path d="M96.1866 84.5059C95.0061 83.6826 93.3818 83.972 92.5588 85.1522C87.8281 91.9335 80.3212 96.2001 72.1673 96.8467L73.8406 95.1734C74.8582 94.1558 74.8582 92.5057 73.8406 91.4882C72.823 90.4709 71.1735 90.4709 70.1557 91.4882L64.0755 97.5681C63.0582 98.5857 63.0582 100.235 64.0755 101.253L70.1557 107.333C70.6646 107.842 71.3312 108.097 71.9981 108.097C72.665 108.097 73.3317 107.842 73.8404 107.333C74.8579 106.316 74.8579 104.666 73.8404 103.648L72.2578 102.065C82.0813 101.384 91.1452 96.2867 96.8324 88.1335C97.6558 86.9535 97.3666 85.329 96.1866 84.5059Z" stroke="#FF8A00" stroke-width="2"/>
<line y1="-1" x2="6.46039" y2="-1" transform="matrix(0.691223 0.722642 -0.691223 0.722642 85.9482 51.1934)" stroke="#FF8A00" stroke-width="2"/>
<line y1="-1" x2="11.558" y2="-1" transform="matrix(0.772726 -0.634739 0.600794 0.799404 90.4141 55.8633)" stroke="#FF8A00" stroke-width="2"/>
<path d="M44.2763 63.4043L52.8885 72.0165M44.0508 72.0165L52.6629 63.4043" stroke="#FF8A00" stroke-width="2"/>
</svg>
