<svg width="89" height="89" viewBox="0 0 89 89" fill="none" xmlns="http://www.w3.org/2000/svg">
<circle cx="44.5" cy="44.5" r="44.5" fill="#FF8A00"/>
<g clip-path="url(#clip0)">
<path d="M29.7901 39.9039V38.0652C25.2275 38.0652 21.516 34.3537 21.516 29.791H19.6772C19.6772 35.3668 24.2143 39.9039 29.7901 39.9039Z" fill="white"/>
<path d="M29.7905 36.2264C33.3382 36.2264 36.2259 33.3386 36.2259 29.791C36.2259 26.2433 33.3382 23.3555 29.7905 23.3555C26.2428 23.3555 23.355 26.2433 23.355 29.791C23.355 33.3386 26.2428 36.2264 29.7905 36.2264ZM29.7905 25.1942C32.325 25.1942 34.3872 27.2564 34.3872 29.791C34.3872 32.3255 32.325 34.3877 29.7905 34.3877C27.256 34.3877 25.1937 32.3255 25.1937 29.791C25.1937 27.2564 27.256 25.1942 29.7905 25.1942Z" fill="white"/>
<path d="M29.7903 32.5474C31.3107 32.5474 32.5484 31.3098 32.5484 29.7893C32.5484 28.2689 31.3107 27.0312 29.7903 27.0312C28.2699 27.0312 27.0322 28.2689 27.0322 29.7893C27.0322 31.3098 28.2699 32.5474 29.7903 32.5474ZM29.7903 28.87C30.2976 28.87 30.7096 29.2821 30.7096 29.7893C30.7096 30.2966 30.2976 30.7087 29.7903 30.7087C29.283 30.7087 28.8709 30.2966 28.8709 29.7893C28.8709 29.2821 29.283 28.87 29.7903 28.87Z" fill="white"/>
<path d="M73 59.8624V53.0408L70.5122 52.1731C70.233 51.2556 69.8675 50.3712 69.42 49.5327L70.5656 47.1624L69.6777 46.2745C69.2665 45.7345 68.5918 45.0221 68.0814 44.5063C67.4462 43.8639 66.7136 43.1668 66.2162 42.7313L60.0994 37.3822L60.6246 35.8074L62.7529 36.8722L66.2907 33.3344L65.2259 31.2062L67.4839 30.4534V25.4508L65.2259 24.6989L66.2907 22.5706L62.7529 19.0328L60.6246 20.0976L59.8727 17.8387H54.8701L54.1182 20.0967L51.99 19.0319L48.4521 22.5697L49.5169 24.698L47.2581 25.4499V26.1515L39.6909 19.5342C37.0864 17.2551 33.7465 16 30.285 16V16.0247C30.1194 16.0193 29.9578 16 29.7903 16C22.1863 16 16 22.1863 16 29.7903C16 29.9578 16.0193 30.1194 16.0247 30.285H16C16 33.7465 17.2551 37.0855 19.5342 39.69L26.156 47.2581H25.4499L24.698 49.5161L22.5697 48.4513L19.0319 51.9891L20.0967 54.1173L17.8387 54.8692V59.8718L20.0967 60.6237L19.0319 62.752L22.5697 66.2898L24.698 65.225L25.4499 67.4839H30.4525L31.2044 65.2259L33.3326 66.2907L36.8704 62.7529L35.8056 60.6246L37.3907 60.0967L42.7273 66.196C43.1457 66.6732 43.7728 67.3375 44.3631 67.9323C44.922 68.4944 45.6914 69.235 46.2687 69.6754L47.1598 70.5665L49.53 69.4209C50.3681 69.8675 51.2529 70.2339 52.17 70.5131L53.0408 73H59.8624L60.7301 70.5122C61.6477 70.233 62.532 69.8675 63.3706 69.42L65.7408 70.5656L70.5656 65.7408L69.42 63.3706C69.8667 62.532 70.233 61.6477 70.5122 60.7301L73 59.8624ZM43.4832 49.5327C43.0366 50.3712 42.6703 51.2556 42.3911 52.1731L39.9032 53.0408V59.8624L42.3911 60.7301C42.6703 61.6477 43.0357 62.532 43.4832 63.3706L43.2045 63.947L24.434 42.4974C26.0815 43.1946 27.8919 43.5806 29.7903 43.5806C37.3943 43.5806 43.5806 37.3943 43.5806 29.7903C43.5806 27.8901 43.1946 26.0788 42.4965 24.4304L63.9591 43.1991L63.3715 43.4832C62.5334 43.0366 61.6486 42.6703 60.731 42.3911L59.8624 39.9032H53.0408L52.1731 42.3911C51.2556 42.6703 50.3712 43.0357 49.5327 43.4832L47.1624 42.3376L42.3376 47.1624L43.4832 49.5327ZM49.0968 26.7759L51.2075 26.0725L51.3619 25.6653C51.4073 25.5464 51.454 25.4315 51.5038 25.3174L51.682 24.9197L50.6881 22.932L52.3513 21.2688L54.3391 22.2627L54.7368 22.0844C54.8508 22.0337 54.9657 21.9879 55.0847 21.9426L55.4919 21.7882L56.1953 19.6774H58.5475L59.251 21.7882L59.6581 21.9426C59.7771 21.9879 59.892 22.0346 60.006 22.0844L60.4038 22.2627L62.3915 21.2688L64.0547 22.932L63.0608 24.9197L63.239 25.3174C63.2898 25.4315 63.3356 25.5464 63.3809 25.6653L63.5353 26.0725L65.6452 26.7759V29.1282L63.5344 29.8316L63.38 30.2388C63.3347 30.3577 63.288 30.4727 63.2381 30.5867L63.0599 30.9844L64.0538 32.9722L62.3906 34.6353L60.4029 33.6415L60.0051 33.8197C59.8911 33.8704 59.7762 33.9162 59.6572 33.9615L59.2501 34.116L58.5992 36.0705L49.0968 27.7595V26.7759ZM29.7903 17.8387C36.3802 17.8387 41.7419 23.2004 41.7419 29.7903C41.7419 36.3802 36.3802 41.7419 29.7903 41.7419C23.2004 41.7419 17.8387 36.3802 17.8387 29.7903C17.8387 23.2004 23.2004 17.8387 29.7903 17.8387ZM34.1151 59.2501L33.9606 59.6572C33.9153 59.7762 33.8686 59.8911 33.8188 60.0051L33.6406 60.4029L34.6344 62.3906L32.9713 64.0538L30.9835 63.0599L30.5858 63.2381C30.4718 63.2889 30.3568 63.3347 30.2379 63.38L29.8307 63.5344L29.1273 65.6452H26.775L26.0716 63.5344L25.6644 63.38C25.5455 63.3347 25.4306 63.288 25.3165 63.2381L24.9188 63.0599L22.932 64.0538L21.2688 62.3906L22.2627 60.4029L22.0844 60.0051C22.0337 59.8911 21.9879 59.7762 21.9426 59.6572L21.7882 59.2501L19.6774 58.5466V56.1944L21.7882 55.491L21.9426 55.0838C21.9879 54.9648 22.0346 54.8499 22.0844 54.7359L22.2627 54.3382L21.2688 52.3513L22.932 50.6881L24.9197 51.682L25.3174 51.5038C25.4315 51.4531 25.5464 51.4073 25.6653 51.3619L26.0725 51.2075L26.7759 49.0968H27.7658L36.0786 58.5965L34.1151 59.2501ZM68.9971 59.3116L68.871 59.7816C68.5787 60.8738 68.1478 61.9161 67.5898 62.8808L67.3452 63.3028L68.3408 65.3637L65.3637 68.3408L63.3028 67.3452L62.8808 67.5898C61.9161 68.1469 60.8729 68.5779 59.7816 68.871L59.3116 68.9971L58.557 71.1613H54.3463L53.5916 68.9971L53.1216 68.871C52.0295 68.5787 50.9871 68.1478 50.0224 67.5898L49.6004 67.3452L47.5395 68.3408L44.5624 65.3637L45.5581 63.3028L45.3134 62.8808C44.7563 61.9161 44.3254 60.8729 44.0322 59.7816L43.9061 59.3116L41.7419 58.557V54.3463L43.9061 53.5916L44.0322 53.1216C44.3245 52.0295 44.7554 50.9871 45.3134 50.0224L45.5581 49.6004L44.5624 47.5395L47.5395 44.5624L49.6004 45.5581L50.0224 45.3134C50.9871 44.7563 52.0304 44.3254 53.1216 44.0322L53.5916 43.9061L54.3463 41.7419H58.557L59.3116 43.9061L59.7816 44.0322C60.8738 44.3245 61.9161 44.7554 62.8808 45.3134L63.3028 45.5581L65.3637 44.5624L68.3408 47.5395L67.3452 49.6004L67.5898 50.0224C68.1469 50.9871 68.5779 52.0304 68.871 53.1216L68.9971 53.5916L71.1613 54.3463V58.557L68.9971 59.3116Z" fill="white"/>
<path d="M56.4518 47.2578C51.3824 47.2578 47.2583 51.3819 47.2583 56.4514C47.2583 61.5208 51.3824 65.6449 56.4518 65.6449C61.5213 65.6449 65.6454 61.5208 65.6454 56.4514C65.6454 51.3819 61.5213 47.2578 56.4518 47.2578ZM56.4518 63.8062C52.3965 63.8062 49.097 60.5068 49.097 56.4514C49.097 52.396 52.3965 49.0965 56.4518 49.0965C60.5072 49.0965 63.8067 52.396 63.8067 56.4514C63.8067 60.5068 60.5072 63.8062 56.4518 63.8062Z" fill="white"/>
<path d="M56.4517 50.9355C53.4095 50.9355 50.9355 53.4095 50.9355 56.4517C50.9355 59.4939 53.4095 61.9678 56.4517 61.9678C59.4939 61.9678 61.9678 59.4939 61.9678 56.4517C61.9678 53.4095 59.4939 50.9355 56.4517 50.9355ZM56.4517 60.1291C54.4235 60.1291 52.7743 58.4798 52.7743 56.4517C52.7743 54.4235 54.4235 52.7743 56.4517 52.7743C58.4798 52.7743 60.1291 54.4235 60.1291 56.4517C60.1291 58.4798 58.4798 60.1291 56.4517 60.1291Z" fill="white"/>
<path d="M61.968 27.9522C61.968 25.4177 59.9057 23.3555 57.3712 23.3555C54.8367 23.3555 52.7744 25.4177 52.7744 27.9522C52.7744 30.4868 54.8367 32.549 57.3712 32.549C59.9057 32.549 61.968 30.4868 61.968 27.9522ZM54.6131 27.9522C54.6131 26.4318 55.8508 25.1942 57.3712 25.1942C58.8916 25.1942 60.1293 26.4318 60.1293 27.9522C60.1293 29.4727 58.8916 30.7103 57.3712 30.7103C55.8508 30.7103 54.6131 29.4727 54.6131 27.9522Z" fill="white"/>
<path d="M23.355 57.3702C23.355 59.9047 25.4172 61.967 27.9518 61.967C30.4863 61.967 32.5485 59.9047 32.5485 57.3702C32.5485 54.8357 30.4863 52.7734 27.9518 52.7734C25.4172 52.7734 23.355 54.8357 23.355 57.3702ZM30.7098 57.3702C30.7098 58.8906 29.4722 60.1283 27.9518 60.1283C26.4313 60.1283 25.1937 58.8906 25.1937 57.3702C25.1937 55.8498 26.4313 54.6121 27.9518 54.6121C29.4722 54.6121 30.7098 55.8498 30.7098 57.3702Z" fill="white"/>
</g>
<defs>
<clipPath id="clip0">
<rect width="57" height="57" fill="white" transform="translate(16 16)"/>
</clipPath>
</defs>
</svg>
