<svg width="343" height="67" viewBox="0 0 343 67" fill="none" xmlns="http://www.w3.org/2000/svg">
<rect width="343" height="67" fill="white"/>
<path d="M98.1121 50.0855L97.7201 50.0642C95.8452 53.3165 92.2401 55.4272 88.2312 55.2097C87.3719 55.1631 86.6373 55.8193 86.5906 56.6753C86.5438 57.5312 87.2026 58.263 88.0619 58.3096C93.9947 58.6315 99.2486 55.0399 101.291 49.8002C100.275 50.0424 99.2075 50.1449 98.1121 50.0855Z" fill="black"/>
<path d="M82.3949 9C71.5964 9 62.6069 16.857 60.8809 27.1331C61.9349 26.7822 63.0416 26.5918 64.1677 26.5686C66.0708 18.2951 73.5205 12.1045 82.3949 12.1045C91.2692 12.1045 98.7189 18.2951 100.622 26.5687C101.748 26.5919 102.855 26.7823 103.909 27.1332C102.183 16.857 93.1933 9 82.3949 9Z" fill="black"/>
<path d="M61.4042 28.7721L59.2207 29.1234C57.6517 29.3758 56.2007 30.0662 55.025 31.1198C52.9267 32.9985 51.9425 35.775 52.3923 38.5468L52.8981 41.6636C53.6241 46.1372 57.8686 49.189 62.3598 48.4665L64.5432 48.1153C65.3928 47.9787 65.9702 47.1818 65.8329 46.3355C63.1399 39.468 62.7208 36.8853 63.1912 30.057C63.0538 29.2108 62.2537 28.6355 61.4042 28.7721Z" fill="black"/>
<path d="M103.838 28.5446L105.973 29.1083C107.507 29.5133 108.881 30.3421 109.945 31.5047C111.845 33.578 112.549 36.4339 111.828 39.1442L111.017 42.1919C109.854 46.5663 105.335 49.1819 100.943 48.0225L98.8084 47.4588C97.9777 47.2395 97.4826 46.3908 97.7026 45.5633C101.057 39.0032 101.729 36.4779 101.936 29.6458C102.156 28.8183 103.007 28.3253 103.838 28.5446Z" fill="black"/>
<path fill-rule="evenodd" clip-rule="evenodd" d="M72.8744 46.5033C68.7069 43.5355 65.9902 38.6736 65.9902 33.1794C65.9902 27.6851 68.7069 22.8233 72.8744 19.8555H91.9424C96.1099 22.8233 98.8265 27.6851 98.8265 33.1794C98.8265 38.6736 96.1099 43.5355 91.9424 46.5033H72.8744ZM78.3107 28.7139C78.3107 30.2177 77.0876 31.4368 75.5789 31.4368C74.0701 31.4368 72.8471 30.2177 72.8471 28.7139C72.8471 27.2102 74.0701 25.9911 75.5789 25.9911C77.0876 25.9911 78.3107 27.2102 78.3107 28.7139ZM89.2379 31.4368C90.7466 31.4368 91.9697 30.2177 91.9697 28.7139C91.9697 27.2102 90.7466 25.9911 89.2379 25.9911C87.7292 25.9911 86.5061 27.2102 86.5061 28.7139C86.5061 30.2177 87.7292 31.4368 89.2379 31.4368ZM82.4084 41.3206C85.158 41.3206 87.7673 40.3132 90.1121 39.239V36.9648H74.7047V39.239C77.0495 40.3132 79.6587 41.3206 82.4084 41.3206Z" fill="#EA9B36"/>
<path d="M141.599 39.0449H134.664L133.346 43H129.14L136.286 23.8047H139.951L147.136 43H142.93L141.599 39.0449ZM135.732 35.8413H140.531L138.118 28.6562L135.732 35.8413ZM153.134 43H149.179V23.8047H153.134V43ZM177.682 37.0146C177.462 39.0361 176.737 40.583 175.507 41.6553C174.285 42.7275 172.655 43.2637 170.616 43.2637C169.192 43.2637 167.931 42.9077 166.832 42.1958C165.742 41.4839 164.898 40.4775 164.301 39.1768C163.703 37.8672 163.4 36.373 163.391 34.6943V32.2026C163.391 30.4976 163.69 28.9858 164.288 27.6675C164.885 26.3491 165.742 25.334 166.858 24.6221C167.983 23.9014 169.275 23.541 170.734 23.541C172.791 23.541 174.413 24.0991 175.599 25.2153C176.794 26.3228 177.489 27.8564 177.682 29.8164H176.047C175.643 26.5557 173.872 24.9253 170.734 24.9253C168.994 24.9253 167.605 25.5757 166.568 26.8765C165.54 28.1772 165.026 29.9746 165.026 32.2686V34.6152C165.026 36.8301 165.527 38.5967 166.529 39.915C167.54 41.2334 168.902 41.8926 170.616 41.8926C172.312 41.8926 173.591 41.4883 174.452 40.6797C175.313 39.8623 175.845 38.6406 176.047 37.0146H177.682ZM190.259 43C190.101 42.5518 190 41.8882 189.956 41.0093C189.402 41.73 188.695 42.2881 187.833 42.6836C186.981 43.0703 186.076 43.2637 185.118 43.2637C183.747 43.2637 182.635 42.8813 181.782 42.1167C180.938 41.3521 180.517 40.3853 180.517 39.2163C180.517 37.8276 181.092 36.729 182.244 35.9204C183.404 35.1118 185.017 34.7075 187.082 34.7075H189.943V33.0859C189.943 32.0664 189.626 31.2666 188.994 30.6865C188.37 30.0977 187.456 29.8032 186.251 29.8032C185.153 29.8032 184.243 30.0845 183.522 30.647C182.802 31.2095 182.441 31.8862 182.441 32.6772L180.859 32.6641C180.859 31.5303 181.387 30.5503 182.441 29.7241C183.496 28.8892 184.792 28.4717 186.331 28.4717C187.921 28.4717 189.174 28.8716 190.088 29.6714C191.011 30.4624 191.485 31.5698 191.512 32.9937V39.7437C191.512 41.1235 191.657 42.1562 191.947 42.8418V43H190.259ZM185.302 41.8662C186.357 41.8662 187.297 41.6113 188.124 41.1016C188.958 40.5918 189.565 39.9106 189.943 39.0581V35.9204H187.122C185.548 35.938 184.318 36.228 183.43 36.7905C182.542 37.3442 182.099 38.1089 182.099 39.0845C182.099 39.8843 182.393 40.5479 182.982 41.0752C183.58 41.6025 184.353 41.8662 185.302 41.8662ZM197.497 43H195.915V22.75H197.497V43ZM203.562 43H201.979V22.75H203.562V43ZM228.386 37.0146C228.167 39.0361 227.441 40.583 226.211 41.6553C224.989 42.7275 223.359 43.2637 221.32 43.2637C219.896 43.2637 218.635 42.9077 217.536 42.1958C216.446 41.4839 215.603 40.4775 215.005 39.1768C214.407 37.8672 214.104 36.373 214.095 34.6943V32.2026C214.095 30.4976 214.394 28.9858 214.992 27.6675C215.589 26.3491 216.446 25.334 217.562 24.6221C218.688 23.9014 219.979 23.541 221.438 23.541C223.495 23.541 225.117 24.0991 226.303 25.2153C227.499 26.3228 228.193 27.8564 228.386 29.8164H226.751C226.347 26.5557 224.576 24.9253 221.438 24.9253C219.698 24.9253 218.31 25.5757 217.272 26.8765C216.244 28.1772 215.73 29.9746 215.73 32.2686V34.6152C215.73 36.8301 216.231 38.5967 217.233 39.915C218.244 41.2334 219.606 41.8926 221.32 41.8926C223.016 41.8926 224.295 41.4883 225.156 40.6797C226.018 39.8623 226.549 38.6406 226.751 37.0146H228.386ZM237.483 43.2637C236.27 43.2637 235.171 42.9648 234.187 42.3672C233.211 41.7695 232.451 40.939 231.906 39.8755C231.361 38.8032 231.089 37.6035 231.089 36.2764V35.7095C231.089 34.3384 231.353 33.1035 231.88 32.0049C232.416 30.9062 233.159 30.0449 234.108 29.4209C235.057 28.7881 236.085 28.4717 237.193 28.4717C238.924 28.4717 240.295 29.0649 241.306 30.2515C242.326 31.4292 242.835 33.042 242.835 35.0898V35.9731H232.658V36.2764C232.658 37.8936 233.119 39.2427 234.042 40.3237C234.974 41.396 236.143 41.9321 237.549 41.9321C238.393 41.9321 239.135 41.7783 239.777 41.4707C240.427 41.1631 241.016 40.6709 241.543 39.9941L242.532 40.7456C241.372 42.4243 239.689 43.2637 237.483 43.2637ZM237.193 29.8164C236.006 29.8164 235.004 30.2515 234.187 31.1216C233.378 31.9917 232.886 33.1606 232.71 34.6284H241.267V34.457C241.223 33.0859 240.832 31.9697 240.093 31.1084C239.355 30.2471 238.388 29.8164 237.193 29.8164ZM247.41 28.7354L247.463 31.1743C247.999 30.2954 248.667 29.6274 249.467 29.1704C250.267 28.7046 251.15 28.4717 252.117 28.4717C253.646 28.4717 254.784 28.9023 255.531 29.7637C256.278 30.625 256.656 31.917 256.665 33.6396V43H255.096V33.6265C255.087 32.3521 254.815 31.4028 254.279 30.7788C253.751 30.1548 252.903 29.8428 251.734 29.8428C250.759 29.8428 249.893 30.1504 249.137 30.7656C248.39 31.3721 247.836 32.1938 247.476 33.231V43H245.907V28.7354H247.41ZM263.204 25.0835V28.7354H266.157V30.0273H263.204V39.5327C263.204 40.3237 263.345 40.9126 263.626 41.2993C263.916 41.686 264.395 41.8794 265.063 41.8794C265.327 41.8794 265.753 41.8354 266.342 41.7476L266.408 43.0396C265.995 43.189 265.432 43.2637 264.72 43.2637C263.639 43.2637 262.853 42.9517 262.36 42.3276C261.868 41.6948 261.622 40.7676 261.622 39.5459V30.0273H258.999V28.7354H261.622V25.0835H263.204ZM274.951 43.2637C273.738 43.2637 272.639 42.9648 271.655 42.3672C270.679 41.7695 269.919 40.939 269.374 39.8755C268.829 38.8032 268.557 37.6035 268.557 36.2764V35.7095C268.557 34.3384 268.82 33.1035 269.348 32.0049C269.884 30.9062 270.626 30.0449 271.576 29.4209C272.525 28.7881 273.553 28.4717 274.661 28.4717C276.392 28.4717 277.763 29.0649 278.774 30.2515C279.793 31.4292 280.303 33.042 280.303 35.0898V35.9731H270.125V36.2764C270.125 37.8936 270.587 39.2427 271.51 40.3237C272.441 41.396 273.61 41.9321 275.017 41.9321C275.86 41.9321 276.603 41.7783 277.245 41.4707C277.895 41.1631 278.484 40.6709 279.011 39.9941L280 40.7456C278.84 42.4243 277.157 43.2637 274.951 43.2637ZM274.661 29.8164C273.474 29.8164 272.472 30.2515 271.655 31.1216C270.846 31.9917 270.354 33.1606 270.178 34.6284H278.734V34.457C278.69 33.0859 278.299 31.9697 277.561 31.1084C276.823 30.2471 275.856 29.8164 274.661 29.8164ZM289.967 30.0801C289.633 30.0186 289.277 29.9878 288.899 29.9878C287.915 29.9878 287.08 30.2646 286.394 30.8184C285.717 31.3633 285.234 32.1587 284.944 33.2046V43H283.375V28.7354H284.917L284.944 31.0029C285.779 29.3154 287.119 28.4717 288.965 28.4717C289.404 28.4717 289.751 28.5288 290.006 28.6431L289.967 30.0801Z" fill="black"/>
</svg>
