<svg width="139" height="139" viewBox="0 0 139 139" fill="none" xmlns="http://www.w3.org/2000/svg">
<circle cx="69.5" cy="69.5" r="68.5" stroke="#EA9B36" stroke-width="2"/>
<path d="M113 69.5C113 93.524 93.524 113 69.5 113C45.476 113 26 93.524 26 69.5C26 45.476 45.476 26 69.5 26C93.524 26 113 45.476 113 69.5Z" stroke="#FF8A00" stroke-width="2"/>
<path d="M69.4999 77.7349C63.1561 77.7349 58.9445 76.9948 53.7384 75.9832C52.5471 75.7544 50.2349 75.9832 50.2349 79.4845C50.2349 86.4916 58.2836 95.248 69.4999 95.248C80.7162 95.248 88.7649 86.4914 88.7649 79.4845C88.7649 75.9832 86.4506 75.7522 85.2614 75.9832C80.0575 76.9949 75.846 77.7349 69.4999 77.7349Z" stroke="#FF8A00" stroke-width="2"/>
<path d="M61.5404 48.5212C60.294 44.9942 56.4276 43.143 52.8991 44.3862C50.7576 45.1423 49.2415 46.8687 48.651 48.8913C46.923 47.687 44.6598 47.2953 42.5226 48.0483C38.9956 49.2931 37.1428 53.1626 38.3876 56.6895C38.5646 57.19 38.7996 57.6514 39.0724 58.0795C41.903 63.2764 50.0815 66.9296 55.0346 66.9746C58.8591 63.8306 62.9359 55.8553 61.8783 50.033C61.8233 49.5282 61.7144 49.0203 61.5404 48.5212Z" stroke="#FF8A00" stroke-width="2"/>
<path d="M77.5064 48.5212C78.7527 44.9942 82.6207 43.143 86.1476 44.3862C88.2906 45.1422 89.8052 46.8686 90.3973 48.8911C92.1252 47.6869 94.3885 47.2951 96.5257 48.0483C100.051 49.2931 101.904 53.1626 100.661 56.6895C100.482 57.19 100.249 57.6514 99.9744 58.0795C97.1438 63.2764 88.9652 66.9296 84.0121 66.9746C80.1877 63.8306 76.1122 55.8553 77.1699 50.033C77.2249 49.5282 77.3337 49.0203 77.5064 48.5212Z" stroke="#FF8A00" stroke-width="2"/>
</svg>
