<svg width="139" height="139" viewBox="0 0 139 139" fill="none" xmlns="http://www.w3.org/2000/svg">
<circle cx="69.5" cy="69.5" r="68.5" stroke="#FF8A00" stroke-width="2"/>
<path d="M33.1133 102.976H33.8288V98.6929C33.8288 98.0777 34.3275 97.5796 34.9421 97.5796C35.5573 97.5796 36.0559 98.0777 36.0559 98.6929V102.976H48.0046V89.9583C48.0046 89.5478 47.6706 89.2138 47.2595 89.2138H36.8004C36.3893 89.2138 36.0554 89.5478 36.0554 89.9583V93.4976C36.0554 94.1122 35.5573 94.6109 34.9421 94.6109C34.3275 94.6109 33.8288 94.1122 33.8288 93.4976V89.9583C33.8288 88.3203 35.1618 86.9872 36.8004 86.9872H47.2595C48.8981 86.9872 50.2311 88.3203 50.2311 89.9583V102.976H52.4757V78.2166C52.4757 76.5786 53.8081 75.2456 55.4467 75.2456H58.0786C58.6938 75.2456 59.1919 75.7437 59.1919 76.3589C59.1919 76.9735 58.6938 77.4721 58.0786 77.4721H55.4467C55.0362 77.4721 54.7022 77.8061 54.7022 78.2166V102.976H66.6509V78.2166C66.6509 77.8061 66.3169 77.4721 65.9064 77.4721H63.2745C62.6593 77.4721 62.1612 76.9735 62.1612 76.3589C62.1612 75.7437 62.6593 75.2456 63.2745 75.2456H65.9064C67.5444 75.2456 68.8774 76.578 68.8774 78.2166V102.976H71.122V66.475C71.122 64.8364 72.455 63.5034 74.093 63.5034H84.5527C86.1913 63.5034 87.5243 64.8364 87.5243 66.475V102.976H89.7689V54.7328C89.7689 53.0948 91.1013 51.7617 92.7399 51.7617H103.2C104.838 51.7617 106.171 53.0948 106.171 54.7328V102.976H106.887C107.502 102.976 108 103.474 108 104.089C108 104.705 107.502 105.203 106.887 105.203H33.1133C32.4981 105.203 32 104.705 32 104.089C32 103.474 32.4987 102.976 33.1133 102.976ZM103.944 102.976V54.7328C103.944 54.3223 103.61 53.9883 103.2 53.9883H92.7399C92.3294 53.9883 91.9954 54.3223 91.9954 54.7328V102.976H103.944ZM85.2978 102.976V66.475C85.2978 66.0639 84.9638 65.7299 84.5527 65.7299H74.093C73.6825 65.7299 73.3485 66.0639 73.3485 66.475V102.976H85.2978Z" fill="#FF8A00"/>
<path d="M92.6973 34.9992C92.7107 34.9992 92.724 34.9998 92.7373 34.9998L99.1341 35.1372C100.4 35.1639 101.25 36.4512 100.777 37.6259L98.3919 43.5628C97.8463 44.9208 95.9995 45.1023 95.1964 43.8864L94.6444 43.0497L43.1818 77.0349C41.9682 77.8362 40.329 77.5011 39.5271 76.2875C38.7241 75.0716 39.0581 73.4364 40.2751 72.6334L91.7371 38.6481L91.1851 37.812C90.3896 36.6077 91.2553 34.9992 92.6973 34.9992ZM41.5021 74.4912C41.3124 74.6164 41.2608 74.871 41.3855 75.0606C41.5102 75.2496 41.7653 75.3018 41.9549 75.1771L94.3464 40.5784C94.8595 40.2398 95.5501 40.3807 95.8887 40.8938L96.6199 42.0007L98.4887 37.3505L93.4778 37.2426L94.209 38.3501C94.5476 38.8621 94.4067 39.5533 93.8935 39.8925L41.5021 74.4912Z" fill="#FF8A00"/>
</svg>
