<svg width="63" height="50" viewBox="0 0 63 50" fill="none" xmlns="http://www.w3.org/2000/svg">
<path d="M47.0411 41.0855L46.6497 41.0642C44.7777 44.3165 41.178 46.4272 37.1751 46.2097C36.3171 46.1631 35.5837 46.8193 35.537 47.6753C35.4903 48.5312 36.1481 49.263 37.0061 49.3096C42.93 49.6315 48.1759 46.0399 50.2152 40.8002C49.2004 41.0424 48.1348 41.1449 47.0411 41.0855Z" fill="black"/>
<path d="M31.3472 0C20.565 0 11.5891 7.85697 9.86572 18.1331C10.9181 17.7822 12.0232 17.5918 13.1476 17.5686C15.0478 9.29508 22.4863 3.1045 31.3472 3.1045C40.2082 3.1045 47.6467 9.29508 49.5467 17.5687C50.6711 17.5919 51.7761 17.7823 52.8287 18.1332C51.1053 7.85697 42.1294 0 31.3472 0Z" fill="black"/>
<path d="M10.389 19.7745L8.20874 20.1253C6.64203 20.3773 5.19328 21.0674 4.0195 22.1206C1.9246 23.9988 0.942438 26.7748 1.39222 29.5465L1.89798 32.6631C2.62391 37.1366 6.86302 40.1891 11.3476 39.4677L13.5278 39.117C14.3761 38.9805 14.9525 38.1838 14.8152 37.3376C12.1246 30.47 11.7055 27.8874 12.1737 21.0597C12.0364 20.2135 11.2373 19.6381 10.389 19.7745Z" fill="black"/>
<path d="M52.7585 19.5455L54.8903 20.109C56.4222 20.5139 57.7938 21.3425 58.8564 22.505C60.753 24.578 61.4555 27.4338 60.7356 30.144L59.9261 33.1916C58.7642 37.5659 54.2514 40.1818 49.8664 39.0227L47.7346 38.4593C46.9051 38.24 46.4108 37.3914 46.6306 36.5639C49.9805 30.0039 50.6513 27.4786 50.8585 20.6468C51.0783 19.8193 51.929 19.3262 52.7585 19.5455Z" fill="black"/>
<path fill-rule="evenodd" clip-rule="evenodd" d="M21.8415 37.5033C17.6803 34.5355 14.9678 29.6736 14.9678 24.1794C14.9678 18.6851 17.6803 13.8233 21.8415 10.8555H40.8808C45.042 13.8233 47.7545 18.6851 47.7545 24.1794C47.7545 29.6736 45.042 34.5355 40.8808 37.5033H21.8415ZM27.2696 19.7139C27.2696 21.2177 26.0484 22.4368 24.5419 22.4368C23.0355 22.4368 21.8143 21.2177 21.8143 19.7139C21.8143 18.2102 23.0355 16.9911 24.5419 16.9911C26.0484 16.9911 27.2696 18.2102 27.2696 19.7139ZM38.1803 22.4368C39.6868 22.4368 40.908 21.2177 40.908 19.7139C40.908 18.2102 39.6868 16.9911 38.1803 16.9911C36.6739 16.9911 35.4527 18.2102 35.4527 19.7139C35.4527 21.2177 36.6739 22.4368 38.1803 22.4368ZM31.3611 32.3206C34.1066 32.3206 36.712 31.3132 39.0532 30.239V27.9648H23.6691V30.239C26.0103 31.3132 28.6156 32.3206 31.3611 32.3206Z" fill="#EA9B36"/>
</svg>
