<svg width="75" height="50" viewBox="0 0 75 50" fill="none" xmlns="http://www.w3.org/2000/svg">
<path d="M53.5983 41.6438L53.2023 41.6223C51.3082 44.9187 47.6661 47.0581 43.616 46.8377C42.7479 46.7904 42.0058 47.4555 41.9586 48.3231C41.9114 49.1908 42.5769 49.9325 43.445 49.9797C49.4387 50.3059 54.7465 46.6656 56.8098 41.3546C55.783 41.6001 54.7049 41.704 53.5983 41.6438Z" fill="url(#paint0_linear)"/>
<path d="M37.7192 0C26.8099 0 17.7283 7.96378 15.9845 18.3796C17.0493 18.0239 18.1675 17.8309 19.3051 17.8074C21.2277 9.42144 28.7538 3.1467 37.7192 3.1467C46.6846 3.1467 54.2107 9.42143 56.1332 17.8075C57.2708 17.831 58.3889 18.024 59.4538 18.3797C57.7102 7.96378 48.6285 0 37.7192 0Z" fill="url(#paint1_linear)"/>
<path d="M16.5132 20.0392L14.3074 20.3956C12.7224 20.6517 11.2564 21.3518 10.0686 22.4199C7.94852 24.3247 6.95383 27.1392 7.40776 29.9488L7.9182 33.108C8.65084 37.6425 12.9382 40.7353 17.4753 40.0022L19.681 39.6459C20.5393 39.5072 21.1228 38.6993 20.9842 37.8416C18.2649 30.8807 17.8419 28.2629 18.3182 21.3413C18.1796 20.4835 17.3715 19.9005 16.5132 20.0392Z" fill="url(#paint2_linear)"/>
<path d="M59.3833 19.8102L61.5401 20.3817C63.09 20.7924 64.4778 21.6326 65.553 22.8111C67.4721 24.9128 68.1832 27.8077 67.4553 30.5549L66.6367 33.6441C65.4619 38.078 60.8967 40.729 56.4602 39.5535L54.3034 38.982C53.4641 38.7596 52.9639 37.8993 53.1862 37.0606C56.5743 30.4113 57.2526 27.8515 57.4613 20.9263C57.6835 20.0876 58.5441 19.5879 59.3833 19.8102Z" fill="url(#paint3_linear)"/>
<path fill-rule="evenodd" clip-rule="evenodd" d="M28.1013 38.012C23.891 35.0039 21.1465 30.0759 21.1465 24.507C21.1465 18.938 23.891 14.0101 28.1012 11.002H47.3649C51.5751 14.0101 54.3196 18.938 54.3196 24.507C54.3196 30.0759 51.5751 35.0039 47.3649 38.012H28.1013ZM33.5933 19.9809C33.5933 21.5051 32.3577 22.7407 30.8335 22.7407C29.3093 22.7407 28.0737 21.5051 28.0737 19.9809C28.0737 18.4566 29.3093 17.221 30.8335 17.221C32.3577 17.221 33.5933 18.4566 33.5933 19.9809ZM44.6326 22.7407C46.1568 22.7407 47.3924 21.5051 47.3924 19.9809C47.3924 18.4566 46.1568 17.221 44.6326 17.221C43.1084 17.221 41.8728 18.4566 41.8728 19.9809C41.8728 21.5051 43.1084 22.7407 44.6326 22.7407ZM37.7331 32.7589C40.5109 32.7589 43.147 31.7378 45.5158 30.649V28.3439H29.9503V30.649C32.3191 31.7378 34.9552 32.7589 37.7331 32.7589Z" fill="url(#paint4_radial)"/>
<defs>
<linearGradient id="paint0_linear" x1="22.2635" y1="6.50436" x2="37.5175" y2="50" gradientUnits="userSpaceOnUse">
<stop stop-color="#5F5F5F"/>
<stop offset="1"/>
</linearGradient>
<linearGradient id="paint1_linear" x1="22.2635" y1="6.50436" x2="37.5175" y2="50" gradientUnits="userSpaceOnUse">
<stop stop-color="#5F5F5F"/>
<stop offset="1"/>
</linearGradient>
<linearGradient id="paint2_linear" x1="22.2635" y1="6.50436" x2="37.5175" y2="50" gradientUnits="userSpaceOnUse">
<stop stop-color="#5F5F5F"/>
<stop offset="1"/>
</linearGradient>
<linearGradient id="paint3_linear" x1="22.2635" y1="6.50436" x2="37.5175" y2="50" gradientUnits="userSpaceOnUse">
<stop stop-color="#5F5F5F"/>
<stop offset="1"/>
</linearGradient>
<radialGradient id="paint4_radial" cx="0" cy="0" r="1" gradientUnits="userSpaceOnUse" gradientTransform="translate(28.1174 10.4067) rotate(67.9638) scale(29.4713 36.196)">
<stop stop-color="#F0B262"/>
<stop offset="1" stop-color="#E8901F"/>
</radialGradient>
</defs>
</svg>
