<svg width="89" height="89" viewBox="0 0 89 89" fill="none" xmlns="http://www.w3.org/2000/svg">
<circle cx="44.5" cy="44.5" r="44.5" fill="#FF8A00"/>
<path d="M71.0832 55.5C71.0897 48.419 65.3548 42.6732 58.2737 42.6667C58.2658 42.6667 58.2577 42.6667 58.2498 42.6667C57.636 42.671 57.0232 42.7201 56.4165 42.8133V21.5833C56.4165 21.0771 56.0061 20.6667 55.4998 20.6667H44.4998V18.8333C44.4998 17.8208 43.6791 17 42.6665 17H31.6665C30.6539 17 29.8332 17.8208 29.8332 18.8333V20.6667H18.8332C18.3269 20.6667 17.9165 21.0771 17.9165 21.5833V71.0833C17.9165 71.5896 18.3269 72 18.8332 72H55.4998C56.0061 72 56.4165 71.5896 56.4165 71.0833V68.1867C61.8928 69.0283 67.2806 66.2134 69.7173 61.2374C70.6165 59.4586 71.0843 57.4932 71.0832 55.5ZM68.3554 51.148C68.385 51.2165 68.4137 51.2853 68.4418 51.3544L58.7018 54.4L53.9003 45.3993C59.4794 42.9951 65.9512 45.5688 68.3554 51.148ZM31.6665 18.8333H42.6665V24.3333H31.6665V18.8333ZM54.5832 70.1667H19.7498V22.5H29.8332V24.3333C29.8332 25.3459 30.6539 26.1667 31.6665 26.1667H42.6665C43.6791 26.1667 44.4998 25.3459 44.4998 24.3333V22.5H54.5832V43.2268C53.7623 43.4631 52.9675 43.7819 52.2108 44.1783C45.9589 47.5107 43.5922 55.2803 46.9246 61.5322C48.538 64.5588 51.2961 66.8134 54.5832 67.7924V70.1667ZM58.2498 66.5C52.1747 66.4982 47.2513 61.5719 47.2532 55.4967C47.2543 51.764 49.1481 48.2866 52.2833 46.2609L57.4413 55.9318L57.4478 55.9409C57.4624 55.9675 57.4835 55.9886 57.5 56.0133C57.53 56.0604 57.5641 56.1049 57.6018 56.1463L57.6137 56.1591C57.6342 56.1759 57.6556 56.1915 57.6778 56.2058C57.7205 56.2406 57.7662 56.2713 57.8144 56.2975C57.8236 56.3021 57.83 56.3103 57.8401 56.3158L67.6356 61.2136C65.6527 64.5019 62.0898 66.5087 58.2498 66.5ZM68.4569 59.5792L60.6937 55.6971L61.9376 55.3075L68.9877 53.1075C69.1621 53.8931 69.25 54.6953 69.2498 55.5C69.2513 56.8981 68.9821 58.2833 68.4569 59.5792Z" fill="white"/>
<path d="M34.701 30.8345C32.2233 27.641 27.6257 27.0609 24.4323 29.5387C23.8689 29.9758 23.3724 30.493 22.9585 31.0737L23.7038 31.6072L22.9576 31.0737C20.6014 34.3635 21.3584 38.9406 24.6483 41.2967C25.893 42.1882 27.3858 42.6673 28.9169 42.6668C32.9651 42.6622 36.2456 39.3817 36.2502 35.3335C36.254 33.7024 35.7083 32.1175 34.701 30.8345ZM29.8335 29.9187C30.8778 30.095 31.8479 30.5729 32.6239 31.2937L31.1434 32.4451C30.7557 32.141 30.31 31.9192 29.8335 31.7933V29.9187ZM28.8992 33.501C29.47 33.4983 30.0091 33.763 30.356 34.2161C30.6089 34.5338 30.7477 34.9274 30.7502 35.3335C30.7502 36.3461 29.9294 37.1668 28.9169 37.1668C27.9043 37.1668 27.0835 36.3461 27.0835 35.3335C27.0788 34.3261 27.8918 33.5055 28.8992 33.501ZM28.0002 29.9252V31.7924C27.474 31.9302 26.985 32.1832 26.5684 32.5331L25.0494 31.4487C25.8531 30.6497 26.8835 30.1177 28.0002 29.9252ZM27.9682 40.7192C25.3485 40.2606 23.4322 37.9931 23.4169 35.3335C23.4172 34.5006 23.6088 33.6789 23.9769 32.9318L25.5059 34.0236C25.3399 34.4405 25.2532 34.8848 25.2502 35.3335C25.2477 37.3545 26.8839 38.9949 28.9049 38.9974C30.5764 38.9995 32.0367 37.8689 32.4534 36.2502H34.3344C33.8105 39.2422 30.9603 41.2431 27.9682 40.7192ZM32.4524 34.4168C32.4053 34.2362 32.344 34.0597 32.2691 33.8888L33.7596 32.7302C34.0454 33.2562 34.2414 33.8263 34.3399 34.4168H32.4524Z" fill="white"/>
<path d="M51.8332 28.916H39.9165V30.7493H51.8332V28.916Z" fill="white"/>
<path d="M51.8332 32.584H39.9165V34.4173H51.8332V32.584Z" fill="white"/>
<path d="M51.8332 36.25H39.9165V38.0833H51.8332V36.25Z" fill="white"/>
<path d="M46.3332 39.916H39.9165V41.7493H46.3332V39.916Z" fill="white"/>
<path d="M25.2502 61.916H22.5002C21.9939 61.916 21.5835 62.3265 21.5835 62.8327V67.416C21.5835 67.9222 21.9939 68.3327 22.5002 68.3327H25.2502C25.7564 68.3327 26.1668 67.9222 26.1668 67.416V62.8327C26.1668 62.3265 25.7564 61.916 25.2502 61.916ZM24.3335 66.4993H23.4168V63.7493H24.3335V66.4993Z" fill="white"/>
<path d="M30.7502 58.25H28.0002C27.4939 58.25 27.0835 58.6604 27.0835 59.1667V67.4167C27.0835 67.9229 27.4939 68.3333 28.0002 68.3333H30.7502C31.2564 68.3333 31.6668 67.9229 31.6668 67.4167V59.1667C31.6668 58.6604 31.2564 58.25 30.7502 58.25ZM29.8335 66.5H28.9168V60.0833H29.8335V66.5Z" fill="white"/>
<path d="M36.2502 53.666H33.5002C32.9939 53.666 32.5835 54.0765 32.5835 54.5827V67.416C32.5835 67.9223 32.9939 68.3327 33.5002 68.3327H36.2502C36.7564 68.3327 37.1668 67.9223 37.1668 67.416V54.5827C37.1668 54.0765 36.7564 53.666 36.2502 53.666ZM35.3335 66.4994H34.4168V55.4994H35.3335V66.4994Z" fill="white"/>
<path d="M41.7502 49.084H39.0002C38.4939 49.084 38.0835 49.4944 38.0835 50.0007V67.4173C38.0835 67.9236 38.4939 68.334 39.0002 68.334H41.7502C42.2564 68.334 42.6668 67.9236 42.6668 67.4173V50.0007C42.6668 49.4944 42.2564 49.084 41.7502 49.084ZM40.8335 66.5007H39.9168V50.9173H40.8335V66.5007Z" fill="white"/>
<path d="M28.9168 44.5H21.5835V46.3333H28.9168V44.5Z" fill="white"/>
<path d="M28.9168 47.25H21.5835V49.0833H28.9168V47.25Z" fill="white"/>
<path d="M25.2502 50H21.5835V51.8333H25.2502V50Z" fill="white"/>
</svg>
