<svg width="82" height="82" viewBox="0 0 82 82" fill="none" xmlns="http://www.w3.org/2000/svg">
<circle cx="41" cy="41" r="41" fill="#FF8A00"/>
<path d="M43.7761 19.6515C54.7573 20.9943 63.2681 30.3999 63.2681 41.8069C63.2681 47.4327 61.1984 52.5712 57.7825 56.4966L52.0826 50.7668C54.0246 48.3516 55.1878 45.2767 55.1878 41.9302C55.1878 35.05 50.2733 29.3213 43.7761 28.1014V19.6515Z" stroke="white"/>
<mask id="path-3-inside-1" fill="white">
<path fill-rule="evenodd" clip-rule="evenodd" d="M18.3676 42.0137C18.3699 42.2755 18.3768 42.5372 18.388 42.7988C18.625 48.3037 20.8342 53.7387 25.0156 57.942C33.3538 66.324 46.5649 66.8222 55.4824 59.4366L48.8499 52.7693C43.57 56.6512 36.1191 56.1949 31.3495 51.4004C28.9653 49.0036 27.6595 45.9334 27.4321 42.7988C27.4131 42.5375 27.4017 42.2756 27.3977 42.0137L18.3676 42.0137Z"/>
</mask>
<path d="M18.388 43.7988L27.4321 43.7988L27.4321 41.7988L18.388 41.7988L18.388 43.7988ZM18.3676 41.0137L18.3657 41.0137L18.3657 43.0137L18.3676 43.0137L18.3676 41.0137ZM25.0156 57.942L26.4335 56.5315L25.0156 57.942ZM31.3495 51.4004L32.7674 49.9899L32.7674 49.9899L31.3495 51.4004ZM18.388 42.7988L20.3862 42.7128L20.3862 42.7128L18.388 42.7988ZM27.4321 42.7988L25.4373 42.9436L25.4373 42.9436L27.4321 42.7988ZM55.4824 59.4366L56.7581 60.9769L58.4455 59.5794L56.9003 58.0261L55.4824 59.4366ZM48.8499 52.7693L50.2678 51.3587L49.053 50.1376L47.6652 51.1579L48.8499 52.7693ZM18.3676 42.0137L18.3676 40.0137L16.3495 40.0137L16.3677 42.0317L18.3676 42.0137ZM27.3977 42.0137L29.3975 41.9834L29.3677 40.0137L27.3977 40.0137L27.3977 42.0137ZM26.4335 56.5315C22.6185 52.6966 20.6026 47.7403 20.3862 42.7128L16.3899 42.8849C16.6474 48.8671 19.0499 54.7809 23.5976 59.3525L26.4335 56.5315ZM32.7674 49.9899C30.7343 47.9461 29.621 45.3308 29.4269 42.6541L25.4373 42.9436C25.698 46.5359 27.1963 50.0612 29.9316 52.8109L32.7674 49.9899ZM54.2067 57.8963C46.0785 64.6282 34.0359 64.1738 26.4335 56.5315L23.5976 59.3525C32.6717 68.4742 47.0513 69.0162 56.7581 60.9769L54.2067 57.8963ZM47.6652 51.1579C43.1716 54.4617 36.8288 54.0725 32.7674 49.9899L29.9316 52.8109C35.4093 58.3173 43.9684 58.8407 50.0346 54.3806L47.6652 51.1579ZM56.9003 58.0261L50.2678 51.3587L47.432 54.1798L54.0645 60.8471L56.9003 58.0261ZM16.3677 42.0317C16.3702 42.3161 16.3776 42.6006 16.3899 42.8849L20.3862 42.7128C20.3759 42.4739 20.3697 42.2348 20.3675 41.9957L16.3677 42.0317ZM27.3977 40.0137L18.3676 40.0137L18.3676 44.0137L27.3977 44.0137L27.3977 40.0137ZM29.4269 42.6541C29.4107 42.4308 29.4009 42.2072 29.3975 41.9834L25.3979 42.0439C25.4025 42.3441 25.4156 42.6441 25.4373 42.9436L29.4269 42.6541Z" fill="white" mask="url(#path-3-inside-1)"/>
<path fill-rule="evenodd" clip-rule="evenodd" d="M39.5947 18.0001C27.8026 18.0001 18.1105 27.0385 17 38.5996L26.3798 38.5996C27.3766 32.1411 32.9045 27.1885 39.5947 27.1286L39.5947 18.0001Z" fill="white"/>
<path d="M41.7192 40.6359C40.1696 39.9936 39.7219 39.6052 39.7219 38.9038C39.7219 38.3425 40.133 37.6868 41.2922 37.6868C42.3176 37.6868 43.1039 38.1048 43.1109 38.1084C43.1937 38.1541 43.2865 38.1784 43.3784 38.1784C43.6028 38.1784 43.8013 38.038 43.8836 37.8207L44.1652 37.0762C44.2633 36.8049 44.1145 36.5686 43.9248 36.4838C43.2935 36.1997 42.0597 35.9798 42.0472 35.9775C42.0273 35.9739 41.9582 35.9586 41.9582 35.875L41.9542 34.7951C41.9542 34.4699 41.6916 34.2051 41.3691 34.2051H40.8638C40.5417 34.2051 40.2792 34.4697 40.2792 34.7952L40.2805 35.9307C40.2805 36.0177 40.1893 36.0555 40.156 36.0635C38.5986 36.4471 37.6253 37.6266 37.6253 39.1145C37.6253 40.9693 39.1081 41.8074 40.7092 42.4366C41.9891 42.9561 42.5112 43.483 42.5112 44.2557C42.5112 45.0966 41.7718 45.6839 40.7124 45.6839C39.8078 45.6839 38.5836 45.091 38.5714 45.0849C38.4931 45.0465 38.4101 45.0272 38.3247 45.0272C38.0917 45.0272 37.8888 45.1729 37.8077 45.3985L37.5388 46.1514C37.4432 46.4325 37.5904 46.6607 37.7788 46.7623C38.5306 47.1672 39.9855 47.4044 40.0503 47.4149C40.0677 47.4174 40.1563 47.4496 40.1563 47.5334V48.6638C40.1563 48.989 40.4189 49.2538 40.7415 49.2538H41.2636C41.5863 49.2538 41.849 48.9892 41.849 48.6638V47.4741C41.849 47.3629 41.9283 47.3531 41.9447 47.349C43.6038 46.9636 44.6258 45.7085 44.6258 44.1325C44.6253 42.5138 43.756 41.4678 41.7192 40.6359Z" fill="white"/>
</svg>
