<svg width="82" height="82" viewBox="0 0 82 82" fill="none" xmlns="http://www.w3.org/2000/svg">
<circle cx="41" cy="41" r="41" fill="#FF8A00"/>
<path d="M51.6353 22.4513C51.6353 28.7921 46.4873 33.9026 40.1531 33.9026C33.7952 33.9026 28.6709 28.7685 28.6709 22.4513C28.6709 16.1342 33.8189 11.0001 40.1531 11.0001C46.4873 10.9764 51.6353 16.1106 51.6353 22.4513Z" fill="white"/>
<path d="M40.1531 11.9961C34.3516 11.9961 29.6694 16.6886 29.6694 22.4516C29.6694 28.2375 34.3745 32.9072 40.1531 32.9072C45.9545 32.9072 50.6368 28.2147 50.6368 22.4516C50.6596 16.6658 45.9545 11.9961 40.1531 11.9961ZM40.1531 32.5199C34.58 32.5199 30.0348 28.0097 30.0348 22.4288C30.0348 16.8708 34.5572 12.3378 40.1531 12.3378C45.7261 12.3378 50.2713 16.848 50.2713 22.4288C50.2713 28.0097 45.7489 32.5199 40.1531 32.5199Z" fill="#FF8A00"/>
<path d="M47.6415 22.4507C47.6415 26.5796 44.2932 29.9189 40.1531 29.9189C36.013 29.9189 32.6647 26.5796 32.6647 22.4507C32.6647 18.3217 36.013 14.9824 40.1531 14.9824C44.2932 14.9824 47.6415 18.3217 47.6415 22.4507Z" fill="#FF8A00"/>
<path d="M46.6431 22.451C46.6431 26.0306 43.7424 28.9235 40.1531 28.9235C36.5639 28.9235 33.6632 26.0306 33.6632 22.451C33.6632 18.8714 36.5639 15.9785 40.1531 15.9785C43.7424 15.9785 46.6431 18.8714 46.6431 22.451Z" fill="white"/>
<path d="M39.6828 26.5206C38.9955 26.4792 38.3262 26.3136 37.6751 25.9824V24.1813C38.0368 24.3883 38.4348 24.5746 38.8689 24.7195C39.303 24.8645 39.6828 24.9266 40.0084 24.9266C40.2797 24.9266 40.4787 24.8852 40.6053 24.8231C40.7319 24.7402 40.7862 24.616 40.7862 24.4504C40.7862 24.3262 40.7319 24.2227 40.6415 24.1399C40.551 24.0571 40.4063 23.9536 40.1893 23.8501C39.9722 23.7466 39.7009 23.6223 39.3392 23.4774C38.9412 23.3118 38.6156 23.1048 38.3624 22.8978C38.1092 22.6908 37.9283 22.4423 37.8198 22.1939C37.7112 21.9248 37.657 21.5935 37.657 21.2002C37.657 20.5999 37.8198 20.1237 38.1634 19.7925C38.5071 19.4612 39.0136 19.2542 39.6828 19.1714V17.9707H40.6777V19.1714C41.3107 19.2128 41.9438 19.3991 42.595 19.7097L42.0343 21.2623C41.365 20.9311 40.7681 20.7448 40.2436 20.7448C39.9903 20.7448 39.8094 20.7862 39.7009 20.8483C39.5924 20.9104 39.5381 21.0139 39.5381 21.1588C39.5381 21.283 39.5743 21.3865 39.6466 21.4486C39.719 21.5314 39.8456 21.6142 40.0265 21.7178C40.2074 21.8213 40.4606 21.9248 40.7862 22.049C41.4554 22.3181 41.9257 22.6286 42.2151 22.9599C42.5045 23.3118 42.6492 23.7466 42.6492 24.2848C42.6492 24.8852 42.4864 25.382 42.1428 25.7753C41.7991 26.148 41.3107 26.3964 40.6596 26.4792V27.9283H39.6647V26.5206H39.6828Z" fill="#FF8A00"/>
<path d="M22.2169 50.9425C22.1072 51.634 21.0422 52.7749 19.241 51.3574C19.5543 51.1327 19.9458 50.8907 20.1808 50.2165C20.4784 49.3695 20.2434 48.557 19.7892 47.9693C19.3977 47.468 18.8025 47.0704 18.2543 47.0012C16.5471 46.9321 17.1736 49.8189 18.3013 51.0981L18.3639 51.1673C18.4266 51.2364 18.4736 51.2883 18.5206 51.3401C18.2543 51.634 17.7844 51.9797 17.2676 52.1526C17.111 52.2044 16.9857 52.4119 17.0013 52.6193C17.0013 52.7057 17.064 52.7576 17.1266 52.7749C17.3146 52.8095 17.8941 52.8095 18.8965 51.7377C19.6169 52.4464 20.5253 53.0169 21.2615 52.9996C22.0446 52.9823 22.859 52.481 23 51.3401L22.2169 50.9425ZM18.8965 48.1076C19.0844 48.2113 19.2567 48.4014 19.3507 48.6434C19.4133 48.7817 19.4603 48.92 19.4916 49.0583C19.5699 49.3349 19.5543 49.646 19.4446 49.9053C19.2097 50.4585 18.9278 50.8042 18.9278 50.8042C17.6905 49.9572 17.4869 47.2951 18.8965 48.1076Z" fill="white"/>
<mask id="path-8-inside-1" fill="white">
<path fill-rule="evenodd" clip-rule="evenodd" d="M41.0561 36.8574C43.1407 36.8574 45.1466 37.1291 47.0225 37.6309C48.9311 36.2404 51.431 35.7996 53.7354 36.6429L53.7354 36.6429C53.7188 36.676 53.7188 36.676 53.7188 36.6925L53.3989 37.4619C54.8898 37.1433 56.4758 37.2918 57.9288 37.9819C57.9225 37.9882 57.9186 37.9945 57.9153 37.9999C57.9098 38.0086 57.9059 38.0149 57.8957 38.0149L55.6097 42.354C57.2478 43.9359 58.4975 45.7887 59.2407 47.8164H60.5968C61.989 48.4445 63 50.1471 63 52.1472C63 54.1473 61.989 55.8498 60.5968 56.4945V56.478H59.2559C59.1831 56.6782 59.1053 56.8767 59.0227 57.0732C57.8778 59.7971 55.8039 62.1773 53.106 63.969V67.1736C53.106 67.6199 52.7414 68 52.2773 68H46.2608C45.7968 68 45.4321 67.6199 45.4321 67.1736V67.0441C44.027 67.3121 42.5618 67.4539 41.0561 67.4539C39.288 67.4539 37.5761 67.2589 35.9519 66.8942V67.1736C35.9519 67.6199 35.5872 68 35.1231 68H29.1067C28.6426 68 28.278 67.6199 28.278 67.1736V63.6693C28.278 63.6051 28.2853 63.5428 28.2991 63.4831C24.4785 60.6865 22.0786 56.6515 22.0786 52.1639C22.0786 48.1637 23.9846 44.5107 27.1171 41.7833C30.5812 38.7583 35.5369 36.8574 41.0561 36.8574Z"/>
</mask>
<path d="M47.0225 37.6309L46.7641 38.597L47.2254 38.7204L47.6113 38.4392L47.0225 37.6309ZM53.7354 36.6429L54.6007 37.1441L55.1978 36.1133L54.0791 35.7038L53.7354 36.6429ZM53.7354 36.6429L52.87 36.1418L52.8549 36.1678L52.8414 36.1948L53.7354 36.6429ZM53.7188 36.6925L54.6422 37.0764L54.7188 36.8921V36.6925H53.7188ZM53.3989 37.4619L52.4755 37.078L51.7438 38.8381L53.6079 38.4398L53.3989 37.4619ZM57.9288 37.9819L58.6351 38.6899L59.64 37.6875L58.3578 37.0786L57.9288 37.9819ZM57.9153 37.9999L58.7652 38.5267L58.7653 38.5266L57.9153 37.9999ZM57.8957 38.0149V37.0149H57.2922L57.011 37.5488L57.8957 38.0149ZM55.6097 42.354L54.725 41.8879L54.3751 42.5519L54.915 43.0733L55.6097 42.354ZM59.2407 47.8164L58.3018 48.1606L58.5422 48.8164H59.2407V47.8164ZM60.5968 47.8164L61.008 46.9049L60.8119 46.8164H60.5968V47.8164ZM60.5968 56.4945H59.5968V58.0595L61.017 57.4019L60.5968 56.4945ZM60.5968 56.478H61.5968V55.478H60.5968V56.478ZM59.2559 56.478V55.478H58.5554L58.3161 56.1363L59.2559 56.478ZM59.0227 57.0732L58.1008 56.6856L58.1008 56.6858L59.0227 57.0732ZM53.106 63.969L52.5528 63.136L52.106 63.4327V63.969H53.106ZM45.4321 67.0441H46.4321V65.8354L45.2448 66.0618L45.4321 67.0441ZM35.9519 66.8942L36.1709 65.9185L34.9519 65.6447V66.8942H35.9519ZM28.2991 63.4831L29.2733 63.7088L29.4223 63.066L28.8898 62.6762L28.2991 63.4831ZM27.1171 41.7833L27.7738 42.5375L27.7749 42.5365L27.1171 41.7833ZM47.2809 36.6649C45.3203 36.1404 43.2276 35.8574 41.0561 35.8574V37.8574C43.0539 37.8574 44.9729 38.1178 46.7641 38.597L47.2809 36.6649ZM54.0791 35.7038C51.4412 34.7384 48.5939 35.2488 46.4336 36.8227L47.6113 38.4392C49.2682 37.232 51.4207 36.8607 53.3917 37.582L54.0791 35.7038ZM54.6007 37.1441L54.6007 37.1441L52.87 36.1417L52.87 36.1418L54.6007 37.1441ZM54.7188 36.6925C54.7188 36.6745 54.7197 36.7213 54.7149 36.7732C54.7081 36.8475 54.6927 36.9208 54.6693 36.9909C54.6508 37.0461 54.6316 37.086 54.6291 37.0913C54.6258 37.0983 54.6232 37.1033 54.6293 37.0911L52.8414 36.1948C52.8392 36.1991 52.8305 36.2165 52.8225 36.2333C52.8153 36.2485 52.7929 36.2956 52.7724 36.357C52.7126 36.5359 52.7188 36.692 52.7188 36.6925H54.7188ZM54.3223 37.8458L54.6422 37.0764L52.7954 36.3086L52.4755 37.078L54.3223 37.8458ZM53.6079 38.4398C54.8942 38.1649 56.255 38.294 57.4998 38.8852L58.3578 37.0786C56.6966 36.2896 54.8854 36.1217 53.19 36.484L53.6079 38.4398ZM57.2226 37.2739C57.1256 37.3706 57.069 37.4671 57.0652 37.4731L58.7653 38.5266C58.7682 38.5219 58.7194 38.6057 58.6351 38.6899L57.2226 37.2739ZM57.0653 37.4731C57.0601 37.4814 57.0754 37.456 57.0951 37.4282C57.1167 37.3977 57.1626 37.3362 57.2344 37.2709C57.3113 37.201 57.4137 37.1304 57.543 37.0806C57.6712 37.0312 57.7931 37.0149 57.8957 37.0149V39.0149C58.1474 39.0149 58.3915 38.922 58.5801 38.7504C58.6549 38.6825 58.7035 38.6177 58.7276 38.5836C58.7404 38.5655 58.7502 38.5505 58.7557 38.5419C58.7586 38.5373 58.7609 38.5336 58.7624 38.5312C58.7638 38.529 58.7651 38.527 58.7652 38.5267L57.0653 37.4731ZM57.011 37.5488L54.725 41.8879L56.4944 42.8201L58.7804 38.481L57.011 37.5488ZM60.1796 47.4723C59.3792 45.2885 58.0398 43.3106 56.3044 41.6347L54.915 43.0733C56.4558 44.5613 57.6158 46.2889 58.3018 48.1606L60.1796 47.4723ZM60.5968 46.8164H59.2407V48.8164H60.5968V46.8164ZM64 52.1472C64 49.851 62.8394 47.7311 61.008 46.9049L60.1855 48.7279C61.1386 49.1579 62 50.4432 62 52.1472H64ZM61.017 57.4019C62.838 56.5587 64 54.4465 64 52.1472H62C62 53.848 61.1401 55.1409 60.1766 55.5871L61.017 57.4019ZM59.5968 56.478V56.4945H61.5968V56.478H59.5968ZM59.2559 57.478H60.5968V55.478H59.2559V57.478ZM59.9445 57.4608C60.0335 57.2492 60.1173 57.0354 60.1957 56.8196L58.3161 56.1363C58.2489 56.321 58.1771 56.5041 58.1008 56.6856L59.9445 57.4608ZM53.6593 64.802C56.4974 62.9172 58.713 60.3908 59.9445 57.4607L58.1008 56.6858C57.0426 59.2034 55.1104 61.4375 52.5528 63.136L53.6593 64.802ZM54.106 67.1736V63.969H52.106V67.1736H54.106ZM52.2773 69C53.3041 69 54.106 68.1616 54.106 67.1736H52.106C52.106 67.0781 52.1787 67 52.2773 67V69ZM46.2608 69H52.2773V67H46.2608V69ZM44.4321 67.1736C44.4321 68.1616 45.234 69 46.2608 69V67C46.3595 67 46.4321 67.0781 46.4321 67.1736H44.4321ZM44.4321 67.0441V67.1736H46.4321V67.0441H44.4321ZM41.0561 68.4539C42.6246 68.4539 44.1525 68.3062 45.6194 68.0264L45.2448 66.0618C43.9015 66.318 42.4991 66.4539 41.0561 66.4539V68.4539ZM35.7328 67.8699C37.4292 68.2508 39.2146 68.4539 41.0561 68.4539V66.4539C39.3615 66.4539 37.7231 66.267 36.1709 65.9185L35.7328 67.8699ZM36.9519 67.1736V66.8942H34.9519V67.1736H36.9519ZM35.1231 69C36.1499 69 36.9519 68.1616 36.9519 67.1736H34.9519C34.9519 67.0781 35.0245 67 35.1231 67V69ZM29.1067 69H35.1231V67H29.1067V69ZM27.278 67.1736C27.278 68.1616 28.0799 69 29.1067 69V67C29.2053 67 29.278 67.0781 29.278 67.1736H27.278ZM27.278 63.6693V67.1736H29.278V63.6693H27.278ZM27.3249 63.2574C27.2941 63.3906 27.278 63.5286 27.278 63.6693H29.278C29.278 63.6815 29.2765 63.6949 29.2733 63.7088L27.3249 63.2574ZM21.0786 52.1639C21.0786 57.0307 23.6835 61.3438 27.7085 64.29L28.8898 62.6762C25.2735 60.0291 23.0786 56.2723 23.0786 52.1639H21.0786ZM26.4605 41.0291C23.1468 43.9142 21.0786 47.8289 21.0786 52.1639H23.0786C23.0786 48.4986 24.8224 45.1071 27.7738 42.5375L26.4605 41.0291ZM41.0561 35.8574C35.3127 35.8574 30.1185 37.8348 26.4594 41.03L27.7749 42.5365C31.0439 39.6819 35.7611 37.8574 41.0561 37.8574V35.8574Z" fill="white" mask="url(#path-8-inside-1)"/>
<path d="M45.7466 41.6022C42.2825 40.065 38.3213 40.065 34.8572 41.6022C34.592 41.7179 34.2771 41.6187 34.1445 41.3708C34.0119 41.1229 34.1445 40.8088 34.4429 40.6766C38.1721 39.0401 42.4317 39.0401 46.1609 40.6766C46.4427 40.8088 46.5753 41.1229 46.4592 41.3708C46.3432 41.6187 46.0117 41.7179 45.7466 41.6022Z" fill="white"/>
</svg>
