<svg width="82" height="82" viewBox="0 0 82 82" fill="none" xmlns="http://www.w3.org/2000/svg">
<path d="M41 82C63.6437 82 82 63.6437 82 41C82 18.3563 63.6437 0 41 0C18.3563 0 0 18.3563 0 41C0 63.6437 18.3563 82 41 82Z" fill="#FF8A00"/>
<path d="M62.188 28.3339L62.2709 49.9364C62.2709 50.0028 62.2709 50.0525 62.2709 50.1188C62.188 51.2628 61.243 52.158 60.0825 52.158L13.114 52.357C11.9535 52.357 10.9919 51.4617 10.909 50.3343C10.909 50.2846 10.909 50.2183 10.909 50.152L10.8261 28.5494C10.8261 28.5163 10.8261 28.4997 10.8261 28.4666C10.8593 27.2729 11.8374 26.3279 13.0311 26.3279L59.9996 26.1289C61.1933 26.1289 62.1714 27.0739 62.2212 28.251C62.188 28.2842 62.188 28.3173 62.188 28.3339Z" fill="#FF8A00"/>
<path d="M62.1881 28.2669C62.1384 27.0732 61.1602 26.1282 59.9665 26.1447L52.7546 26.1779L20.2099 26.3105L12.998 26.3437C11.8044 26.3437 10.8262 27.3053 10.793 28.4824C10.793 28.5156 10.793 28.5321 10.793 28.5653L10.8096 34.484L10.8428 44.2325L10.8593 50.1512C10.8593 50.1844 10.8593 50.201 10.8593 50.2341C10.8593 50.2673 10.8593 50.3004 10.8593 50.3336C10.8593 50.3336 10.8593 50.3336 10.8593 50.3502V50.3668C10.8593 50.3999 10.8593 50.4331 10.8759 50.4497C10.8759 50.4662 10.8759 50.4662 10.8759 50.4828C10.8759 50.516 10.8759 50.5326 10.8925 50.5657C10.8925 50.5823 10.8925 50.5823 10.8925 50.5989C10.8925 50.6154 10.9091 50.6486 10.9091 50.6652C10.9091 50.6818 10.9091 50.6983 10.9257 50.6983C10.9257 50.7149 10.9422 50.7315 10.9422 50.7647C10.9422 50.7812 10.9588 50.7978 10.9588 50.8144C10.9588 50.831 10.9754 50.8476 10.9754 50.8641C10.9754 50.8807 10.992 50.8973 10.992 50.9139C10.992 50.9304 11.0086 50.947 11.0086 50.9636C11.0086 50.9802 11.0251 50.9968 11.0251 51.0133C11.0251 51.0299 11.0417 51.0465 11.0417 51.0631C11.0417 51.0797 11.0583 51.0962 11.0583 51.1128C11.0583 51.1294 11.0749 51.146 11.0749 51.1626C11.0749 51.1791 11.0915 51.1957 11.0915 51.2123C11.0915 51.2289 11.108 51.2455 11.108 51.262C11.1246 51.2786 11.1246 51.2952 11.1412 51.3118C11.1578 51.3284 11.1578 51.3449 11.1743 51.3615C11.1909 51.3781 11.1909 51.3947 11.2075 51.4112C11.2241 51.4278 11.2241 51.4444 11.2407 51.4444C11.2572 51.461 11.2572 51.4776 11.2738 51.4941C11.2904 51.5107 11.2904 51.5273 11.307 51.5273C11.3236 51.5439 11.3236 51.5605 11.3401 51.577C11.3567 51.5936 11.3567 51.6102 11.3733 51.6102C11.3899 51.6268 11.3899 51.6434 11.4065 51.6434C11.423 51.6599 11.423 51.6599 11.4396 51.6765C11.4562 51.6931 11.4562 51.7097 11.4728 51.7097C11.4893 51.7262 11.4893 51.7262 11.5059 51.7428C11.5225 51.7594 11.5391 51.776 11.5391 51.776C11.5557 51.7926 11.5557 51.7926 11.5722 51.8091C11.5888 51.8257 11.6054 51.8257 11.6054 51.8423C11.622 51.8589 11.622 51.8589 11.6386 51.8755C11.6551 51.892 11.6717 51.892 11.6883 51.9086C11.7049 51.9252 11.7215 51.9252 11.7215 51.9418C11.738 51.9584 11.7546 51.9584 11.7712 51.9749C11.7878 51.9915 11.8044 51.9915 11.8044 52.0081C11.8209 52.0247 11.8375 52.0247 11.8541 52.0412C11.8707 52.0578 11.8872 52.0578 11.9038 52.0744C11.9204 52.091 11.937 52.091 11.9536 52.1076C11.9701 52.1241 11.9867 52.1241 12.0033 52.1241C12.0199 52.1407 12.0365 52.1407 12.053 52.1407C12.0696 52.1407 12.0862 52.1573 12.1028 52.1573C12.1194 52.1573 12.1359 52.1739 12.1525 52.1739C12.1691 52.1739 12.1857 52.1905 12.2022 52.1905C12.2188 52.1905 12.2354 52.207 12.252 52.207C12.2686 52.207 12.2851 52.2236 12.3017 52.2236C12.3183 52.2236 12.3349 52.2402 12.3515 52.2402C12.368 52.2402 12.3846 52.2568 12.4012 52.2568C12.4178 52.2568 12.4344 52.2734 12.4509 52.2734C12.4675 52.2734 12.4841 52.2899 12.5007 52.2899C12.5173 52.2899 12.5338 52.3065 12.5504 52.3065C12.567 52.3065 12.5836 52.3231 12.6001 52.3231C12.6167 52.3231 12.6333 52.3231 12.6499 52.3397C12.6665 52.3397 12.683 52.3397 12.7162 52.3563C12.7328 52.3563 12.7494 52.3563 12.7659 52.3563C12.7825 52.3563 12.8157 52.3563 12.8323 52.3563C12.8488 52.3563 12.8654 52.3563 12.882 52.3563C12.8986 52.3563 12.9317 52.3563 12.9483 52.3563C12.9649 52.3563 12.9649 52.3563 12.9815 52.3563C13.0146 52.3563 13.0478 52.3563 13.0975 52.3563L20.3094 52.3231L52.8541 52.1905L60.066 52.1573C60.0991 52.1573 60.1323 52.1573 60.182 52.1573C60.1986 52.1573 60.1986 52.1573 60.2152 52.1573C60.2318 52.1573 60.2649 52.1573 60.2815 52.1573C60.2981 52.1573 60.3147 52.1573 60.3312 52.1573C60.3478 52.1573 60.381 52.1573 60.3976 52.1573C60.4141 52.1573 60.4307 52.1573 60.4473 52.1573C60.4639 52.1573 60.4805 52.1573 60.5136 52.1407C60.5302 52.1407 60.5468 52.1407 60.5634 52.1241C60.5799 52.1241 60.5965 52.1076 60.6131 52.1076C60.6297 52.1076 60.6462 52.091 60.6628 52.091C60.6794 52.091 60.696 52.0744 60.7126 52.0744C60.7291 52.0744 60.7457 52.0578 60.7623 52.0578C60.7789 52.0578 60.7955 52.0412 60.812 52.0412C60.8286 52.0412 60.8452 52.0247 60.8618 52.0247C60.8784 52.0247 60.8949 52.0081 60.9115 52.0081C60.9281 52.0081 60.9447 51.9915 60.9612 51.9915C60.9778 51.9915 60.9944 51.9749 61.011 51.9749C61.0276 51.9749 61.0441 51.9584 61.0607 51.9584C61.0773 51.9584 61.0939 51.9418 61.1105 51.9418C61.127 51.9418 61.1436 51.9252 61.1602 51.9252C61.1768 51.9086 61.1934 51.9086 61.2099 51.892C61.2265 51.8755 61.2431 51.8755 61.2597 51.8589C61.2763 51.8423 61.2928 51.8423 61.3094 51.8257C61.326 51.8091 61.3426 51.8091 61.3591 51.7926C61.3757 51.776 61.3923 51.776 61.4089 51.7594C61.4255 51.7428 61.442 51.7428 61.442 51.7262C61.4586 51.7097 61.4752 51.7097 61.4752 51.6931C61.4918 51.6765 61.5084 51.6765 61.5084 51.6599C61.5249 51.6433 61.5415 51.6434 61.5415 51.6268C61.5581 51.6102 61.5747 51.6102 61.5747 51.5936C61.5913 51.577 61.6078 51.577 61.6078 51.5605C61.6244 51.5439 61.6244 51.5439 61.641 51.5273C61.6576 51.5107 61.6576 51.5107 61.6742 51.4941C61.6907 51.4776 61.6907 51.461 61.7073 51.461C61.7239 51.4444 61.7239 51.4278 61.7405 51.4278C61.757 51.4112 61.757 51.3947 61.7736 51.3947C61.7902 51.3781 61.7902 51.3615 61.8068 51.3615C61.8234 51.3449 61.8234 51.3283 61.8399 51.3283C61.8565 51.3118 61.8565 51.2952 61.8731 51.2952C61.8897 51.2786 61.8897 51.262 61.9063 51.2455C61.9228 51.2289 61.9228 51.2123 61.9394 51.1957C61.956 51.1791 61.956 51.1626 61.9726 51.146C61.9892 51.1294 61.9892 51.1128 62.0057 51.0962C62.0223 51.0797 62.0223 51.0631 62.0389 51.0465C62.0555 51.0299 62.0555 51.0133 62.072 50.9968C62.072 50.9802 62.0886 50.9636 62.0886 50.947C62.0886 50.9305 62.1052 50.9139 62.1052 50.8973C62.1052 50.8807 62.1218 50.8641 62.1218 50.8476C62.1218 50.831 62.1384 50.8144 62.1384 50.7978C62.1384 50.7812 62.1549 50.7647 62.1549 50.7481C62.1549 50.7315 62.1715 50.7149 62.1715 50.6983C62.1715 50.6818 62.1881 50.6652 62.1881 50.6486C62.1881 50.632 62.2047 50.6154 62.2047 50.5823C62.2047 50.5657 62.2213 50.5491 62.2213 50.5326C62.2213 50.516 62.2378 50.4828 62.2378 50.4662C62.2378 50.4497 62.2378 50.4331 62.2544 50.4331C62.2544 50.4165 62.271 50.3833 62.271 50.3668C62.271 50.3502 62.271 50.3502 62.271 50.3336C62.271 50.3004 62.271 50.2839 62.2876 50.2507C62.2876 50.2341 62.2876 50.2341 62.2876 50.2176C62.2876 50.1844 62.2876 50.1512 62.3042 50.1347V50.1181C62.3042 50.1181 62.3042 50.1181 62.3042 50.1015C62.3042 50.0683 62.3042 50.0352 62.3042 50.002C62.3042 49.9689 62.3042 49.9523 62.3042 49.9191L62.2876 44.0004L62.2544 34.2519L62.2378 28.3332C62.1881 28.3166 62.1881 28.2834 62.1881 28.2669ZM59.9499 44.5475C59.0878 44.8625 58.2257 45.277 57.3967 45.8241C55.6891 46.9681 54.3959 48.4436 53.6167 50.0186L19.5633 50.1512C18.7676 48.5762 17.4578 47.1007 15.7502 45.9733C14.7554 45.3267 13.7109 44.8459 12.6665 44.5475L12.6167 34.0861C13.6612 33.7711 14.7057 33.2903 15.7004 32.6272C17.4081 31.4832 18.7012 30.0077 19.4805 28.4161L53.5173 28.2834C54.313 29.8585 55.6228 31.334 57.347 32.4614C58.176 33.0085 59.0381 33.423 59.9168 33.7214L59.9499 44.5475Z" fill="white"/>
<path d="M30.1736 46.1885C29.9249 45.9896 29.6928 45.7741 29.4773 45.5585C27.637 43.7348 26.6091 41.2811 26.5925 38.6948C26.5759 33.3232 30.9196 28.9463 36.2913 28.9297C41.6629 28.9132 46.0397 33.2569 46.0563 38.6285C46.0729 41.2314 45.0616 43.6685 43.2379 45.5254C41.4142 47.3657 38.9605 48.3936 36.3742 48.4101C34.0697 48.377 31.9144 47.6143 30.1736 46.1885ZM42.2929 31.3337C40.6516 29.9908 38.5626 29.195 36.2913 29.2116C33.7712 29.2282 31.4004 30.2063 29.6265 31.9969C27.8525 33.7874 26.8744 36.1582 26.8909 38.6782C26.9075 41.1982 27.8857 43.5691 29.6762 45.343C31.4668 47.117 33.8376 48.0951 36.3576 48.0786C38.8776 48.062 41.2484 47.0838 43.0224 45.2933C44.7963 43.5027 45.7745 41.1319 45.7579 38.6119C45.7413 35.6774 44.3984 33.0579 42.2929 31.3337Z" fill="white"/>
<path d="M43.5518 42.9025C45.9049 38.9115 44.5772 33.7685 40.5863 31.4152C36.5953 29.062 31.4525 30.3897 29.0994 34.3807C26.7464 38.3717 28.0741 43.5147 32.065 45.868C36.0559 48.2212 41.1988 46.8935 43.5518 42.9025Z" fill="white"/>
<path d="M35.4296 44.0011C34.2359 43.9514 33.092 43.6861 31.9812 43.2219L31.9646 40.503C32.5946 40.818 33.2909 41.0832 34.0204 41.2988C34.7665 41.5143 35.413 41.6138 35.9767 41.6138C36.4409 41.6138 36.7725 41.5474 36.988 41.448C37.2036 41.3319 37.303 41.1495 37.303 40.8843C37.303 40.7019 37.2202 40.5527 37.0709 40.4201C36.9217 40.2874 36.6565 40.1548 36.2917 40.0056C35.927 39.8564 35.4462 39.6574 34.8162 39.4419C34.1199 39.1932 33.5562 38.9114 33.1417 38.5798C32.7107 38.2648 32.4122 37.9001 32.2133 37.5187C32.0143 37.1208 31.9149 36.6401 31.9149 36.0432C31.9149 35.1479 32.1967 34.435 32.777 33.9377C33.3572 33.4237 34.2193 33.1087 35.3799 32.9927V31.1855H37.0709V32.9761C38.1486 33.0258 39.2428 33.2911 40.3536 33.7719L39.392 36.1095C38.2481 35.5956 37.2202 35.3469 36.3083 35.3469C35.8773 35.3469 35.5622 35.3966 35.3965 35.5127C35.2141 35.6121 35.1312 35.7779 35.1312 35.9769C35.1312 36.1593 35.1975 36.3085 35.3301 36.4245C35.4628 36.5406 35.6783 36.6732 35.9933 36.8058C36.3083 36.9551 36.7559 37.1208 37.303 37.3032C38.447 37.7011 39.2594 38.1653 39.7568 38.6627C40.2541 39.1766 40.5028 39.8398 40.5028 40.6522C40.5028 41.564 40.221 42.3101 39.6407 42.8903C39.0604 43.4706 38.2149 43.8188 37.1041 43.968L37.1207 46.1564H35.4296V44.0011Z" fill="#FF8A00"/>
<path d="M69.815 35.9599L69.8979 57.5624C69.8979 57.6287 69.8979 57.6784 69.8979 57.7448C69.815 58.8887 68.87 59.784 67.7094 59.784L20.741 59.9829C19.5804 59.9829 18.6189 59.0877 18.536 57.9603C18.536 57.9105 18.536 57.8442 18.536 57.7779L18.4531 36.1754C18.4531 36.1423 18.4531 36.1257 18.4531 36.0925C18.4862 34.8988 19.4644 33.9538 20.6581 33.9538L67.6265 33.7549C68.8202 33.7549 69.7984 34.6999 69.8481 35.877C69.815 35.9102 69.815 35.9267 69.815 35.9599Z" fill="#FF8A00"/>
<path d="M69.815 35.8772C69.7653 34.6835 68.7871 33.7385 67.5934 33.7551L60.3816 33.7883L27.8369 33.9209L20.625 33.954C19.4313 33.954 18.4531 34.9156 18.42 36.0927C18.42 36.1259 18.42 36.1425 18.42 36.1756L18.4366 42.0944L18.4697 51.8428L18.4863 57.7616C18.4863 57.7947 18.4863 57.8113 18.4863 57.8445C18.4863 57.8776 18.4863 57.9108 18.4863 57.9439C18.4863 57.9439 18.4863 57.9439 18.4863 57.9605V57.9771C18.4863 58.0103 18.4863 58.0434 18.5029 58.06C18.5029 58.0766 18.5029 58.0766 18.5029 58.0932C18.5029 58.1263 18.5029 58.1429 18.5195 58.176C18.5195 58.1926 18.5195 58.1926 18.5195 58.2092C18.5195 58.2258 18.536 58.2589 18.536 58.2755C18.536 58.2921 18.536 58.3087 18.5526 58.3087C18.5526 58.3253 18.5692 58.3418 18.5692 58.375C18.5692 58.3916 18.5858 58.4082 18.5858 58.4247C18.5858 58.4413 18.6024 58.4579 18.6024 58.4745C18.6024 58.491 18.6189 58.5076 18.6189 58.5242C18.6189 58.5408 18.6355 58.5574 18.6355 58.5739C18.6355 58.5905 18.6521 58.6071 18.6521 58.6237C18.6521 58.6403 18.6687 58.6568 18.6687 58.6734C18.6687 58.69 18.6852 58.7066 18.6852 58.7232C18.6852 58.7397 18.7018 58.7563 18.7018 58.7729C18.7018 58.7895 18.7184 58.806 18.7184 58.8226C18.7184 58.8392 18.735 58.8558 18.735 58.8724C18.7516 58.8889 18.7516 58.9055 18.7681 58.9221C18.7847 58.9387 18.7847 58.9553 18.8013 58.9718C18.8179 58.9884 18.8179 59.005 18.8345 59.0216C18.851 59.0382 18.851 59.0547 18.8676 59.0547C18.8842 59.0713 18.8842 59.0879 18.9008 59.1045C18.9174 59.1211 18.9174 59.1376 18.9339 59.1376C18.9505 59.1542 18.9505 59.1708 18.9671 59.1874C18.9837 59.2039 18.9837 59.2205 19.0002 59.2205C19.0168 59.2371 19.0168 59.2537 19.0334 59.2537C19.05 59.2703 19.05 59.2703 19.0666 59.2868C19.0831 59.3034 19.0831 59.32 19.0997 59.32C19.1163 59.3366 19.1163 59.3366 19.1329 59.3532C19.1495 59.3697 19.166 59.3863 19.166 59.3863C19.1826 59.4029 19.1826 59.4029 19.1992 59.4195C19.2158 59.4361 19.2324 59.4361 19.2324 59.4526C19.2489 59.4692 19.2489 59.4692 19.2655 59.4858C19.2821 59.5024 19.2987 59.5024 19.3153 59.5189C19.3318 59.5355 19.3484 59.5355 19.3484 59.5521C19.365 59.5687 19.3816 59.5687 19.3981 59.5853C19.4147 59.6018 19.4313 59.6018 19.4313 59.6184C19.4479 59.635 19.4645 59.635 19.481 59.6516C19.4976 59.6682 19.5142 59.6682 19.5308 59.6847C19.5474 59.7013 19.5639 59.7013 19.5805 59.7179C19.5971 59.7345 19.6137 59.7345 19.6303 59.7345C19.6468 59.7511 19.6634 59.7511 19.68 59.7511C19.6966 59.7511 19.7131 59.7676 19.7297 59.7676C19.7463 59.7676 19.7629 59.7842 19.7795 59.7842C19.796 59.7842 19.8126 59.8008 19.8292 59.8008C19.8458 59.8008 19.8624 59.8174 19.8789 59.8174C19.8955 59.8174 19.9121 59.834 19.9287 59.834C19.9453 59.834 19.9618 59.8505 19.9784 59.8505C19.995 59.8505 20.0116 59.8671 20.0282 59.8671C20.0447 59.8671 20.0613 59.8837 20.0779 59.8837C20.0945 59.8837 20.111 59.9003 20.1276 59.9003C20.1442 59.9003 20.1608 59.9168 20.1774 59.9168C20.1939 59.9168 20.2105 59.9334 20.2271 59.9334C20.2437 59.9334 20.2603 59.9334 20.2768 59.95C20.2934 59.95 20.31 59.95 20.3432 59.9666C20.3597 59.9666 20.3763 59.9666 20.3929 59.9666C20.4095 59.9666 20.4426 59.9666 20.4592 59.9666C20.4758 59.9666 20.4924 59.9666 20.5089 59.9666C20.5255 59.9666 20.5587 59.9666 20.5753 59.9666C20.5918 59.9666 20.5918 59.9666 20.6084 59.9666C20.6416 59.9666 20.6747 59.9666 20.7245 59.9666L27.9364 59.9334L60.481 59.8008L67.6929 59.7676C67.7261 59.7676 67.7592 59.7676 67.809 59.7676C67.8256 59.7676 67.8256 59.7676 67.8421 59.7676C67.8587 59.7676 67.8919 59.7676 67.9085 59.7676C67.925 59.7676 67.9416 59.7676 67.9582 59.7676C67.9748 59.7676 68.0079 59.7676 68.0245 59.7676C68.0411 59.7676 68.0577 59.7676 68.0742 59.7676C68.0908 59.7676 68.1074 59.7676 68.1406 59.7511C68.1571 59.7511 68.1737 59.7511 68.1903 59.7345C68.2069 59.7345 68.2235 59.7179 68.24 59.7179C68.2566 59.7179 68.2732 59.7013 68.2898 59.7013C68.3064 59.7013 68.3229 59.6847 68.3395 59.6847C68.3561 59.6847 68.3727 59.6682 68.3893 59.6682C68.4058 59.6682 68.4224 59.6516 68.439 59.6516C68.4556 59.6516 68.4721 59.635 68.4887 59.635C68.5053 59.635 68.5219 59.6184 68.5385 59.6184C68.555 59.6184 68.5716 59.6018 68.5882 59.6018C68.6048 59.6018 68.6214 59.5853 68.6379 59.5853C68.6545 59.5853 68.6711 59.5687 68.6877 59.5687C68.7043 59.5687 68.7208 59.5521 68.7374 59.5521C68.754 59.5521 68.7706 59.5355 68.7871 59.5355C68.8037 59.5189 68.8203 59.5189 68.8369 59.5024C68.8535 59.4858 68.87 59.4858 68.8866 59.4692C68.9032 59.4526 68.9198 59.4526 68.9364 59.4361C68.9529 59.4195 68.9695 59.4195 68.9861 59.4029C69.0027 59.3863 69.0193 59.3863 69.0358 59.3697C69.0524 59.3532 69.069 59.3532 69.069 59.3366C69.0856 59.32 69.1021 59.32 69.1021 59.3034C69.1187 59.2868 69.1353 59.2868 69.1353 59.2703C69.1519 59.2537 69.1685 59.2537 69.1685 59.2371C69.185 59.2205 69.2016 59.2205 69.2016 59.2039C69.2182 59.1874 69.2348 59.1874 69.2348 59.1708C69.2514 59.1542 69.2514 59.1542 69.2679 59.1376C69.2845 59.121 69.2845 59.1211 69.3011 59.1045C69.3177 59.0879 69.3177 59.0713 69.3343 59.0713C69.3508 59.0547 69.3508 59.0382 69.3674 59.0382C69.384 59.0216 69.384 59.005 69.4006 59.005C69.4171 58.9884 69.4172 58.9718 69.4337 58.9718C69.4503 58.9553 69.4503 58.9387 69.4669 58.9387C69.4835 58.9221 69.4835 58.9055 69.5 58.9055C69.5166 58.8889 69.5166 58.8724 69.5332 58.8558C69.5498 58.8392 69.5498 58.8226 69.5664 58.806C69.5829 58.7895 69.5829 58.7729 69.5995 58.7563C69.6161 58.7397 69.6161 58.7232 69.6327 58.7066C69.6493 58.69 69.6493 58.6734 69.6658 58.6568C69.6824 58.6403 69.6824 58.6237 69.699 58.6071C69.699 58.5905 69.7156 58.5739 69.7156 58.5574C69.7156 58.5408 69.7322 58.5242 69.7322 58.5076C69.7322 58.491 69.7487 58.4745 69.7487 58.4579C69.7487 58.4413 69.7653 58.4247 69.7653 58.4082C69.7653 58.3916 69.7819 58.375 69.7819 58.3584C69.7819 58.3418 69.7985 58.3253 69.7985 58.3087C69.7985 58.2921 69.815 58.2755 69.815 58.2589C69.815 58.2424 69.8316 58.2258 69.8316 58.1926C69.8316 58.176 69.8482 58.1595 69.8482 58.1429C69.8482 58.1263 69.8648 58.0931 69.8648 58.0766C69.8648 58.06 69.8648 58.0434 69.8814 58.0434C69.8814 58.0268 69.8979 57.9937 69.8979 57.9771C69.8979 57.9605 69.8979 57.9605 69.8979 57.9439C69.8979 57.9108 69.8979 57.8942 69.9145 57.861C69.9145 57.8445 69.9145 57.8445 69.9145 57.8279C69.9145 57.7947 69.9145 57.7616 69.9311 57.745V57.7284C69.9311 57.7284 69.9311 57.7284 69.9311 57.7118C69.9311 57.6787 69.9311 57.6455 69.9311 57.6124C69.9311 57.5792 69.9311 57.5626 69.9311 57.5295L69.9145 51.6107L69.8814 41.8623L69.8648 35.9435C69.815 35.927 69.815 35.9104 69.815 35.8772ZM67.5769 52.1744C66.7148 52.4894 65.8526 52.9039 65.0237 53.451C63.3161 54.595 62.0229 56.0705 61.2437 57.6455L27.1903 57.7781C26.3945 56.2031 25.0848 54.7276 23.3771 53.6002C22.3824 52.9536 21.3379 52.4728 20.2934 52.1744L20.2437 41.713C21.2882 41.398 22.3326 40.9172 23.3274 40.2541C25.035 39.1101 26.3282 37.6346 27.1074 36.043L61.1442 35.9104C61.94 37.4854 63.2497 38.9609 64.974 40.0883C65.8029 40.6354 66.665 41.0499 67.5437 41.3483L67.5769 52.1744Z" fill="white"/>
<path d="M37.8007 53.8155C37.552 53.6165 37.3199 53.401 37.1043 53.1855C35.2641 51.3618 34.2362 48.9081 34.2196 46.3217C34.203 40.9501 38.5467 36.5733 43.9183 36.5567C49.29 36.5401 53.6668 40.8838 53.6834 46.2554C53.7 48.8583 52.6887 51.2955 50.865 53.1523C49.0413 54.9926 46.5876 56.0205 44.0012 56.0371C41.6967 56.0039 39.5415 55.2413 37.8007 53.8155ZM49.9034 38.9607C48.2621 37.6177 46.1731 36.822 43.9018 36.8385C41.3817 36.8551 39.0109 37.8333 37.237 39.6238C35.463 41.4143 34.4849 43.7852 34.5014 46.3052C34.518 48.8252 35.4962 51.196 37.2867 52.9699C39.0773 54.7439 41.4481 55.7221 43.9681 55.7055C46.4881 55.6889 48.8589 54.7107 50.6329 52.9202C52.4068 51.1297 53.385 48.7589 53.3684 46.2389C53.3684 43.3044 52.0089 40.6849 49.9034 38.9607Z" fill="white"/>
<path d="M51.7889 49.2584C53.4355 44.9278 51.2597 40.0823 46.9291 38.4356C42.5986 36.789 37.7532 38.9648 36.1066 43.2954C34.46 47.6259 36.6358 52.4715 40.9664 54.1181C45.2969 55.7647 50.1424 53.589 51.7889 49.2584Z" fill="white"/>
<path d="M43.0567 51.6105C41.863 51.5608 40.719 51.2955 39.6082 50.8313L39.5917 48.1123C40.2217 48.4273 40.918 48.6926 41.6475 48.9081C42.3935 49.1237 43.0401 49.2231 43.6038 49.2231C44.068 49.2231 44.3996 49.1568 44.6151 49.0573C44.8307 48.9413 44.9301 48.7589 44.9301 48.4937C44.9301 48.3113 44.8472 48.1621 44.698 48.0294C44.5488 47.8968 44.2836 47.7642 43.9188 47.615C43.5541 47.4658 43.0733 47.2668 42.4433 47.0513C41.747 46.8026 41.1833 46.5208 40.7688 46.1892C40.3377 45.8742 40.0393 45.5094 39.8404 45.1281C39.6414 44.7302 39.5419 44.2494 39.5419 43.6526C39.5419 42.7573 39.8238 42.0444 40.404 41.547C40.9843 41.0331 41.8464 40.7181 43.007 40.602V38.7949H44.698V40.5855C45.7757 40.6352 46.8699 40.9005 47.9807 41.3813L47.0191 43.7189C45.8751 43.2049 44.8472 42.9563 43.9354 42.9563C43.5043 42.9563 43.1893 43.006 43.0235 43.1221C42.8412 43.2215 42.7583 43.3873 42.7583 43.5863C42.7583 43.7686 42.8246 43.9178 42.9572 44.0339C43.0899 44.15 43.3054 44.2826 43.6204 44.4152C43.9354 44.5644 44.383 44.7302 44.9301 44.9126C46.0741 45.3105 46.8865 45.7747 47.3838 46.2721C47.8812 46.786 48.1299 47.4492 48.1299 48.2616C48.1299 49.1734 47.8481 49.9195 47.2678 50.4997C46.6875 51.08 45.842 51.4281 44.7312 51.5774L44.7478 53.7658H43.0567V51.6105Z" fill="#FF8A00"/>
</svg>
