<svg width="82" height="82" viewBox="0 0 82 82" fill="none" xmlns="http://www.w3.org/2000/svg">
<path d="M41 82C63.6437 82 82 63.6437 82 41C82 18.3563 63.6437 0 41 0C18.3563 0 0 18.3563 0 41C0 63.6437 18.3563 82 41 82Z" fill="#FF8A00"/>
<path d="M64.7409 30.2233C64.7409 29.6762 64.2436 29.2285 63.6467 29.2285H18.7341C18.1206 29.2285 17.6067 29.6927 17.6067 30.2564V37.4517H64.7409V30.2233V30.2233Z" fill="white"/>
<path d="M17.6067 39.2422V56.0699C17.6067 58.4573 19.7122 60.4136 22.2654 60.4136H60.1154C62.6686 60.4136 64.7409 58.4739 64.7409 56.1031V39.2422H17.6067Z" fill="white"/>
<path d="M41.149 18.4189C34.6003 18.4189 29.1789 23.3595 28.2505 28.499H54.0641C53.1191 23.3595 47.6977 18.4189 41.149 18.4189ZM32.1797 28.0016C32.8429 24.3542 36.6892 21.5192 41.3479 21.5192C45.9901 21.5192 49.8364 24.3542 50.5162 28.0016H32.1797Z" fill="white"/>
<path d="M27.2233 50.6325H26.3446C25.5985 50.6325 24.9685 50.019 24.9685 49.2564V43.1056C24.9685 42.3595 25.5819 41.7295 26.3446 41.7295H27.2233C27.9693 41.7295 28.5993 42.3429 28.5993 43.1056V49.2564C28.5827 50.019 27.9693 50.6325 27.2233 50.6325Z" fill="#FF8A00"/>
<path d="M56.0043 50.6325H55.1256C54.3795 50.6325 53.7495 50.019 53.7495 49.2564V43.1056C53.7495 42.3595 54.3629 41.7295 55.1256 41.7295H56.0043C56.7503 41.7295 57.3803 42.3429 57.3803 43.1056V49.2564C57.3803 50.019 56.7669 50.6325 56.0043 50.6325Z" fill="#FF8A00"/>
</svg>
